<svg width="64" height="108" viewBox="0 0 64 108" fill="none" xmlns="http://www.w3.org/2000/svg">
<rect x="0.5" y="0.5" width="63" height="107" rx="4.5" fill="white"/>
<rect x="0.5" y="0.5" width="63" height="107" rx="4.5" stroke="#9747FF" stroke-dasharray="10 5"/>
<path d="M32 22C26.4772 22 22 26.4772 22 32C22 37.5228 26.4772 42 32 42C37.5228 42 42 37.5228 42 32C42 26.4772 37.5228 22 32 22ZM32 23.7998C36.5287 23.7998 40.2002 27.4713 40.2002 32C40.2002 36.5287 36.5287 40.2002 32 40.2002C27.4713 40.2002 23.7998 36.5287 23.7998 32C23.7998 27.4713 27.4713 23.7998 32 23.7998ZM29.5625 32.2637C29.2329 31.9341 28.7109 31.9137 28.3574 32.2021L28.2891 32.2637L26.8643 33.752L26.8027 33.8203C26.5145 34.1738 26.5349 34.6949 26.8643 35.0244L28.3574 36.6387L28.4258 36.7002C28.7792 36.9883 29.3014 36.9679 29.6309 36.6387C29.9603 36.3092 29.9805 35.7871 29.6924 35.4336L29.6309 35.3652L29.5713 35.2979H36.499L36.5908 35.293C37.0449 35.2471 37.3994 34.8636 37.3994 34.3975C37.3994 33.9313 37.0449 33.5478 36.5908 33.502L36.499 33.4971H29.5986L29.624 33.4688C29.9125 33.1153 29.892 32.5932 29.5625 32.2637Z" fill="black" fill-opacity="0.32"/>
<path d="M34.3082 30.5308C34.0198 30.8843 34.0402 31.4064 34.3697 31.7359C34.6992 32.0654 35.2213 32.0858 35.5748 31.7974L35.6431 31.7359L37.1361 30.1221C37.4656 29.7926 37.4859 29.2715 37.1976 28.918L37.1361 28.8497L35.7115 27.3612L35.6432 27.2997C35.2897 27.0112 34.7676 27.0316 34.4381 27.3612C34.1085 27.6907 34.0881 28.2128 34.3766 28.5663L34.4381 28.6346L35.2269 29.4854L34.3697 30.4625L34.3082 30.5308Z" fill="#ADADAD"/>
<path d="M27.5015 28.5947L27.4097 28.5996C26.9556 28.6455 26.6011 29.029 26.6011 29.4951C26.6011 29.9613 26.9556 30.3448 27.4097 30.3906L27.5015 30.3955H36.23C36.727 30.3955 37.1304 29.9922 37.1304 29.4951C37.1304 28.9981 36.727 28.5947 36.23 28.5947H27.5015Z" fill="#ADADAD"/>
<path d="M32 64C26.4772 64 22 68.4772 22 74C22 79.5228 26.4772 84 32 84C37.5228 84 42 79.5228 42 74C42 68.4772 37.5228 64 32 64Z" fill="black" fill-opacity="0.32"/>
<path d="M34.3082 72.5308C34.0198 72.8843 34.0402 73.4064 34.3697 73.7359C34.6992 74.0654 35.2213 74.0858 35.5748 73.7974L35.6431 73.7359L37.1361 72.1221C37.4656 71.7926 37.4859 71.2715 37.1976 70.918L37.1361 70.8497L35.7115 69.3612L35.6432 69.2997C35.2897 69.0112 34.7676 69.0316 34.4381 69.3612C34.1085 69.6907 34.0881 70.2128 34.3766 70.5663L34.4381 70.6346L35.2269 71.4854L34.3697 72.4625L34.3082 72.5308Z" fill="white"/>
<path d="M27.5015 70.5947L27.4097 70.5996C26.9556 70.6455 26.6011 71.029 26.6011 71.4951C26.6011 71.9613 26.9556 72.3448 27.4097 72.3906L27.5015 72.3955H36.23C36.727 72.3955 37.1304 71.9922 37.1304 71.4951C37.1304 70.9981 36.727 70.5947 36.23 70.5947H27.5015Z" fill="white"/>
<path d="M29.6923 77.4332C29.9807 77.7867 29.9603 78.3087 29.6308 78.6382C29.3013 78.9677 28.7792 78.9881 28.4257 78.6998L28.3574 78.6382L26.8644 77.0245C26.5349 76.695 26.5145 76.1739 26.8029 75.8204L26.8644 75.752L28.289 74.2635L28.3573 74.202C28.7108 73.9136 29.2329 73.934 29.5624 74.2635C29.892 74.5931 29.9124 75.1151 29.6239 75.4686L29.5624 75.537L28.7736 76.3878L29.6308 77.3648L29.6923 77.4332Z" fill="white"/>
<path d="M36.499 75.4971L36.5908 75.502C37.0449 75.5478 37.3994 75.9313 37.3994 76.3975C37.3994 76.8636 37.0449 77.2471 36.5908 77.293L36.499 77.2979H27.7705C27.2735 77.2979 26.8701 76.8945 26.8701 76.3975C26.8701 75.9004 27.2735 75.4971 27.7705 75.4971H36.499Z" fill="white"/>
</svg>
