<svg width="24" height="24" viewBox="0 0 24 24" fill="none" xmlns="http://www.w3.org/2000/svg">
<path d="M12 2C6.47715 2 2 6.47715 2 12C2 17.5228 6.47715 22 12 22C17.5228 22 22 17.5228 22 12C22 6.47715 17.5228 2 12 2Z" fill="black" fill-opacity="0.32"/>
<path d="M14.3082 10.5308C14.0198 10.8843 14.0402 11.4064 14.3697 11.7359C14.6992 12.0654 15.2213 12.0858 15.5748 11.7974L15.6431 11.7359L17.1361 10.1221C17.4656 9.79263 17.4859 9.27154 17.1976 8.91804L17.1361 8.84968L15.7115 7.36119L15.6432 7.29967C15.2897 7.01121 14.7676 7.03163 14.4381 7.36119C14.1085 7.69074 14.0881 8.21277 14.3766 8.56627L14.4381 8.63463L15.2269 9.48542L14.3697 10.4625L14.3082 10.5308Z" fill="white"/>
<path d="M7.50146 8.59473L7.40967 8.59961C6.9556 8.64547 6.60107 9.02896 6.60107 9.49512C6.60107 9.96127 6.9556 10.3448 7.40967 10.3906L7.50146 10.3955H16.23C16.727 10.3955 17.1304 9.99217 17.1304 9.49512C17.1304 8.99806 16.727 8.59473 16.23 8.59473H7.50146Z" fill="white"/>
<path d="M9.69231 15.4332C9.9807 15.7867 9.96032 16.3087 9.63079 16.6382C9.30125 16.9677 8.77919 16.9881 8.42571 16.6998L8.35735 16.6382L6.86441 15.0245C6.53489 14.695 6.51454 14.1739 6.80288 13.8204L6.86441 13.752L8.28897 12.2635L8.35733 12.202C8.71083 11.9136 9.23285 11.934 9.56241 12.2635C9.89196 12.5931 9.91238 13.1151 9.62393 13.4686L9.56241 13.537L8.77358 14.3878L9.63079 15.3648L9.69231 15.4332Z" fill="white"/>
<path d="M16.499 13.4971L16.5908 13.502C17.0449 13.5478 17.3994 13.9313 17.3994 14.3975C17.3994 14.8636 17.0449 15.2471 16.5908 15.293L16.499 15.2979H7.77051C7.27345 15.2979 6.87012 14.8945 6.87012 14.3975C6.87012 13.9004 7.27345 13.4971 7.77051 13.4971H16.499Z" fill="white"/>
</svg>
