<?xml version="1.0" encoding="utf-8"?>
<!-- Generator: Adobe Illustrator 26.0.3, SVG Export Plug-In . SVG Version: 6.00 Build 0)  -->
<svg version="1.1" id="Слой_1" xmlns="http://www.w3.org/2000/svg" xmlns:xlink="http://www.w3.org/1999/xlink" x="0px" y="0px"
	 viewBox="0 0 587.4 595.3" style="enable-background:new 0 0 587.4 595.3;" xml:space="preserve">
<style type="text/css">
	.st0{fill:#C08C78;}
	.st1{fill:#394B39;}
	.st2{fill:#699659;}
	.st3{fill:#AA7367;}
	.st4{fill:#CCAE9D;}
	.st5{fill:#54814E;}
</style>
<g>
	<g>
		<path class="st0" d="M275,542.3c0,0-0.8-26.5,16.6-52.4c18.1-26.8,44.5-49.9,66.2-84.1c15.7-24.8,28-66.6,12.7-94.1
			c-15.2-27.4-39.8-44.3-101.8-42.2c-62.1,2.1-84,27.9-92.4,57.6s1.4,60.2,25.9,88.7c33.2,38.8,44.8,53.8,65.1,88.1
			C275,517,275,542.3,275,542.3z"/>
		<path class="st1" d="M275,547.8c-3,0-5.4-2.4-5.5-5.3c0-0.1,0-0.4,0-1c-0.1-7.3-1.5-25.5-6.9-34.8c-20.1-34-31.2-48.4-64.5-87.3
			c-26.4-30.7-35.7-63.1-27-93.8c5.2-18.3,14.4-32.1,28.1-42.1c16.6-12.1,39.3-18.5,69.4-19.5c57-1.9,88,11.1,106.8,45
			c16.2,29,4.7,72-12.9,99.7c-12.3,19.3-25.7,34.8-38.7,49.8c-10.1,11.7-19.7,22.7-27.6,34.4c-15,22.3-15.6,45.3-15.7,48.7
			c0,0.3,0,0.5,0,0.6C280.5,545.3,278.1,547.8,275,547.8C275.1,547.8,275,547.8,275,547.8z M279,274.8c-3.2,0-6.6,0.1-10.1,0.2
			c-65.3,2.2-81.1,31.6-87.3,53.6c-7.6,27,0.9,55.9,24.8,83.6c33.3,38.9,45.3,54.4,65.7,88.9c1.4,2.5,2.6,5.3,3.6,8.2
			c2.6-7.1,6.2-14.8,11.4-22.5c8.3-12.2,18-23.5,28.4-35.5c12.7-14.7,25.9-29.9,37.7-48.5c16.3-25.8,25.9-64.5,12.5-88.5
			C352.5,290.7,332.4,274.8,279,274.8z"/>
	</g>
	<g>
		<path class="st2" d="M284.2,266.9c0,0-4.3-21.8,16.7-36.8c13-9.3,28.2-8.7,28.2-8.7s-21-15.5-14.2-33s31.2-10.8,31.2-10.8
			s-5.6-20.2,6.6-27.1c12.2-6.9,25.9,0,25.9,0s0.6-20.2,17.5-25.1c11.5-3.3,30.6-0.6,33.7,18.8c1.8,11.7-12.3,18.6-12.3,18.6
			s14.6,10.3,7.4,25.9c-6.3,13.6-28,7.6-28,7.6s14,15,0.7,27.1c-9.6,8.7-30.4,0.3-30.4,0.3s8.7,11.3,1.7,21.1
			c-8.1,11.3-32,9.1-31.7-9.1c0,0-24.9-4-34.9,13.2c-7,12.1-2.7,19.3-2.7,19.3L284.2,266.9z"/>
		<path class="st1" d="M299.7,273.7c-0.2,0-0.4,0-0.5,0l-15.4-1.3c-2.4-0.2-4.5-2-4.9-4.4c-0.2-1-4.7-25.5,18.9-42.3
			c6.5-4.7,13.5-7.1,19.3-8.4c-6-7.3-12-18.4-7.2-30.8c5.3-13.6,19.1-16.3,29.7-15.5c-0.6-7.9,0.5-19.5,10.5-25.2
			c8.8-5,18.1-4.1,24.2-2.6c1.9-7.6,6.9-19.1,20.4-23c7.6-2.2,19-2.4,28.2,3.5c6.7,4.3,11,11.1,12.4,19.8c1.4,9.4-4.2,16.2-9,20.2
			c5,6.2,9,16,3.7,27.4c-4.3,9.4-13.8,12.1-22.6,12.2c1,2.7,1.6,5.8,1.5,9.1c-0.2,5.7-2.8,10.9-7.5,15.2c-6.7,6.1-16.7,6-24.6,4.6
			c0.9,4.8,0.5,10.4-3.4,15.9c-5.7,8-17.2,11.3-27.4,8c-7.4-2.4-12.3-7.9-13.8-15.1c-6.6-0.2-19.3,0.9-25.1,10.8
			c-4.8,8.3-3,13.1-2.7,13.8c1.2,1.7,1.1,3.8,0.1,5.7C303.5,272.8,301.6,273.7,299.7,273.7z M304.3,265.4L304.3,265.4z M289.3,261.8
			l3.5,0.3c0-4.1,1-9.5,4.8-16c11.8-20.2,39.4-16.1,40.5-15.9c2.7,0.4,4.7,2.8,4.6,5.5c-0.1,6.2,3.6,8.7,6.7,9.7
			c5.5,1.8,12.1,0.1,15-3.9c4.5-6.3-1.4-14.2-1.6-14.6c-1.5-2-1.5-4.7,0-6.7c1.5-2,4.1-2.7,6.4-1.8c4.6,1.8,18.9,5.9,24.6,0.7
			c2.5-2.3,3.8-4.7,3.9-7.5c0.2-5-3.5-10.2-5-11.8c-1.7-1.8-1.9-4.5-0.6-6.6c1.3-2.1,3.8-3.1,6.1-2.4c0.2,0,17.4,4.4,21.5-4.6
			c5.1-11-4.5-18.3-5.6-19.1c-1.6-1.1-2.4-3-2.3-4.9c0.2-1.9,1.3-3.6,3-4.5c0.1,0,10.4-5.3,9.3-12.8c-0.9-5.5-3.4-9.6-7.5-12.2
			c-5.8-3.7-13.9-3.7-19.3-2.2c-12.8,3.7-13.5,19.3-13.5,20c-0.1,1.9-1.1,3.6-2.7,4.5s-3.6,1-5.3,0.2c-0.1,0-11.3-5.4-20.7-0.1
			c-8.1,4.6-4.1,20.7-4,20.8c0.5,1.9,0,4-1.4,5.4c-1.4,1.4-3.4,1.9-5.3,1.4c-0.8-0.2-19.7-5.1-24.6,7.5
			c-5.2,13.4,12.2,26.5,12.3,26.6c1.9,1.4,2.7,4,1.9,6.2c-0.8,2.3-3,3.8-5.4,3.7c-0.1,0-13.6-0.3-24.8,7.7
			C291.3,243.7,289.3,255.7,289.3,261.8z"/>
	</g>
	<path class="st3" d="M369.9,360.6c0,0-19.3,39.8-50,64.7c-54.2,44-94.4,9.1-94.4,9.1s19.7,26.7,29,38.8c8.8,11.4,21,36.6,21,36.6
		s16.2-26,34.7-48.8c18.4-22.8,38.6-49.4,47.7-66C367.7,376.8,369.9,360.6,369.9,360.6z"/>
	
		<ellipse transform="matrix(5.067833e-02 -0.9987 0.9987 5.067833e-02 -18.671 594.6161)" class="st4" cx="303.4" cy="307.1" rx="8.1" ry="36.4"/>
	<g>
		<path class="st2" d="M245.7,271l-11.9-35.1c0,0-12.7,23.3-29,19c-20.1-5.3-12.2-27.4-12.2-27.4s-23.9,4.1-30.7-17.8
			c-5.7-18.1,14.7-37.3,14.7-37.3s-25.1-1.4-28.7-17c-5.6-24.4,20.1-43.3,39.9-29.2C232.5,157.9,259,268,259,268L245.7,271z"/>
		<path class="st1" d="M245.7,276.5c-2.3,0-4.4-1.5-5.2-3.7l-8.4-24.9c-6.2,7.3-16.3,15.6-28.7,12.3c-7.1-1.9-12.1-5.6-15.1-11.3
			c-2.8-5.3-3-11.2-2.5-15.7c-10.4-0.6-24-5.6-29.1-22c-4.3-13.5,3.2-27,9.4-35.1c-8.9-2.3-20.7-7.5-23.5-19.5
			c-3.2-13.9,2.2-27.8,13.7-35.5c10.8-7.2,24.1-7,34.8,0.6c45.8,32.5,72.3,140.4,73.4,145c0.3,1.4,0.1,2.9-0.7,4.2
			c-0.8,1.2-2,2.1-3.5,2.5l-13.3,3C246.5,276.5,246.1,276.5,245.7,276.5z M233.8,230.4c0.2,0,0.3,0,0.5,0c2.2,0.2,4,1.6,4.7,3.7
			l10.3,30.4l2.9-0.7c-6-22.3-30.7-107-67.6-133.2c-6.9-4.9-15.3-5.1-22.3-0.4c-7.7,5.1-11.2,14.5-9.1,23.9
			c2.6,11.2,23.4,12.7,23.7,12.7c2.2,0.1,4.1,1.6,4.8,3.6s0.2,4.4-1.4,5.9c-0.2,0.2-17.8,17.1-13.2,31.6c5.2,16.7,22.6,14.3,24.5,14
			c1.9-0.3,3.9,0.4,5.1,1.9c1.2,1.5,1.6,3.5,1,5.4c-0.8,2.3-2.4,9.6,0.3,14.5c1.5,2.8,4.1,4.7,8.1,5.7c11.7,3.1,22.7-16.1,22.8-16.3
			C229.9,231.5,231.8,230.4,233.8,230.4z"/>
	</g>
	<path class="st5" d="M162.1,130.4c0,0,6.8-4.1,19,6.2c13.1,11.1,20.2,21.2,27.7,47.2c10.1,35,28.8,48.3,28.8,48.3l11.9,33.2
		l3.9-0.7c0,0-15.7-54.2-32.7-86.8s-30.8-45.5-40.5-49.6C170.5,124.2,162.1,130.4,162.1,130.4z"/>
	<g>
		<path class="st2" d="M268.1,267.7l-2.9-57.6c0,0-26.1,21.5-35.5-2.4c-7.8-19.7,18.8-24.5,18.8-24.5s-31.5-6.4-30.9-28.1
			s29.7-20.6,29.7-20.6s-35.6-19.1-24.8-41.5s36.1,2.1,36.1,2.1s-6.5-46.5,21.1-42.5c28.9,4.1,13.1,41.8,13.1,41.8
			s32.4-17.3,37.6,6.2c6.2,27.8-33.3,32-33.3,32s23.2,3.1,24.2,17c2.1,28.3-32,24-32,24c27.6,12.6,24.4,31.3,16.8,37.6
			c-11.2,9.3-26.7-1.9-26.7-1.9l3,58.5L268.1,267.7L268.1,267.7z"/>
		<path class="st1" d="M282.4,273.3h-14.3c-3,0-5.5-2.4-5.5-5.5l-2.4-47.9c-5.8,3.1-13.7,5.8-21.2,3.9c-4.5-1.2-10.6-4.6-14.4-14.1
			c-3.3-8.2-1.5-14.3,0.5-18c1.9-3.5,4.8-6.1,7.9-8.1c-9.9-4.8-21.3-13.6-20.9-28.6c0.2-6.9,2.7-12.6,7.4-17c3.8-3.5,8.5-5.7,13-7
			c-10.6-8.7-23.1-23.4-14.9-40.4c4.2-8.7,10.3-11.5,14.7-12.2c7.2-1.3,14.5,1.7,20.1,5.1c0-9.9,1.7-23.2,9.3-30.8
			c3.3-3.3,9.3-6.9,18.8-5.6c10.8,1.5,16.1,7.2,18.6,11.6c4.6,8.1,3.9,18.4,2.3,26.2c7-2.2,16.1-3.6,23.4-0.2c3.9,1.8,9,5.8,11,14.6
			c1.8,8.2,0.5,15.6-4,21.8c-4.1,5.6-10.2,9.5-16.1,12c5.6,3.3,10.6,8.4,11.1,16c0.7,9.1-1.8,16.5-7.4,21.8
			c-3.8,3.6-8.5,5.7-13.1,6.9c7.2,6.4,9.7,13,10.4,18.1c1,7.5-1.7,15-7.1,19.5c-8.1,6.7-17.5,5.5-24.2,3l2.5,49
			c0.1,1.5-0.5,3-1.5,4.1C285.3,272.7,283.9,273.3,282.4,273.3z M273.3,262.3h3.3l-2.7-52.7c-0.1-2.1,1-4.1,2.9-5.1
			c1.9-1,4.1-0.9,5.8,0.4c0.1,0.1,12.2,8.6,20,2.1c2-1.7,3.8-5.3,3.2-9.5c-0.9-7-7.6-13.7-18.8-18.8c-2.5-1.1-3.7-3.9-3-6.5
			c0.7-2.6,3.3-4.3,6-4c4.1,0.5,15.9,0.5,21.9-5.2c3.1-3,4.4-7.2,4-13c-0.6-7.7-14.6-11.3-19.5-12c-2.8-0.4-4.8-2.8-4.8-5.5
			c0-2.8,2.1-5.1,4.9-5.4c5.3-0.6,20.3-3.9,26.4-12.3c2.6-3.6,3.3-7.9,2.2-13c-1.1-4.8-3.3-6.3-4.8-7c-7.2-3.3-20.6,2.3-24.8,4.5
			c-2.1,1.1-4.6,0.8-6.3-0.8c-1.7-1.6-2.3-4-1.4-6.2c2.1-5,6.5-19.9,1.8-28.1c-1.9-3.4-5.4-5.4-10.6-6.2c-5.4-0.8-8,1-9.4,2.5
			c-7.3,7.3-6.4,27.3-5.4,33.8c0.3,2.3-0.9,4.6-3,5.7c-2.1,1.1-4.6,0.7-6.3-1c-3.1-3-13.5-11.1-20.6-9.9c-1,0.2-4.1,0.7-6.7,6.2
			c-8.4,17.4,22.1,34.1,22.5,34.3c2.3,1.2,3.4,3.8,2.7,6.3c-0.7,2.5-3,4.1-5.5,4.1c-3.7-0.1-14.5,0.7-20.1,6
			c-2.5,2.4-3.8,5.4-3.9,9.2c-0.5,16.8,26.2,22.5,26.5,22.6c2.6,0.5,4.4,2.8,4.4,5.5c0,2.6-1.9,4.9-4.5,5.3
			c-3.1,0.6-11.9,3.2-14.7,8.5c-1.3,2.4-1.3,5.2,0.1,8.6c2.5,6.4,5.8,7.2,6.9,7.5c6.8,1.8,17-4.9,20-7.3c1.6-1.3,3.8-1.6,5.7-0.8
			c1.9,0.8,3.2,2.7,3.3,4.7L273.3,262.3z"/>
	</g>
	<path class="st5" d="M418,133.5c0,0-24.7,15.8-37.6,43.9c-10.5,23-48.4,52.2-48.4,52.2s9.7-0.3,10.1,3.6c0.3,2.5,0.5,7.4,3.7,10.4
		c3.6,3.3,10.2,4.3,15.9,0.3c4.6-3.2,5.4-8.2,3.7-12.3c-1.8-4.4-6.2-7.8-2.3-11.8c3.6-3.6,8.2-0.5,13.9,1.1
		c6.5,1.8,14.1,2.2,18.4-3.3c3.6-4.6,2.8-9.1,0.8-12.8c-2.5-4.5-6.5-8.1-3.6-12c2.4-3.2,6.7-1.6,11.6-0.9c5.9,0.8,12.6,0.7,16.2-6.3
		c3.8-7.3,0.4-12.4-3.2-16.1c-2.7-2.8-5.5-4.5-5-7.5c1.2-6.3,12.1-6.4,12.5-15.3C425,137.9,418,133.5,418,133.5z"/>
	<path class="st5" d="M279.4,58.1c0,0.6-6.6,29.6-9.7,57.6s2.3,44.3,3.7,63.8c1.4,19.4,0.6,28.9,0.6,28.9s1.1-5.2,6-4.5
		c1.3,0.2,4.7,2.5,9,4.1c5.8,2.1,13,3,15.9-3.8c4.6-10.5-4-16.9-10-21.4s-12-4.6-10.7-10.1c1-4.4,3.6-4.7,8.5-4.5
		s19.9,0.1,22.9-11.5c2.8-11.1-2.2-13.8-14.5-17.9c-10.5-3.5-9.4-6.9-8.3-8.8c1.7-2.7,11.3-3.4,19.1-7.1c8.4-3.9,17-10.7,13.7-21.5
		c-2.9-9.4-11-8.7-20-6.7c-8.9,1.9-11.9,7-16.6,3.2c-4.7-3.9,2.9-7.8,2.7-25.2C291.4,58.2,279.4,58.1,279.4,58.1z"/>
</g>
</svg>
