<svg width="24" height="24" viewBox="0 0 24 24" fill="none" xmlns="http://www.w3.org/2000/svg">
<path d="M13.1445 19.2793C13.2938 18.8052 13.7993 18.5422 14.2734 18.6914C14.7475 18.8407 15.0106 19.3463 14.8613 19.8203C14.6944 20.3502 14.3839 20.8214 13.9668 21.1836L13.7822 21.332C13.3353 21.662 12.8064 21.8611 12.2559 21.9082L12.0186 21.9189C11.463 21.9223 10.9189 21.7715 10.4463 21.4854L10.248 21.3545C9.73255 20.9836 9.34754 20.4579 9.14941 19.8545L10.0049 19.5742L10.8604 19.293C10.9395 19.5342 11.0928 19.7442 11.2988 19.8926L11.4609 19.9912C11.6296 20.076 11.8173 20.1203 12.0078 20.1191L12.1963 20.1025C12.3823 20.0717 12.5597 19.9978 12.7129 19.8848L12.8555 19.7598C12.9877 19.6252 13.0873 19.461 13.1445 19.2793Z" fill="black" fill-opacity="0.32"/>
<path d="M9.72363 18.7188C10.1958 18.5637 10.7052 18.8208 10.8604 19.293L9.14941 19.8545C8.99469 19.3825 9.25173 18.8739 9.72363 18.7188Z" fill="black" fill-opacity="0.32"/>
<path fill-rule="evenodd" clip-rule="evenodd" d="M12 2.08105C15.8108 2.08106 18.9004 5.17068 18.9004 8.98145V15.2812H20C20.4971 15.2812 20.9004 15.6846 20.9004 16.1816C20.9004 16.6787 20.4971 17.082 20 17.082H4L3.9082 17.0771C3.45426 17.0312 3.09961 16.6477 3.09961 16.1816C3.09961 15.7156 3.45426 15.3321 3.9082 15.2861L4 15.2812H5.09961V8.98145C5.09961 5.17068 8.18924 2.08106 12 2.08105ZM12 3.88184C9.18335 3.88184 6.90039 6.16479 6.90039 8.98145V15.2812H17.0996V8.98145C17.0996 6.16479 14.8166 3.88184 12 3.88184Z" fill="black" fill-opacity="0.32"/>
</svg>
