<svg width="24" height="24" viewBox="0 0 24 24" fill="none" xmlns="http://www.w3.org/2000/svg">
<path d="M15.2734 2.11035C15.6649 1.8076 16.2379 1.87638 16.5527 2.26367L19.2715 5.60742L19.2725 5.60938H21.1553L21.2539 5.61426C21.7428 5.66023 22.1249 6.04378 22.125 6.50977C22.125 6.97584 21.7428 7.35929 21.2539 7.40527L21.1553 7.41016H20.7871L19.0117 17.9697C18.6874 20.1871 17.1539 21.9004 15 21.9004H9C6.84619 21.9004 5.25011 20.0995 4.98047 18.0156L3.19434 7.41016H2.84473C2.30939 7.41012 1.875 7.0068 1.875 6.50977C1.8751 6.01281 2.30945 5.60941 2.84473 5.60938H4.91602L4.91699 5.60742L7.63574 2.26367C7.95063 1.87667 8.52273 1.80775 8.91406 2.11035C9.30537 2.4132 9.36752 2.97305 9.05273 3.36035L7.22363 5.60938H16.9639L15.1348 3.36035C14.8199 2.97305 14.8821 2.41321 15.2734 2.11035ZM6.78125 18.0156C6.96885 19.1561 7.8403 20.0996 9 20.0996H15C16.1598 20.0996 17.0155 19.109 17.2109 17.9697L18.9863 7.41016H4.99512L6.78125 18.0156ZM15 15.0996C15.4971 15.0996 15.9004 15.5029 15.9004 16C15.9002 16.4969 15.4969 16.9004 15 16.9004H9C8.50308 16.9004 8.09983 16.4969 8.09961 16C8.09961 15.5029 8.50294 15.0996 9 15.0996H15ZM15 11.0996C15.4971 11.0996 15.9004 11.5029 15.9004 12C15.9002 12.4969 15.4969 12.9004 15 12.9004H9C8.50308 12.9004 8.09983 12.4969 8.09961 12C8.09961 11.5029 8.50294 11.0996 9 11.0996H15Z" fill="black" fill-opacity="0.32"/>
</svg>
