<svg width="64" height="108" viewBox="0 0 64 108" fill="none" xmlns="http://www.w3.org/2000/svg">
<rect x="0.5" y="0.5" width="63" height="107" rx="4.5" fill="white"/>
<rect x="0.5" y="0.5" width="63" height="107" rx="4.5" stroke="#9747FF" stroke-dasharray="10 5"/>
<path d="M35.2734 22.1104C35.6649 21.8076 36.2379 21.8764 36.5527 22.2637L39.2715 25.6074L39.2725 25.6094H41.1553L41.2539 25.6143C41.7428 25.6602 42.1249 26.0438 42.125 26.5098C42.125 26.9758 41.7428 27.3593 41.2539 27.4053L41.1553 27.4102H40.7871L39.0117 37.9697C38.6874 40.1871 37.1539 41.9004 35 41.9004H29C26.8462 41.9004 25.2501 40.0995 24.9805 38.0156L23.1943 27.4102H22.8447C22.3094 27.4101 21.875 27.0068 21.875 26.5098C21.8751 26.0128 22.3095 25.6094 22.8447 25.6094H24.916L24.917 25.6074L27.6357 22.2637C27.9506 21.8767 28.5227 21.8078 28.9141 22.1104C29.3054 22.4132 29.3675 22.9731 29.0527 23.3604L27.2236 25.6094H36.9639L35.1348 23.3604C34.8199 22.9731 34.8821 22.4132 35.2734 22.1104ZM26.7812 38.0156C26.9689 39.1561 27.8403 40.0996 29 40.0996H35C36.1598 40.0996 37.0155 39.109 37.2109 37.9697L38.9863 27.4102H24.9951L26.7812 38.0156ZM35 35.0996C35.4971 35.0996 35.9004 35.5029 35.9004 36C35.9002 36.4969 35.4969 36.9004 35 36.9004H29C28.5031 36.9004 28.0998 36.4969 28.0996 36C28.0996 35.5029 28.5029 35.0996 29 35.0996H35ZM35 31.0996C35.4971 31.0996 35.9004 31.5029 35.9004 32C35.9002 32.4969 35.4969 32.9004 35 32.9004H29C28.5031 32.9004 28.0998 32.4969 28.0996 32C28.0996 31.5029 28.5029 31.0996 29 31.0996H35Z" fill="black" fill-opacity="0.32"/>
<path d="M41.248 69.6152C41.702 69.6612 42.0566 70.0447 42.0566 70.5107C42.0564 70.9766 41.7018 71.3603 41.248 71.4062L41.1562 71.4111H40.9004L38.9004 82C38.5625 84.1562 37.1539 85.9004 35 85.9004H29C26.8461 85.9004 25.4688 84.2188 25.0996 82L23.0996 71.4111H22.9062C22.4094 71.4111 22.0061 71.0076 22.0059 70.5107C22.0059 70.0137 22.4092 69.6104 22.9062 69.6104H41.1562L41.248 69.6152ZM29 79.0996C28.5029 79.0996 28.0996 79.5029 28.0996 80C28.0996 80.4971 28.5029 80.9004 29 80.9004H35C35.4971 80.9004 35.9004 80.4971 35.9004 80C35.9004 79.5029 35.4971 79.0996 35 79.0996H29ZM29 75.0996C28.5029 75.0996 28.0996 75.5029 28.0996 76C28.0996 76.4971 28.5029 76.9004 29 76.9004H35C35.4971 76.9004 35.9004 76.4971 35.9004 76C35.9004 75.5029 35.4971 75.0996 35 75.0996H29Z" fill="black" fill-opacity="0.32"/>
<path d="M28.3438 66.8126L25.625 70.157" stroke="#ADADAD" stroke-width="1.8" stroke-linecap="round"/>
<path d="M35.8438 66.8126L38.5626 70.157" stroke="#ADADAD" stroke-width="1.8" stroke-linecap="round"/>
</svg>
