<svg width="24" height="24" viewBox="0 0 24 24" fill="none" xmlns="http://www.w3.org/2000/svg">
<path d="M21.248 5.61523C21.702 5.66124 22.0566 6.04469 22.0566 6.51074C22.0564 6.97659 21.7018 7.36029 21.248 7.40625L21.1562 7.41113H20.9004L18.9004 18C18.5625 20.1562 17.1539 21.9004 15 21.9004H9C6.84609 21.9004 5.46875 20.2188 5.09961 18L3.09961 7.41113H2.90625C2.40936 7.41113 2.00612 7.00757 2.00586 6.51074C2.00586 6.01369 2.40919 5.61035 2.90625 5.61035H21.1562L21.248 5.61523ZM9 15.0996C8.50294 15.0996 8.09961 15.5029 8.09961 16C8.09961 16.4971 8.50294 16.9004 9 16.9004H15C15.4971 16.9004 15.9004 16.4971 15.9004 16C15.9004 15.5029 15.4971 15.0996 15 15.0996H9ZM9 11.0996C8.50294 11.0996 8.09961 11.5029 8.09961 12C8.09961 12.4971 8.50294 12.9004 9 12.9004H15C15.4971 12.9004 15.9004 12.4971 15.9004 12C15.9004 11.5029 15.4971 11.0996 15 11.0996H9Z" fill="black" fill-opacity="0.32"/>
<path d="M8.34379 2.81264L5.625 6.15699" stroke="#ADADAD" stroke-width="1.8" stroke-linecap="round"/>
<path d="M15.8438 2.81264L18.5626 6.15699" stroke="#ADADAD" stroke-width="1.8" stroke-linecap="round"/>
</svg>
