<?xml version="1.0" encoding="utf-8"?>
<!-- Generator: Adobe Illustrator 26.0.3, SVG Export Plug-In . SVG Version: 6.00 Build 0)  -->
<svg version="1.1" id="Слой_1" xmlns="http://www.w3.org/2000/svg" xmlns:xlink="http://www.w3.org/1999/xlink" x="0px" y="0px"
	 viewBox="0 0 587.4 595.3" style="enable-background:new 0 0 587.4 595.3;" xml:space="preserve">
<style type="text/css">
	.st0{fill:#ECC484;}
	.st1{fill:#394B39;}
	.st2{fill:#C18957;}
	.st3{fill:#82A345;}
</style>
<g>
	<g>
		<path class="st0" d="M117.9,507.8C79.4,481.5,240,237.2,274.2,221.9c5.9-2.6,21.9-22,65.3,3.3c44.2,25.7,38.9,47.6,35.3,57.9
			C360.7,323.6,156.4,534,117.9,507.8z"/>
		<path class="st1" d="M126.2,515.5c-4.5,0-8.3-1.1-11.4-3.2c0,0,0,0,0,0c-6.4-4.4-9.2-12.7-8.1-24.6c3.9-43.4,56.7-129.6,72.8-155
			c31.8-50.2,74.3-107.8,92.4-115.9c0.4-0.2,1.4-0.9,2.2-1.4c8.3-5.6,27.7-18.6,68.1,5c50.1,29.1,40.8,55.7,37.7,64.5
			c-7.2,20.7-56,76-100.4,119.9c-28.3,28-98.7,94.6-140,108.2C134.7,514.7,130.2,515.5,126.2,515.5z M121,503.3
			c2.8,1.9,8.1,1.7,15.2-0.6c27.1-9,77.8-48.4,135.7-105.6c49.9-49.4,92-99.1,97.7-115.7c2.6-7.3,9.4-26.8-32.9-51.3
			c-34.5-20.1-49.3-10.1-56.4-5.3c-1.4,0.9-2.6,1.8-3.9,2.3c-11.4,5.1-47.4,48.3-87.6,111.8c-42.1,66.3-68.7,122.4-71.1,150.1
			C117.2,494,117.4,500.8,121,503.3L121,503.3z"/>
	</g>
	<path class="st2" d="M337.9,229.6c0,0,12.7,6.4,14,34.4c1,21.9-41.2,78.9-94.1,130.9C128.1,522.7,118.3,501.4,118.3,501.4
		s7.4,10.9,31.8-2.9c44-24.9,125.2-98,151.6-129.2c21.4-25.3,56.6-60.7,68.2-86.2c2.7-5.9,3.2-11.7,2.4-16.4
		C368.7,246,337.9,229.6,337.9,229.6z"/>
	<path class="st2" d="M269.2,257.5c0,0,3.6-0.5,9.3,3.4c5.7,3.9,5.7,5.5,5.7,5.5L269.2,257.5z"/>
	<path class="st2" d="M297.6,255.7c0,0,5-0.1,10.8,3.6s8,6.7,8,6.7L297.6,255.7z"/>
	<path class="st2" d="M263.3,271.2c0,0,5,0.1,10.7,4s7.7,7,7.7,7L263.3,271.2z"/>
	<path class="st2" d="M221.5,322.8c0,0,5,0.1,10.7,4s7.8,7,7.8,7L221.5,322.8z"/>
	<path class="st2" d="M189.7,363.2c0,0,3,0.4,5.9,2.4c3,2,3.8,3.4,3.8,3.4L189.7,363.2z"/>
	<path class="st2" d="M186.6,378.7c0,0,3,0.4,5.9,2.4s3.8,3.4,3.8,3.4L186.6,378.7z"/>
	<g>
		<g>
			<path class="st3" d="M322,214.8c-15-6-55.9-23.7-29.6-51.2c16.7-17.4,48.6-2.1,48.6-2.1s-31.2-45.3,4-60
				c40.7-17,44.7,28.1,44.7,28.1s6.4-69.2,55.4-40.5c52.5,30.7-6.6,60.4-6.6,60.4s41.7,2.1,41.3,34.3c-0.4,28.8-44.2,24.8-44.2,24.8
				s28.3,22.2,9,40.2c-22.8,21.3-43.6-15.9-43.6-15.9s5.3,17.7-1.9,23.5c-9.8,8-19.6,2.3-35.5-13.5C347.2,226.8,337,220.9,322,214.8
				z"/>
			<path class="st1" d="M390.1,265.5c-10.4,0-20.6-9-30.4-18.7c-15.8-15.6-25.5-21.1-39.8-26.9c-9.2-3.7-37-14.8-41.1-33.8
				c-1.9-8.8,1.3-17.6,9.6-26.3c11.7-12.1,28.8-11,40.9-8.1c-4.5-9.8-8.8-23.5-5.2-35.6c2.6-8.9,9-15.6,18.8-19.7
				c13.5-5.7,25.1-5.7,34.3-0.1c5.2,3.1,8.9,7.6,11.5,12.3c3.6-10.8,10-23.1,21.1-28.8c10.7-5.5,23.6-4,38.1,4.5
				c16.6,9.7,24.8,20.7,24.4,32.7c-0.4,12.5-10.4,22.8-19,29.4c15.4,4.4,32.3,15.3,32,37.4c-0.1,8.1-3,14.8-8.7,19.9
				c-7.7,7-19.2,9.4-28.1,10.2c4.1,5.2,8,12.2,8.3,19.7c0.3,7.2-2.5,13.6-8.5,19.1c-6.8,6.4-14.3,9-22.1,7.8
				c-7.1-1.1-13.3-5.3-18.2-10c-0.7,3.9-2.3,7.6-5.4,10.1C398.4,264.1,394.2,265.5,390.1,265.5z M314.3,160.8
				c-6.5,0-13.1,1.6-17.9,6.6c-5.7,5.9-7.9,11.3-6.8,16.3c1.3,6.1,8.4,15.5,34.5,26c0,0,0,0,0,0c15.4,6.2,26.3,12.5,43.4,29.3
				c18.5,18.4,23.5,17,28.2,13.2c2.7-2.2,1.9-11.7,0.1-17.7c-0.8-2.7,0.5-5.5,3.1-6.6c2.6-1.1,5.6-0.1,6.9,2.4
				c2.8,4.9,12.1,18,22.1,19.5c4.4,0.7,8.6-0.9,12.9-5c3.5-3.3,5.1-6.7,5-10.6c-0.4-8.9-10-18.3-13.6-21.2c-1.9-1.5-2.6-4.1-1.7-6.4
				c0.9-2.3,3.2-3.7,5.6-3.4c6.3,0.6,24.4,0.3,33.1-7.5c3.3-3,5-6.9,5.1-11.9c0.3-26.5-34.6-28.7-36.1-28.7
				c-2.5-0.1-4.6-1.9-5.1-4.4c-0.5-2.4,0.7-4.9,2.9-6c6.9-3.5,24.9-15.3,25.3-27.9c0.2-7.7-6.2-15.4-19-22.9
				c-11-6.5-20.3-7.9-27.5-4.2c-13.7,7-18.8,31.6-19.7,40.5c-0.3,2.8-2.6,5-5.5,5c0,0,0,0,0,0c-2.8,0-5.2-2.2-5.5-5
				c0-0.2-1.8-17.8-12.8-24.4c-6.1-3.6-14.2-3.3-24.3,0.9c-6.7,2.8-10.8,6.9-12.5,12.6c-3.9,13.4,6.5,32.8,10.9,39.2
				c1.4,2.1,1.3,4.8-0.4,6.7c-1.6,1.9-4.3,2.5-6.6,1.4C338.4,166.4,326.5,160.8,314.3,160.8z"/>
		</g>
		<g>
			<path class="st3" d="M374.4,220.5c0,0,18.5-20.4,32.7-28.7c21-12.4,47.4-8.3,47.4-8.3"/>
			<path class="st1" d="M374.4,226c-1.3,0-2.6-0.5-3.7-1.4c-2.2-2-2.4-5.5-0.4-7.8c0.8-0.9,19.2-21.1,34-29.8
				c22.4-13.2,49.9-9.2,51-9c3,0.5,5.1,3.3,4.6,6.3c-0.5,3-3.3,5.1-6.3,4.6c-0.2,0-24.8-3.6-43.8,7.6c-13.3,7.8-31.2,27.5-31.4,27.7
				C377.4,225.4,375.9,226,374.4,226z"/>
		</g>
		<g>
			<path class="st3" d="M345.1,204.9c0,0,26.4-21,20-60.6"/>
			<path class="st1" d="M345.1,210.4c-1.6,0-3.2-0.7-4.3-2.1c-1.9-2.4-1.5-5.8,0.9-7.7c1-0.8,23.8-19.7,18-55.4
				c-0.5-3,1.6-5.8,4.6-6.3c3-0.5,5.8,1.6,6.3,4.6c6.8,42.3-20.8,64.8-22,65.8C347.5,210,346.3,210.4,345.1,210.4z"/>
		</g>
		<g>
			<path class="st1" d="M381.7,184.9c-1.1,0-2.3-0.4-3.3-1.1c-2.4-1.8-2.9-5.3-1.1-7.7l46.4-61.9c1.8-2.4,5.3-2.9,7.7-1.1
				c2.4,1.8,2.9,5.3,1.1,7.7l-46.4,61.9C385,184.1,383.4,184.9,381.7,184.9z"/>
		</g>
	</g>
</g>
</svg>
