<?xml version="1.0" encoding="utf-8"?>
<!-- Generator: Adobe Illustrator 26.0.3, SVG Export Plug-In . SVG Version: 6.00 Build 0)  -->
<svg version="1.1" id="Слой_1" xmlns="http://www.w3.org/2000/svg" xmlns:xlink="http://www.w3.org/1999/xlink" x="0px" y="0px"
	 viewBox="0 0 587.4 595.3" style="enable-background:new 0 0 587.4 595.3;" xml:space="preserve">
<style type="text/css">
	.st0{fill:#ECC484;}
	.st1{fill:#394B39;}
	.st2{fill:#C18957;}
</style>
<g>
	<g>
		<path class="st0" d="M518.9,296.4l-53,6.3c1.9-0.2,3.9-0.4,6-0.7c22.1-2.9,24.5-4.1,24.5-4.1s33.1-21,18.3-65.1
			c-18.2-8.2-73.7,44.5-73.7,44.5l28.4-24.4c0,0,40-35.9-23-79.4c0,0-12.8,41.9-21.4,49.7c0,0,17.7-41.1,3.4-33.5
			c-17.4,9.3-34.3,12.4-35.8,42.1c-1.7,33.7-16.8,39.4-16.8,39.4c-44.6-17.7-91.6-11.8-113.3-7.3c-26.5,5.5-48.7,1.1-53.7-16.7
			c-3.7-13.1,5.2-63.6-15.7-95.6c-13.2-20.3-31.6-23.9-31.6-23.9s20.6-23.6-5-32.7c-9.7-3.4-17.9,8.4-17.9,8.4s-3.4-17.1-22.1-13
			c-11.7,2.6-7.7,16.4-7.7,16.4s-9.1-11.2-19.7-4.2c-13.3,8.8-3.4,21.8-3.4,21.8s-9.9-0.9-14.9,9.1c-5,9.9,10.2,22.1,10.2,22.1
			s-28.5,5.8-28.5,33.6c20.7-8.7,33.1-6.9,33.1-6.9s1.6,23.2,23.2,28.3c12.4,2.9,17.3,2.1,17.3,2.1s-3.1,17.5-14.3,46.7
			c-10.1,26.1-17.4,37.8-27.9,75.3c-20.6,73.1,38.9,175.2,275.8,132.5c0,0,39.2-9.9,61.7-27.5c34-26.5,29-62.8,29-62.8
			s46.7,18.5,49.1-25.1c-50.8-3.5-50.8-3.5-50.8-3.5s31.7,4.3,51.9-3.4C529.4,334,518.9,296.4,518.9,296.4z"/>
		<path class="st1" d="M257.3,482.3c-23.4,0-44.9-1.9-64.4-5.7c-39.7-7.8-70.3-23.3-90.9-45.9c-24.4-26.9-32.7-62.3-22.9-97.3
			c7.4-26.6,13.4-40.5,19.6-55.2c2.7-6.3,5.4-12.8,8.4-20.5c7.2-18.8,11-32.7,12.8-40c-3-0.3-7-0.9-12.2-2.1
			c-17.1-4-24.3-18.4-26.4-28.3c-4.8,0.2-14.1,1.3-26.8,6.6c-1.5,0.6-3.3,0.5-4.7-0.4c-1.4-0.9-2.2-2.5-2.2-4.2
			c0-19.8,13.1-30.8,24.2-35.8c-4.7-5.5-9.5-13.9-5.4-22.2c3.2-6.3,7.9-9.3,11.9-10.7c-0.9-2.7-1.4-5.9-0.8-9.4
			c0.6-3.5,2.6-8.6,8.9-12.7c6.3-4.2,12.4-3.7,17.3-1.6c0.4-1.5,0.9-3,1.8-4.5c2.1-3.5,5.5-5.9,10-6.9c7.2-1.6,13.4-0.7,18.5,2.6
			c2.8,1.8,4.8,4.1,6.3,6.4c4.7-3.8,11.1-6.6,18-4.2c8.6,3.1,13.8,8,15.6,14.6c2,7.5-1.2,15.1-4.3,20.2c7.2,3,18.7,9.7,27.8,23.8
			c15.5,23.8,15.5,56.6,15.4,78.3c0,8.3,0,15.5,0.9,18.7c5.7,20.3,38.1,15.2,47.9,13.2c18.9-3.9,67.3-11,113.8,6.7
			c3.3-2.5,11.1-10.9,12.3-34.1c1.4-28.2,16.4-35.5,30.9-42.5c2.5-1.2,5-2.4,7.5-3.8c5.4-2.9,8.8-1,10.2,0.3
			c0.2,0.2,0.4,0.4,0.6,0.7c1.8-5.1,3.4-10.1,4.7-14.3c0.5-1.5,1.6-2.7,3.1-3.3c1.5-0.5,3.2-0.3,4.5,0.6
			c23.8,16.4,36.4,34,37.6,52.1c0.3,5.5-0.4,10.4-1.7,14.8c18.6-11.2,26.8-10.2,31.6-8c1.3,0.6,2.2,1.6,2.7,3
			c8.2,24.6,2.4,42.5-4,53.2c-1.8,3.1-3.8,5.7-5.7,8l8.7-1c2.5-0.3,4.7,1.2,5.4,3.6c4,14.3,4.8,43.6-20,54c0.6,0.9,0.9,1.9,0.8,3
			c-0.7,13.5-5.5,23.2-14.1,28.7c-11.2,7.2-26,5.1-34.7,3c-0.3,12.7-4.5,39.1-31.2,59.9c-23.1,18-61.9,28-63.5,28.4
			c-0.1,0-0.2,0.1-0.3,0.1C323,478.9,288.5,482.3,257.3,482.3z M126.2,207.7c1.3,0,2.6,0.5,3.5,1.5c1.1,1.2,1.6,2.8,1.3,4.4
			c-0.1,0.7-3.3,18.3-14.6,47.6c-3.1,7.9-5.9,14.5-8.6,20.8c-6.1,14.4-11.9,28.1-19.2,54c-8.9,31.6-1.4,63.6,20.6,87.9
			c19.1,21.1,47.9,35.5,85.5,42.8c44.2,8.7,99.3,7.2,163.8-4.4c2.7-0.7,39-10.4,59.7-26.6c31.2-24.3,27.3-56.8,27.1-58.2
			c-0.2-1.8,0.5-3.5,1.9-4.6c1.4-1.1,3.3-1.4,4.9-0.7c0.2,0.1,20.5,7.9,32.7,0.1c4.8-3.1,7.8-8.4,9-15.9l-28.4-2
			c-9.7-0.2-17-1.1-17.6-1.2c-2.7-0.4-4.6-2.8-4.3-5.5c0.3-2.7,2.6-4.7,5.3-4.5l16.7,1.1c10.2,0.2,23.3-0.5,33.1-4.2
			c19.2-7.3,17.7-29.1,16.2-38.3l-41.4,4.9c-0.3,0-0.7,0.1-1,0.1c-1.9,0.3-3.7,0.5-5.5,0.7l-0.6,0.1c-2.8,0.3-5.2-1.7-5.5-4.4
			c-0.3-2.7,1.6-5.2,4.4-5.5l7-0.8c15.6-2.1,20.6-3.2,21.9-3.6c3.8-2.7,27.2-20.8,16.6-56.5c-7.6-0.7-23.9,9-41,22.3l-25.5,21.9
			c-2.1,1.8-5.2,1.6-7-0.4c-1.8-2-1.7-5.1,0.3-7c0.5-0.5,11.3-10.7,25-21.5l3.5-3c0.6-0.5,11.8-11.3,10.8-27.2
			c-0.9-13.5-10.2-27.1-27.8-40.4c-4.3,13.1-13.3,38.5-20.7,45.3c-1.7,1.6-4.3,1.7-6.3,0.4c-1.9-1.4-2.6-3.9-1.7-6
			c4.3-10,7.7-20.7,8.5-26.1c-2,1-4,2-6,3c-14,6.8-24.2,11.7-25.3,34c-1.8,35.9-18.2,43.1-20,43.8c-1.2,0.4-2.5,0.4-3.6,0
			c-44.7-17.8-92.1-10.8-110.4-7.1c-31.9,6.6-54.1-1-59.5-20.2c-1.3-4.5-1.3-11.6-1.3-21.4c0-20.5,0.1-51.5-13.8-72.8
			c-11.8-18.1-27.7-21.6-28.4-21.7c-1.7-0.4-3.2-1.6-3.7-3.3c-0.6-1.7-0.2-3.5,1-4.9c2.3-2.7,7.9-10.9,6.3-17
			c-0.9-3.3-4-5.8-9.2-7.7c-5.9-2.1-12.1,6.5-12.1,6.6c-1.2,1.6-3.2,2.4-5.1,2c-2-0.4-3.5-1.9-3.9-3.9c0,0-1.2-5.2-5.4-7.9
			c-2.7-1.8-6.4-2.2-10.8-1.2c-2.3,0.5-3.1,1.5-3.5,2.2c-1.5,2.5-0.8,6.7-0.5,7.9c0.6,2.3-0.4,4.7-2.5,5.8c-2.1,1.1-4.7,0.6-6.2-1.3
			c-0.6-0.8-6.5-7.5-13.1-3.2c-2.7,1.8-4.2,3.7-4.6,6c-0.6,3.5,1.5,7.4,2.4,8.6c1.2,1.6,1.3,3.7,0.4,5.4c-1,1.7-2.8,2.7-4.8,2.5
			c-0.6,0-6.7-0.2-10,6.4c-2.4,4.7,4.9,12.8,8.9,16c1.5,1.2,2.2,3.2,1.7,5.1c-0.5,1.9-2,3.3-3.9,3.7c-0.9,0.2-19.2,4.2-23.6,21.1
			c17.1-5.7,27.4-4.3,27.9-4.3c2.3,0.3,4.1,2.3,4.3,4.6c0.1,0.8,1.7,19.6,19.4,23.8c10.9,2.5,15.4,2,15.4,2
			C125.7,207.7,125.9,207.7,126.2,207.7z M494.2,293.4L494.2,293.4L494.2,293.4z M431.6,193.7L431.6,193.7L431.6,193.7z"/>
	</g>
	<g>
		<path class="st0" d="M82.6,155.1c5.9-13.1,12.2-22.6,33.9-28.5c21.3-5.7,46.5,1.5,46.5,1.5"/>
		<path class="st1" d="M82.6,160.1c-0.7,0-1.4-0.1-2.1-0.4c-2.5-1.1-3.6-4.1-2.5-6.6c5.9-13.2,12.8-24.7,37.1-31.3
			c22.4-6,48.1,1.2,49.2,1.5c2.7,0.8,4.2,3.5,3.4,6.2c-0.8,2.7-3.5,4.2-6.2,3.4c-0.2-0.1-24.2-6.7-43.8-1.5
			c-20.2,5.5-25.2,13.8-30.6,25.7C86.3,159,84.5,160.1,82.6,160.1z"/>
	</g>
	<g>
		<circle class="st0" cx="108.9" cy="158.1" r="3"/>
		<path class="st1" d="M108.9,166.1c-4.4,0-8-3.6-8-8s3.6-8,8-8s8,3.6,8,8S113.3,166.1,108.9,166.1z M108.9,156.1c-1.1,0-2,0.9-2,2
			s0.9,2,2,2s2-0.9,2-2S110,156.1,108.9,156.1z"/>
	</g>
	<g>
		<path class="st0" d="M194.4,323.9c0,0-15.4,23.6,0,61.9c10.7,26.5,32.8,44,70.1,51.6s65.5-6.9,65.5-6.9s23.8,6.8,48-13.7
			c29.7-25.1,19-53.3,19-53.3s-39,18.8-83.8-3c-26.5-13-36.6-29.7-36.6-29.7"/>
		<path class="st1" d="M286.5,444.6c-7.1,0-14.8-0.7-23-2.3c-37.9-7.7-62-25.6-73.7-54.6c-16.2-40.3-0.2-65.5,0.4-66.5
			c1.5-2.3,4.6-3,6.9-1.5c2.3,1.5,3,4.6,1.5,6.9c-0.6,0.9-13.7,22.2,0.4,57.3c10.4,25.7,32.1,41.6,66.5,48.6c35,7.1,62-6.3,62.2-6.5
			c1.1-0.6,2.4-0.7,3.7-0.4c0.8,0.2,21.7,5.7,43.4-12.7c19.5-16.5,19.9-34.2,18.7-42.7c-12.8,4.5-45.6,12.6-82.5-5.3
			c-27.5-13.5-38.2-30.9-38.7-31.6c-1.4-2.4-0.7-5.4,1.7-6.9c2.4-1.4,5.4-0.7,6.9,1.7c0.1,0.1,9.8,15.7,34.5,27.8
			c41.9,20.4,79.1,3.2,79.4,3c1.3-0.6,2.7-0.6,4-0.1c1.3,0.5,2.3,1.6,2.8,2.9c0.5,1.3,11.6,31.8-20.4,58.9
			c-22.2,18.8-44.1,16.4-50.6,15.1C325.4,438.1,308.9,444.6,286.5,444.6z"/>
	</g>
	<g>
		<path class="st0" d="M286.7,394c8.3,18.3,43.3,36.6,43.3,36.6"/>
		<path class="st1" d="M330,435.6c-0.8,0-1.6-0.2-2.3-0.6c-1.5-0.8-36.6-19.3-45.5-39c-1.1-2.5,0-5.5,2.5-6.6c2.5-1.1,5.5,0,6.6,2.5
			c6.2,13.7,31.8,29.4,41.1,34.2c2.4,1.3,3.4,4.3,2.1,6.7C333.5,434.6,331.8,435.6,330,435.6z"/>
	</g>
	<path class="st2" d="M494.7,356.3c0,0-15.9-0.7-33-1.9c-14-1-25.5-3.6-37.3-1c-19.2,4.3-21.3,16.2-21.3,16.2s4.2,20.5-11,38.5
		c-12.2,14.5-22.2,23.9-44.3,27.6c-11.3,1.9-17.9-0.2-17.9-0.2s-34.3,17.9-83.2,1.9c-17.5,4.8-27.8,6.7-56.2,4.6
		c-30.9-2.4-63.2-18.1-81.7-39.6c-14.3-16.7-24.2-38.6-24.2-38.6s-4.3,78.6,99.8,100.7c49.3,10.5,86.9,8.3,115.2,5.7
		c24.4-2.2,46.7-3.6,66.2-9.5c39.7-12,61.8-27.2,71.6-47.3c10.5-21.6,7.4-28.5,8.6-36.4c0.4-2.9,3.3-4.9,6.2-4.2
		c7.4,1.8,19.5,5.6,29.8,1C494.9,368.1,494.7,356.3,494.7,356.3z"/>
	<path class="st2" d="M80.4,148.4c0,0-8.6-7.9-4.3-15.1c4.9-8.3,13.1-7.1,13.1-7.1s-9.8-12.7,2.3-20.2c10.1-6.3,17.4,4.2,17.4,4.2
		s-2.3-15.7,13.4-15.7c13.6,0,16.1,13.8,16.1,13.8s9.2-14.8,21.3-6.5c11,7.5-0.3,20.7-0.3,20.7s-14.2-5-39.5-1.1
		C89.2,126.2,80.4,148.4,80.4,148.4z"/>
	<path class="st2" d="M91.2,184.4c0,0,17.7,17.9,40.6,11.8c22.9-6.1,25.6-25.8,25.6-25.8s3.8,18.3-4.6,28.6c-8.4,10.3-21,11-21,11
		s-14.1,2.5-27.9-6.5C90.1,194.6,91.2,184.4,91.2,184.4z"/>
</g>
</svg>
