<?xml version="1.0" encoding="utf-8"?>
<!-- Generator: Adobe Illustrator 26.0.3, SVG Export Plug-In . SVG Version: 6.00 Build 0)  -->
<svg version="1.1" id="Слой_1" xmlns="http://www.w3.org/2000/svg" xmlns:xlink="http://www.w3.org/1999/xlink" x="0px" y="0px"
	 viewBox="0 0 587.4 595.3" style="enable-background:new 0 0 587.4 595.3;" xml:space="preserve">
<style type="text/css">
	.st0{fill:#CCAE9D;}
	.st1{fill:#394B39;}
	.st2{fill:#FEEADC;}
	.st3{fill:#A48A7B;}
</style>
<g>
	<g>
		<path class="st0" d="M232.9,109.8c19.6-4,74.4-5,129.3,1.9c4.5,0.6,38,10.6,71.9-16.6c28.8-23,41.4-40.3,41.4-40.3l4.5,3
			c0,0,5.6,40.3-19.2,70.4c-16.5,20-62.2,35-62.2,35l2.3,10.9c0,0,26.4-15.4,61.8-16.6c35.4-1.1,79.4,16.6,79.4,16.6
			s-30.1,56.8-66.2,64.7s-65.1-1.5-65.1-1.5s-5.6,73-7.5,79.1c-1.9,6,16.2,65.4,11.7,102s-25.6,119.8-124.4,119.8
			c-84.1,0-123.6-69.7-126.7-120.1c-3.1-50.4,10.5-88.8,10.5-88.8l-8.3-88.8c0,0-39.1,17.3-76.4-4.2s-54.7-60.7-54.7-60.7
			s43.7-21.8,84.3-16.2c40.6,5.6,59.5,18.5,59.5,18.5l4.6-11.7c0,0-23.4,3.1-62.3-33.1S90.4,56.8,90.4,56.8s5.6-4.2,10.2-1.9
			c4.5,2.3,32.7,48.5,71.9,58.7C196.7,119.8,213.4,113.7,232.9,109.8z"/>
		<path class="st1" d="M290.7,543.4c-49.7,0-80.6-23.4-97.8-43c-19.7-22.5-32.5-53.2-34.3-82.2c-2.8-46.7,8.1-82.8,10.4-89.8
			l-7.5-80.7c-13.5,4.2-44.3,10.4-74.3-6.9c-38.3-22.1-56.3-61.5-57-63.2c-1.2-2.7-0.1-5.8,2.5-7.1c1.8-0.9,45.7-22.5,87.5-16.7
			c9.9,1.4,18.5,3.2,26,5.1c-8.4-5.1-17.9-12.1-28.5-22C77,99.1,84.7,57.5,85.1,55.7c0.3-1.3,1-2.5,2.1-3.3c0.9-0.6,8.5-6,15.8-2.4
			c2,1,3.6,2.9,8.4,8.9c11,13.6,33.9,42,62.4,49.4c18.8,4.9,32.4,1.8,48.2-1.8c3.2-0.7,6.4-1.5,9.8-2.1l0,0
			c21.5-4.4,77.8-4.9,131.1,1.8c0.6,0.1,1.3,0.2,2.2,0.4c24.3,4.9,46.4-0.5,65.6-15.9c27.7-22.2,40.3-39.1,40.4-39.3
			c1.7-2.3,4.9-2.9,7.4-1.3l4.5,3c1.3,0.9,2.2,2.2,2.4,3.8c0.2,1.7,5.7,43-20.4,74.6c-8.8,10.6-24.9,19.8-38.8,26.3
			c10.2-3,22.6-5.5,36.3-5.9c36.1-1.1,79.8,16.3,81.7,17c1.4,0.6,2.5,1.7,3.1,3.2c0.5,1.4,0.4,3.1-0.3,4.4
			c-1.3,2.4-31.8,59.1-69.8,67.5c-27.2,6-50.5,2.5-61.4,0.1c-1.7,21.5-5.4,66.4-7.1,73.4c-0.1,2.3,1.7,11.2,3.3,19.1
			c4.6,22.8,11.6,57.2,8.4,82.3C415.9,456.3,393.9,543.4,290.7,543.4z M166.2,234.8c1,0,1.9,0.3,2.8,0.7c1.5,0.9,2.5,2.4,2.7,4.2
			l8.3,88.8c0.1,0.8,0,1.6-0.3,2.3c-0.1,0.4-13.1,38.1-10.2,86.7c2.7,44.4,38,115,121.3,115c94.5,0,114.7-80.4,119-115
			c2.9-23.3-3.8-56.7-8.3-78.8c-3.2-15.7-4.1-20.9-3.1-24.1c1.3-4.6,5.1-50.2,7.3-77.9c0.1-1.7,1-3.2,2.4-4.1
			c1.4-0.9,3.1-1.2,4.7-0.7c0.3,0.1,28.2,8.8,62.3,1.3c26.9-5.9,51.1-42.6,59.5-56.6c-13-4.6-45-14.8-71.4-14
			c-33.5,1.1-58.9,15.7-59.2,15.9c-1.5,0.9-3.4,1-4.9,0.3c-1.6-0.7-2.8-2.1-3.1-3.9l-2.3-10.9c-0.6-2.7,1-5.4,3.6-6.3
			c0.4-0.1,44.4-14.8,59.7-33.3c17.8-21.5,18.8-49.2,18.4-60.7c-6.1,7.1-18.3,20-37.6,35.4c-21.8,17.5-46.9,23.6-74.5,18
			c-0.7-0.1-1.2-0.2-1.5-0.3c-55.1-6.9-109.5-5.6-127.6-1.9c-3.2,0.6-6.4,1.4-9.5,2.1c-15.7,3.6-31.9,7.2-53.3,1.7
			c-32-8.3-56.4-38.5-68.2-53.1c-2-2.4-4.2-5.2-5.1-6.1c-0.6-0.1-1.5,0.1-2.5,0.5c-0.9,8.7-1.7,39.7,29.5,68.7
			c35.9,33.5,57.7,31.7,57.9,31.7c1.9-0.2,3.8,0.5,5,2.1c1.2,1.5,1.4,3.6,0.7,5.4l-4.6,11.7c-0.6,1.5-1.9,2.7-3.5,3.2
			c-1.6,0.5-3.3,0.2-4.6-0.7c-0.2-0.1-18.6-12.2-57.2-17.6c-30.7-4.3-63.8,8.1-76.1,13.4c5.9,10.8,22.4,37.4,50,53.4
			c34.5,19.8,71.1,4.1,71.5,3.9C164.7,234.9,165.5,234.8,166.2,234.8z M408.8,317.3C408.8,317.3,408.8,317.3,408.8,317.3
			S408.8,317.3,408.8,317.3z M232.9,109.8L232.9,109.8L232.9,109.8z"/>
	</g>
	<g>
		<path class="st1" d="M206.4,386.8c-2.8,0-5.2-2.2-5.4-5.1c0-0.4-2.9-39.5-29.1-52c-2.7-1.3-3.9-4.5-2.6-7.2
			c1.3-2.7,4.5-3.9,7.2-2.6c32.1,15.2,35.2,59.2,35.3,61.1c0.2,3-2.1,5.6-5.1,5.8C206.7,386.8,206.5,386.8,206.4,386.8z"/>
	</g>
	<g>
		<path class="st1" d="M368.5,386.7c-0.2,0-0.4,0-0.6,0c-3-0.3-5.1-3-4.8-6c0.2-2,5.5-48.7,35.1-64.2c2.7-1.4,5.9-0.4,7.3,2.3
			c1.4,2.7,0.4,5.9-2.3,7.3c-24.5,12.8-29.3,55.3-29.3,55.7C373.6,384.7,371.2,386.7,368.5,386.7z"/>
	</g>
	<path class="st2" d="M213.5,309.6c9.4-11.2,23.2-19.1,31.5-24.8c8.3-5.7,15.3-28.7,9.6-44.5S226.3,200,201,201.4
		c-29.8,1.7-29.8,22.6-29.8,32.9c0,10.3,5.7,62.9,5.7,62.9S196.8,329.4,213.5,309.6z"/>
	<g>
		<path class="st1" d="M229.1,268.9c-3,0-5.4-2.4-5.4-5.4c0-0.2-0.3-25.9-18.6-30.9c-9.1-2.5-18.5,7.7-18.6,7.8
			c-2,2.2-5.5,2.4-7.7,0.4c-2.2-2-2.4-5.4-0.4-7.7c0.6-0.6,14-15.3,29.6-11c26.3,7.2,26.6,40,26.6,41.4
			C234.5,266.5,232.1,268.9,229.1,268.9z"/>
	</g>
	<g>
		<path class="st1" d="M203.8,258c-8.4,0-15.2-6.8-15.2-15.2s6.8-15.2,15.2-15.2s15.2,6.8,15.2,15.2S212.2,258,203.8,258z
			 M203.8,238.4c-2.4,0-4.3,2-4.3,4.3s2,4.3,4.3,4.3s4.3-2,4.3-4.3S206.2,238.4,203.8,238.4z"/>
	</g>
	<path class="st3" d="M340.7,329.7c-12.3-6.4-26.4-3.5-29.7-22.6c-3.4-19.2,5.6-40,3.4-74.1c-2.5-37.5-12.5-53.6-12.5-53.6
		s40.3-8.9,46.1-22.4c5.8-13.5,19.8-38.7,19.8-38.7l19.4,1.3c0,0,3.8,13.3,6.8,23.9c3.2,10.7-5.1,40.9,12.3,34.3
		c-1.7,0.6-4.8,14.2-4.8,14.2s0.8,2.8,2.9,23c2.2,21.8,0.4,37.4-1.5,58.1c-2,20.8-0.8,27.2-4.2,42.8c-0.4,1.9-10.7,6.6-16.7,14.5
		c-7.4,9.8-13.2,26.2-13.2,26.2S356.2,337.8,340.7,329.7z"/>
	<g>
		<path class="st1" d="M348,268.9c-3,0-5.4-2.4-5.4-5.4c0-1.4,0.3-34.2,26.6-41.4c15.6-4.3,29,10.4,29.6,11c2,2.2,1.8,5.7-0.4,7.7
			c-2.2,2-5.7,1.8-7.7-0.4c-0.1-0.1-9.5-10.3-18.6-7.8c-18.4,5.1-18.6,30.7-18.6,30.9C353.5,266.5,351,268.9,348,268.9z"/>
	</g>
	<g>
		<path class="st1" d="M373.3,258c-8.4,0-15.2-6.8-15.2-15.2s6.8-15.2,15.2-15.2c8.4,0,15.2,6.8,15.2,15.2S381.7,258,373.3,258z
			 M373.3,238.4c-2.4,0-4.3,2-4.3,4.3s2,4.3,4.3,4.3c2.4,0,4.3-2,4.3-4.3S375.7,238.4,373.3,238.4z"/>
	</g>
	<path class="st3" d="M207,406.4c0,0,16.1,30.3,12.5,56.4c-4.8,34.2-12.2,37.1-12.2,37.1s12.2,15.7,41,26
		c31.6,11.3,73.9,13.1,80.3-27.9c9.3-59.6,42.9-84.1,42.9-84.1l-139.2,2.9L207,406.4z"/>
	<g>
		<path class="st1" d="M341.3,424c-4.2,0-9-0.1-14.7-0.2c-9-0.2-20.2-0.5-34.4-0.5c-6,0-11.5,0-16.5,0c-43.7,0.1-55.5,0.1-67.2-10.1
			c-14.6-12.7-6.9-36.8-0.1-58.1c7.8-24.3,15.3-49.4,15.4-49.6c0.9-2.9,3.9-4.5,6.8-3.6c2.9,0.9,4.5,3.9,3.6,6.8
			c-0.1,0.3-7.6,25.4-15.4,49.8c-7,21.9-11.6,39.2-3.1,46.6c8.4,7.3,16.8,7.5,60,7.4c5,0,10.5,0,16.5,0c14.4,0,25.6,0.3,34.7,0.5
			c26.8,0.6,30.3,0.5,34.7-5.7c5.8-8.1-0.1-33.3-2.3-42.7c-0.4-1.9-0.8-3.4-1-4.6c-1.2-5.7-12.3-33.4-19.5-50.6
			c-1.2-2.8,0.2-6,2.9-7.1c2.8-1.2,6,0.1,7.1,2.9c1.9,4.5,18.3,44,20.1,52.6c0.2,1,0.6,2.5,1,4.3c4.8,20.5,8.2,40.9,0.6,51.5
			C364.2,422.3,357.6,424,341.3,424z"/>
	</g>
	<g>
		<path class="st1" d="M288.9,446.7c-50.5,0-51.7-25.2-51.7-26.3l10.9-0.3c0,0,0-0.1,0-0.2c0,0.2,1.8,15.8,40.8,15.8
			c30.6,0,39.5-10.1,40.6-14.4c-0.6-2.6,0.9-5.3,3.5-6.2c2-0.7,4.4-0.2,5.9,1.4c2.7,2.9,1.4,7.4,0.3,9.8
			C336,434,325.1,446.7,288.9,446.7z"/>
	</g>
	<path class="st2" d="M387.3,119.5c-17.9,24.4,7.5,40,7.5,40s38.4-13.3,56.7-29.7c27.4-24.5,23.9-66.5,23.9-66.5S450,92,430.1,103.8
		C404.4,119.2,387.3,119.5,387.3,119.5z"/>
	<path class="st2" d="M187.1,161.8c0,0-31.2-2.3-62.2-32.5c-38.2-37.3-30-70-28-71.5c2.1-1.6,24.2,32.2,48.8,49.4
		c24.2,16.9,52.9,14.8,52.9,14.8C211.8,149,187.1,161.8,187.1,161.8z"/>
	<path class="st2" d="M401.4,191.9c0.2,3.1,3.6,4.7,6.1,3.2c7.6-4.8,21.7-13,36.5-16.7c24.1-6,48.7-4.1,65.5-0.8
		c16.8,3.3,23.3-0.5,23.3-0.5s-40.2-16-76.1-13.8c-27.4,1.7-43,9.5-48.8,13c-1.7,1-2.9,2.7-3.5,4.5L401.4,191.9z"/>
	<path class="st2" d="M174.2,192.9c-0.2,3.1-3.6,4.7-6.1,3.2c-7.6-4.8-21.7-13-36.5-16.7c-24.1-6-48.7-4.1-65.5-0.8
		c-16.8,3.3-23.3-0.5-23.3-0.5s30.7-16.3,66.6-14c27.4,1.7,52.4,9.7,58.2,13.2c1.7,1,2.9,2.7,3.5,4.5L174.2,192.9z"/>
	<path class="st2" d="M223.4,117.5c0,0,18.3,12,30.1,36.3c7.7,16,17.8,35.9,37.6,38.6s41.4-15.5,54.7-15.8
		c13.3-0.3,29.2-9.3,28.9-21c-0.3-11.8-6.2-37.2-6.2-37.2s-31.6-5.7-69.6-6.9C244.8,109.8,223.4,117.5,223.4,117.5z"/>
	<path class="st3" d="M238.4,402.2c0,0-1.4-6.5,6.8-8.7c7.7-2,18.7-7.4,20.9-16.2c1.7-6.8-20.1-18.5-18.6-24.6
		c1.5-6.1,24.5,1.2,40.1,0.8c15.6-0.5,40.4-4.8,42.3-0.4s-21.9,15.3-21.9,20.9s2.8,14.3,13.3,18c10.7,3.7,17.4,7.7,18.1,8.7
		c2.2,2.9,1.7,4.9,0.5,6.3c-1.1,1.4-2.9,2-4.5,1.9c-5.9-0.4-25.9-1.5-47.7,0.1C234,412.8,238.4,402.2,238.4,402.2z"/>
	<path class="st3" d="M417.3,220.8c1.1-0.4,33.4,5.2,49.8-1.6c12.9-5.3,20.8-9.5,24.8-11.8c2.6-1.5,4.4-3.8,5.4-6.5
		c0.2-0.6,0.5-1.3,0.7-2.1c2.5-8.5-8.4-9.5-21.8-4.2c-15.8,6.3-19.4,13.9-34.6,20.1C426.4,221,417.3,220.8,417.3,220.8z"/>
	<path class="st3" d="M167.2,220.8c-1.1-0.4-33.4,5.2-49.8-1.6c-12.9-5.3-20.8-9.5-24.8-11.8c-2.6-1.5-4.4-3.8-5.4-6.5
		c-0.2-0.6-0.5-1.3-0.7-2.1c-2.5-8.5,8.4-9.5,21.8-4.2c15.8,6.3,19.4,13.9,34.6,20.1C158.1,220.9,167.2,220.8,167.2,220.8z"/>
	<g>
		<path class="st1" d="M416.5,221c-1.1,0-1.8,0-2-0.1c-3-0.2-5.2-2.9-5-5.9c0.2-3,2.8-5.2,5.8-5c0.3,0,18,1,36.6-13.3
			c29.1-22.6,45-13.1,46.7-12l-6.1,9c0,0,0,0,0.1,0.1c-0.1-0.1-11.3-6.2-34.1,11.5C440,219.7,422.3,221,416.5,221z"/>
	</g>
	<g>
		<path class="st1" d="M165.9,224.8c-9,0-26.4-2.1-38.9-16.5c-17-19.7-35.3-15.9-36.1-15.8c-2.9,0.6-5.8-1.2-6.5-4.1
			c-0.7-2.9,1.1-5.8,4-6.5c1-0.2,25.3-5.6,46.8,19.2c13.3,15.4,34.8,12.5,35.1,12.5c3-0.4,5.7,1.7,6.1,4.6c0.4,3-1.6,5.7-4.6,6.1
			C171.4,224.5,169.2,224.8,165.9,224.8z"/>
	</g>
	<g>
		<path class="st1" d="M319.5,387.3c-0.1,0-0.2,0-0.3,0c-2.5-0.1-6.1-1.1-9.2-5.5c-2-2.8-2.5-6.1-1.5-9.2c2.1-6.4,10.3-10,12.8-10.9
			c4.6-2.5,8.9-6.7,8.2-8.1c-1.1-2.4-12.4-1.4-20.6-0.7c-4.7,0.4-10.1,0.9-15.7,1.1c-8.8,0.3-16.6-0.6-23.4-1.3
			c-9.2-1-16.4-1.9-21.2,0.7c0,0-0.1,0-0.1,0c1,1.9,4.7,5.3,8.5,7.7c1.9,0.9,8,4.5,9.6,10.4c0.8,3.1,0.2,6.3-1.8,9.1
			c-2.8,4-7.4,6.1-12,5.4c-4.9-0.7-8.8-4.3-10.5-9.5c-0.9-2.9,0.6-5.9,3.5-6.8c2.9-0.9,5.9,0.6,6.8,3.5c0.4,1.2,1,2,1.7,2.1
			c0.7,0.1,1.2-0.5,1.5-0.9c0.1-0.1,0.1-0.2,0.1-0.2c-0.3-0.8-2.2-2.5-4.1-3.4c-0.2-0.1-0.3-0.2-0.5-0.3c-3.4-2.1-14.3-9.5-14-17.9
			c0.1-2.1,0.9-6.1,6-8.8c7.8-4.2,17-3.1,27.6-1.9c6.5,0.7,13.9,1.6,21.8,1.3c5.3-0.2,10.3-0.6,15.2-1.1c15.1-1.3,27-2.4,31.4,6.8
			c4.4,9.3-4.4,18-13.3,22.6c-0.2,0.1-0.4,0.2-0.7,0.3c-2.6,0.9-5.5,2.8-6.3,3.9c0.3,0.4,0.5,0.6,0.6,0.8c0.7-0.2,1.9-1.2,2.7-2.1
			c1.9-2.3,5.3-2.7,7.6-0.9c2.3,1.8,2.8,5.2,0.9,7.6C330.1,382.1,325.6,387.3,319.5,387.3z M318.9,375.4L318.9,375.4L318.9,375.4z"
			/>
	</g>
</g>
</svg>
