<?xml version="1.0" encoding="utf-8"?>
<!-- Generator: Adobe Illustrator 26.0.3, SVG Export Plug-In . SVG Version: 6.00 Build 0)  -->
<svg version="1.1" id="Слой_1" xmlns="http://www.w3.org/2000/svg" xmlns:xlink="http://www.w3.org/1999/xlink" x="0px" y="0px"
	 viewBox="0 0 587.4 595.3" style="enable-background:new 0 0 587.4 595.3;" xml:space="preserve">
<style type="text/css">
	.st0{fill:#ECC484;}
	.st1{fill:#394B39;}
	.st2{fill:#FEEADC;}
	.st3{fill:#C18957;}
</style>
<g>
	<g>
		<path class="st0" d="M371.1,249.6c6.1,68.1-18.1,123.6-91.1,123.6c-67.8,0-99.5-55.5-91.1-123.6C197.2,181.9,242.4,126,280,126
			C318.8,126,364.9,181.6,371.1,249.6z"/>
		<path class="st1" d="M280,378.2c-29.6,0-54.3-10.3-71.5-29.8c-20.8-23.6-29.6-58.9-24.6-99.4c4-32.9,16.7-64.7,35.5-89.6
			C238,135,260.1,121,280,121c20.6,0,43.1,13.9,61.7,38.3c19.1,25,31.3,56.9,34.3,89.9l0,0c4,44.1-4.8,79.2-25.2,101.6
			C334.2,369,310.4,378.2,280,378.2z M280,131c-16.5,0-36.2,12.9-52.6,34.4c-17.6,23.1-29.8,54-33.6,84.8
			c-4.6,37.7,3.2,70.2,22.1,91.6c15.3,17.3,37.4,26.4,64,26.4c27.5,0,48.8-8.2,63.5-24.2c18.5-20.2,26.3-52.7,22.6-93.9
			C360,183,314.8,131,280,131z"/>
	</g>
	
		<ellipse transform="matrix(0.9602 -0.2792 0.2792 0.9602 -36.974 91.2391)" class="st2" cx="301.8" cy="175.4" rx="11.9" ry="19.9"/>
	<path class="st3" d="M232.6,356.7c0,0,51.8,5.1,86.1-21.5c56.3-43.5,46.9-94.2,46.9-94.2s6.3,38.2-3.3,70
		c-5.1,16.8-15.5,34.8-30.5,44.5C279.7,389,232.6,356.7,232.6,356.7z"/>
	<g>
		<path class="st0" d="M462.4,334.1c6.1,68.1-18.1,123.6-91.1,123.6c-67.8,0-99.5-55.5-91.1-123.6c8.3-67.7,53.5-123.6,91.1-123.6
			C410.2,210.6,456.3,266.2,462.4,334.1z"/>
		<path class="st1" d="M371.3,462.7c-29.6,0-54.3-10.3-71.5-29.8c-20.8-23.6-29.6-58.9-24.6-99.4c4-32.9,16.7-64.7,35.5-89.6
			c18.5-24.4,40.6-38.4,60.5-38.4c20.7,0.1,43.2,14,61.8,38.3c19.1,25,31.3,56.9,34.3,89.8l0,0c4,44.1-4.8,79.2-25.2,101.6
			C425.5,453.5,401.7,462.7,371.3,462.7z M371.3,215.5c-16.5,0-36.2,12.9-52.5,34.4c-17.6,23.1-29.8,54-33.6,84.8
			c-4.6,37.7,3.2,70.2,22.1,91.6c15.3,17.3,37.4,26.4,64,26.4c27.5,0,48.8-8.2,63.5-24.2c18.5-20.2,26.3-52.7,22.6-93.9l0,0
			C451.4,267.6,406.2,215.6,371.3,215.5z"/>
	</g>
	
		<ellipse transform="matrix(0.9602 -0.2792 0.2792 0.9602 -56.9552 120.1233)" class="st2" cx="393.2" cy="260" rx="11.9" ry="19.9"/>
	<path class="st3" d="M324,441.2c0,0,51.8,5.1,86.1-21.5c56.3-43.5,46.9-94.2,46.9-94.2s6.3,38.2-3.3,70
		c-5.1,16.8-15.5,34.8-30.5,44.5C371.1,473.6,324,441.2,324,441.2z"/>
	<g>
		<path class="st0" d="M299.3,334.1c6.1,68.1-18.1,123.6-91.1,123.6c-67.8,0-99.5-55.5-91.1-123.6c8.3-67.7,53.5-123.6,91.1-123.6
			C247,210.6,293.1,266.2,299.3,334.1z"/>
		<path class="st1" d="M208.2,462.7c-29.6,0-54.3-10.3-71.5-29.8c-20.8-23.6-29.6-58.9-24.6-99.4c4-32.9,16.7-64.7,35.5-89.6
			c18.5-24.4,40.6-38.4,60.5-38.4c20.6,0.1,43.1,14,61.7,38.3c19.1,25,31.3,56.9,34.3,89.8l0,0c4,44.1-4.8,79.2-25.2,101.6
			C262.4,453.5,238.6,462.7,208.2,462.7z M208.2,215.5c-16.5,0-36.2,12.9-52.5,34.4c-17.6,23.1-29.8,54-33.6,84.8
			c-4.6,37.7,3.2,70.2,22.1,91.6c15.3,17.3,37.4,26.4,64,26.4c27.5,0,48.8-8.2,63.5-24.2c18.5-20.2,26.3-52.7,22.6-93.9
			C288.2,267.6,243,215.6,208.2,215.5z"/>
	</g>
	<ellipse transform="matrix(0.9602 -0.2792 0.2792 0.9602 -63.4487 74.5587)" class="st2" cx="230" cy="260" rx="11.9" ry="19.9"/>
	<path class="st3" d="M160.8,441.2c0,0,51.8,5.1,86.1-21.5c56.3-43.5,46.9-94.2,46.9-94.2s6.3,38.2-3.3,70
		c-5.1,16.8-15.5,34.8-30.5,44.5C207.9,473.6,160.8,441.2,160.8,441.2z"/>
</g>
</svg>
