<svg width="24" height="24" viewBox="0 0 24 24" fill="none" xmlns="http://www.w3.org/2000/svg">
<path d="M12 2C6.47715 2 2 6.47715 2 12C2 17.5228 6.47715 22 12 22C17.5228 22 22 17.5228 22 12C22 6.47715 17.5228 2 12 2ZM12 3.7998C16.5287 3.7998 20.2002 7.47126 20.2002 12C20.2002 16.5287 16.5287 20.2002 12 20.2002C7.47126 20.2002 3.7998 16.5287 3.7998 12C3.7998 7.47126 7.47126 3.7998 12 3.7998ZM9.5625 12.2637C9.23295 11.9341 8.71092 11.9137 8.35742 12.2021L8.28906 12.2637L6.86426 13.752L6.80273 13.8203C6.51448 14.1738 6.5349 14.6949 6.86426 15.0244L8.35742 16.6387L8.42578 16.7002C8.77918 16.9883 9.30138 16.9679 9.63086 16.6387C9.96031 16.3092 9.98054 15.7871 9.69238 15.4336L9.63086 15.3652L9.57129 15.2979H16.499L16.5908 15.293C17.0449 15.2471 17.3994 14.8636 17.3994 14.3975C17.3994 13.9313 17.0449 13.5478 16.5908 13.502L16.499 13.4971H9.59863L9.62402 13.4688C9.91245 13.1153 9.89197 12.5932 9.5625 12.2637Z" fill="black" fill-opacity="0.32"/>
<path d="M14.3082 10.5308C14.0198 10.8843 14.0402 11.4064 14.3697 11.7359C14.6992 12.0654 15.2213 12.0858 15.5748 11.7974L15.6431 11.7359L17.1361 10.1221C17.4656 9.79263 17.4859 9.27154 17.1976 8.91804L17.1361 8.84968L15.7115 7.36119L15.6432 7.29967C15.2897 7.01121 14.7676 7.03163 14.4381 7.36119C14.1085 7.69074 14.0881 8.21277 14.3766 8.56627L14.4381 8.63463L15.2269 9.48542L14.3697 10.4625L14.3082 10.5308Z" fill="#ADADAD"/>
<path d="M7.50146 8.59473L7.40967 8.59961C6.9556 8.64547 6.60107 9.02896 6.60107 9.49512C6.60107 9.96127 6.9556 10.3448 7.40967 10.3906L7.50146 10.3955H16.23C16.727 10.3955 17.1304 9.99217 17.1304 9.49512C17.1304 8.99806 16.727 8.59473 16.23 8.59473H7.50146Z" fill="#ADADAD"/>
</svg>
