<svg width="64" height="108" viewBox="0 0 64 108" fill="none" xmlns="http://www.w3.org/2000/svg">
<rect x="0.5" y="0.5" width="63" height="107" rx="4.5" fill="white"/>
<rect x="0.5" y="0.5" width="63" height="107" rx="4.5" stroke="#9747FF" stroke-dasharray="10 5"/>
<path d="M25.0122 32.6807C26.3902 32.8204 27.4652 33.9845 27.4653 35.3994V39.2676L27.4517 39.5469C27.3115 40.9246 26.1476 42 24.7329 42L24.4536 41.9863C23.1677 41.8557 22.145 40.8327 22.0142 39.5469L22.0005 39.2676V35.3994C22.0006 33.8904 23.2239 32.6671 24.7329 32.667L25.0122 32.6807ZM39.5464 22.0137C40.9244 22.1534 41.9994 23.3175 41.9995 24.7324V39.2666L41.9858 39.5459C41.8461 40.924 40.6821 42 39.2671 42L38.9878 41.9854C37.7017 41.8546 36.6788 40.8321 36.5483 39.5459L36.5347 39.2666V24.7324C36.5348 23.2234 37.7581 22.0002 39.2671 22L39.5464 22.0137ZM32.2798 31.0098C33.6576 31.1146 34.7325 31.9879 34.7329 33.0488V39.9502L34.7192 40.1592C34.5794 41.1926 33.4153 41.9989 32.0005 41.999L31.7212 41.9893C30.4351 41.8913 29.4123 41.1238 29.2817 40.1592L29.2681 39.9502V33.0488C29.2685 31.9173 30.4916 31.0001 32.0005 31L32.2798 31.0098ZM32.0005 32.3496C31.4858 32.3497 31.0683 32.6628 31.0679 33.0488V39.9502C31.0682 40.3363 31.4857 40.6493 32.0005 40.6494C32.5153 40.6493 32.9328 40.3362 32.9331 39.9502V33.0488C32.9327 32.6629 32.5152 32.3497 32.0005 32.3496ZM24.7329 34.4668C24.218 34.4669 23.8004 34.8845 23.8003 35.3994V39.2676C23.8006 39.7823 24.2181 40.2001 24.7329 40.2002C25.2478 40.2002 25.6652 39.7824 25.6655 39.2676V35.3994C25.6654 34.8844 25.2479 34.4668 24.7329 34.4668ZM39.2671 23.7998C38.7522 23.8 38.3346 24.2176 38.3345 24.7324V39.2666C38.3345 39.7816 38.7522 40.199 39.2671 40.1992C39.7822 40.1992 40.1997 39.7817 40.1997 39.2666V24.7324C40.1996 24.2174 39.7821 23.7998 39.2671 23.7998Z" fill="black" fill-opacity="0.32"/>
<path d="M22.875 31L28.375 29.875L34.25 24M34.25 24H31.125M34.25 24V27.375" stroke="#ADADAD" stroke-width="1.8" stroke-linecap="round"/>
<path d="M24.7324 76.667C26.2416 76.667 27.4648 77.8902 27.4648 79.3994V83.2666C27.4648 84.7758 26.2416 86 24.7324 86C23.2233 85.9999 22 84.7757 22 83.2666V79.3994C22 77.8903 23.2233 76.6671 24.7324 76.667ZM39.2666 66C40.7757 66 41.9999 67.2233 42 68.7324V83.2666C42 84.7758 40.7758 86 39.2666 86C37.7576 85.9998 36.5342 84.7757 36.5342 83.2666V68.7324C36.5343 67.2234 37.7576 66.0002 39.2666 66ZM32 75C33.5091 75 34.7323 76.2233 34.7324 77.7324V83.2666C34.7324 84.7758 33.5092 85.999 32 85.999C30.4908 85.999 29.2676 84.7758 29.2676 83.2666V77.7324C29.2677 76.2233 30.4909 75 32 75Z" fill="black" fill-opacity="0.32"/>
<path d="M22.875 75L28.375 73.875L34.25 68M34.25 68H31.125M34.25 68V71.375" stroke="#ADADAD" stroke-width="1.8" stroke-linecap="round"/>
</svg>
