<svg width="24" height="24" viewBox="0 0 24 24" fill="none" xmlns="http://www.w3.org/2000/svg">
<path d="M4.73242 12.667C6.24162 12.667 7.46484 13.8902 7.46484 15.3994V19.2666C7.46484 20.7758 6.24162 22 4.73242 22C3.22333 21.9999 2 20.7757 2 19.2666V15.3994C2 13.8903 3.22333 12.6671 4.73242 12.667ZM19.2666 2C20.7757 2 21.9999 3.22333 22 4.73242V19.2666C22 20.7758 20.7758 22 19.2666 22C17.7576 21.9998 16.5342 20.7757 16.5342 19.2666V4.73242C16.5343 3.22344 17.7576 2.00019 19.2666 2ZM12 11C13.5091 11 14.7323 12.2233 14.7324 13.7324V19.2666C14.7324 20.7758 13.5092 21.999 12 21.999C10.4908 21.999 9.26758 20.7758 9.26758 19.2666V13.7324C9.2677 12.2233 10.4909 11 12 11Z" fill="black" fill-opacity="0.32"/>
<path d="M2.875 11L8.375 9.875L14.25 4M14.25 4H11.125M14.25 4V7.375" stroke="#ADADAD" stroke-width="1.8" stroke-linecap="round"/>
</svg>
