<svg width="24" height="24" viewBox="0 0 24 24" fill="none" xmlns="http://www.w3.org/2000/svg">
<path d="M7.10303 18.709L8.38462 17.4274C8.69111 17.0188 9.20192 16.8144 9.8149 16.8144H13.9014C15.0252 16.8144 16.0468 16.4058 16.762 15.5885L21.4614 11.0933C22.2816 10.3174 22.3178 9.02358 21.5423 8.20297C20.7668 7.38237 19.473 7.34541 18.652 8.1204L14.3611 12.1047" fill="#ADADAD"/>
<path d="M7.10303 18.709L8.38462 17.4274C8.69111 17.0188 9.20192 16.8144 9.8149 16.8144H13.9014C15.0252 16.8144 16.0468 16.4058 16.762 15.5885L21.4614 11.0933C22.2816 10.3174 22.3178 9.02358 21.5423 8.20297C20.7668 7.38237 19.473 7.34541 18.652 8.1204L14.3611 12.1047" stroke="#ADADAD" stroke-width="1.8" stroke-linecap="round" stroke-linejoin="round"/>
<path d="M1.96143 13.6738L7.64453 20.1028" stroke="#ADADAD" stroke-width="1.8" stroke-linecap="round" stroke-linejoin="round"/>
<path d="M6.25385 18.4456L14.1249 12.7271C15.2533 12.7271 14.923 11.8123 14.923 10.6839C14.923 9.55542 14.0082 8.64062 12.8798 8.64062H9.81488C9.20191 8.64062 8.69109 8.84495 8.38461 9.2536L2.98071 14.6575" fill="#ADADAD" stroke="#ADADAD" stroke-width="1.8" stroke-linecap="round" stroke-linejoin="round"/>
<circle cx="14.9681" cy="8.1875" r="2.9125" fill="#ADADAD" stroke="white" stroke-width="1.8"/>
<path d="M10.6106 11.1094L14.9856 11.1094" stroke="white" stroke-width="1.8" stroke-linecap="round"/>
</svg>
