<?xml version="1.0" encoding="utf-8"?>
<!-- Generator: Adobe Illustrator 26.0.3, SVG Export Plug-In . SVG Version: 6.00 Build 0)  -->
<svg version="1.1" id="Слой_1" xmlns="http://www.w3.org/2000/svg" xmlns:xlink="http://www.w3.org/1999/xlink" x="0px" y="0px"
	 viewBox="0 0 587.4 595.3" style="enable-background:new 0 0 587.4 595.3;" xml:space="preserve">
<style type="text/css">
	.st0{fill:#CCAE9D;}
	.st1{fill:#394B39;}
	.st2{fill:#A48A7B;}
	.st3{fill:#FEEADC;}
</style>
<g>
	<g>
		<path class="st0" d="M374.2,486.4H203.8c-13.7,0-24.8-11.1-24.8-24.8V239h220v222.7C399,475.3,387.9,486.4,374.2,486.4z"/>
		<path class="st1" d="M374.2,491.9H203.8c-16.7,0-30.3-13.6-30.3-30.3V239c0-3,2.5-5.5,5.5-5.5h220c3,0,5.5,2.5,5.5,5.5v222.7
			C404.5,478.4,390.9,491.9,374.2,491.9z M184.5,244.5v217.1c0,10.6,8.7,19.3,19.3,19.3h170.4c10.6,0,19.3-8.6,19.3-19.2V244.5
			H184.5z"/>
	</g>
	<g>
		<path class="st0" d="M399,238.4H179c0,0,5.5-37.2,36.2-60.1h146.7C394.4,202.2,399,238.4,399,238.4z"/>
		<path class="st1" d="M399,243.9H179c-1.6,0-3.1-0.7-4.2-1.9c-1-1.2-1.5-2.8-1.3-4.4c0.2-1.6,6.2-39.7,38.4-63.7
			c1-0.7,2.1-1.1,3.3-1.1h146.7c1.2,0,2.3,0.4,3.3,1.1c34,25,39.1,62.3,39.3,63.8c0.2,1.6-0.3,3.1-1.3,4.3S400.6,243.9,399,243.9z
			 M185.9,232.9h206.4c-2.8-10.6-10.9-32.8-32.1-49.1h-143C196.9,199.6,188.8,222.1,185.9,232.9z"/>
	</g>
	<g>
		<rect x="215.2" y="154.2" class="st2" width="146.8" height="24.1"/>
		<path class="st1" d="M367.5,183.8H209.7v-35.1h157.8V183.8z M220.7,172.8h135.8v-13.1H220.7V172.8z"/>
	</g>
	<g>
		<path class="st0" d="M372.3,154.2H204.8c-3.9,0-7.1-3.2-7.1-7.1v-31.8c0-3.9,3.2-7.1,7.1-7.1h167.4c3.9,0,7.1,3.2,7.1,7.1v31.8
			C379.4,151,376.2,154.2,372.3,154.2z"/>
		<path class="st1" d="M372.3,159.7H204.8c-6.9,0-12.6-5.7-12.6-12.6v-31.8c0-6.9,5.7-12.6,12.6-12.6h167.4
			c6.9,0,12.6,5.7,12.6,12.6V147c0.1,3.3-1.2,6.5-3.5,8.9C378.9,158.3,375.7,159.7,372.3,159.7z M204.8,113.7
			c-0.9,0-1.6,0.7-1.6,1.6v31.8c0,0.9,0.7,1.6,1.6,1.6h167.5c0.6,0,0.9-0.3,1.1-0.5c0.2-0.2,0.4-0.5,0.4-1l0-0.1v-31.8
			c0-0.9-0.7-1.6-1.6-1.6H204.8z"/>
	</g>
	<g>
		<path class="st2" d="M199.4,192.4l-30.5-18.3c-5.5-3.3-12.8-1.3-16.3,4.6l-1.1,1.9c-3.5,5.8-1.9,13.3,3.6,16.6l30.5,18.3
			C185.6,215.4,190.3,201.9,199.4,192.4z"/>
		<path class="st1" d="M185.6,221c-1,0-2-0.3-2.8-0.8l-30.5-18.3c-3.8-2.3-6.5-6-7.6-10.4c-1.1-4.6-0.4-9.6,2.1-13.8l1-1.8
			c2.5-4.3,6.5-7.2,11.1-8.4c4.4-1.1,8.9-0.5,12.8,1.8l30.5,18.3c1.4,0.9,2.4,2.3,2.6,4c0.2,1.7-0.3,3.3-1.5,4.5
			c-7.9,8.3-12.2,20.1-12.5,20.9c-0.4,1.3-1.3,2.5-2.6,3.2C187.5,220.8,186.5,221,185.6,221z M163.1,178c-0.5,0-1,0.1-1.5,0.2
			c-1.8,0.5-3.3,1.6-4.3,3.3l-1.1,1.8c-1,1.7-1.4,3.7-0.9,5.5c0.4,1.6,1.3,2.8,2.6,3.6l25,15c1.9-4,4.6-9,8.1-13.7l-25-15
			C165.2,178.3,164.2,178,163.1,178z"/>
	</g>
	<g>
		<path class="st2" d="M377.7,192.8l30.5-18.3c5.5-3.3,12.8-1.3,16.3,4.6l1.1,1.9c3.5,5.8,1.9,13.3-3.6,16.6l-30,18
			C392,215.6,386.8,202.4,377.7,192.8z"/>
		<path class="st1" d="M389.3,223.7l-2.4-6c0-0.1-5-12.4-13.2-21l-4.7-5l36.4-21.8c3.8-2.3,8.4-3,12.8-1.8c4.6,1.2,8.6,4.1,11.1,8.4
			l1.1,1.9c2.5,4.1,3.2,9.1,2.1,13.7c-1.1,4.4-3.8,8.1-7.6,10.4L389.3,223.7z M386.1,194.2c3.7,4.8,6.5,9.8,8.4,13.5l24.7-14.8
			c1.3-0.8,2.2-2,2.6-3.6c0.4-1.8,0.1-3.8-0.9-5.4l-1.2-2c-1-1.6-2.5-2.8-4.3-3.2c-1.6-0.4-3.1-0.2-4.4,0.6L386.1,194.2z"/>
	</g>
	<rect x="306.2" y="113.8" class="st3" width="21.7" height="34.8"/>
	<rect x="222.5" y="113.8" class="st2" width="21.7" height="34.8"/>
	<rect x="204.3" y="244.5" class="st2" width="21.7" height="235.7"/>
	<polygon class="st2" points="226,232.9 204.3,232.9 222.5,183.9 244.3,183.9 	"/>
	<polygon class="st3" points="353.5,232.9 317,232.9 306.2,183.8 332.7,183.8 	"/>
	<rect x="334.9" y="113.8" class="st3" width="8.3" height="34.8"/>
	<rect x="319.4" y="244.5" class="st3" width="36.1" height="235.7"/>
	<g>
		<path class="st3" d="M300.7,469.7h-50c-3,0-5.5-2.5-5.5-5.5s2.5-5.5,5.5-5.5h50c3,0,5.5,2.5,5.5,5.5S303.7,469.7,300.7,469.7z"/>
	</g>
</g>
</svg>
