<svg width="24" height="24" viewBox="0 0 24 24" fill="none" xmlns="http://www.w3.org/2000/svg">
<path d="M15.2344 18.6689C15.2344 19.0957 15.1506 19.5188 14.9873 19.9131C14.824 20.3073 14.584 20.6651 14.2822 20.9668C13.9805 21.2685 13.6227 21.5085 13.2285 21.6719L13.0791 21.7295C12.7282 21.855 12.3578 21.9189 11.9844 21.9189L11.8242 21.915C11.5053 21.8993 11.1903 21.837 10.8896 21.7295L10.7402 21.6719C10.3952 21.5289 10.0779 21.3274 9.80176 21.0771L9.68652 20.9668C9.3848 20.6651 9.14477 20.3073 8.98145 19.9131C8.81812 19.5188 8.73437 19.0957 8.73438 18.6689H15.2344ZM11.9844 2.08105C15.6759 2.08112 18.69 4.98046 18.875 8.62598L18.8848 8.98145V15.2812H20.0996C20.5967 15.2813 21 15.6846 21 16.1816C21 16.6787 20.5967 17.082 20.0996 17.082H3.90039L3.80859 17.0771C3.35465 17.0312 3 16.6477 3 16.1816C3 15.7156 3.35465 15.3321 3.80859 15.2861L3.90039 15.2812H5.08398V8.98145C5.08399 5.17068 8.17361 2.08106 11.9844 2.08105Z" fill="black" fill-opacity="0.32"/>
</svg>
