<svg width="64" height="108" viewBox="0 0 64 108" fill="none" xmlns="http://www.w3.org/2000/svg">
<rect x="0.5" y="0.5" width="63" height="107" rx="4.5" fill="white"/>
<rect x="0.5" y="0.5" width="63" height="107" rx="4.5" stroke="#9747FF" stroke-dasharray="10 5"/>
<path d="M33.1445 39.2793C33.2938 38.8052 33.7993 38.5422 34.2734 38.6914C34.7475 38.8407 35.0106 39.3463 34.8613 39.8203C34.6944 40.3502 34.3839 40.8214 33.9668 41.1836L33.7822 41.332C33.3353 41.662 32.8064 41.8611 32.2559 41.9082L32.0186 41.9189C31.463 41.9223 30.9189 41.7715 30.4463 41.4854L30.248 41.3545C29.7325 40.9836 29.3475 40.4579 29.1494 39.8545L30.0049 39.5742L30.8604 39.293C30.9395 39.5342 31.0928 39.7442 31.2988 39.8926L31.4609 39.9912C31.6296 40.076 31.8173 40.1203 32.0078 40.1191L32.1963 40.1025C32.3823 40.0717 32.5597 39.9978 32.7129 39.8848L32.8555 39.7598C32.9877 39.6252 33.0873 39.461 33.1445 39.2793Z" fill="black" fill-opacity="0.32"/>
<path d="M29.7236 38.7188C30.1958 38.5637 30.7052 38.8208 30.8604 39.293L29.1494 39.8545C28.9947 39.3825 29.2517 38.8739 29.7236 38.7188Z" fill="black" fill-opacity="0.32"/>
<path fill-rule="evenodd" clip-rule="evenodd" d="M32 22.0811C35.8108 22.0811 38.9004 25.1707 38.9004 28.9814V35.2812H40C40.4971 35.2812 40.9004 35.6846 40.9004 36.1816C40.9004 36.6787 40.4971 37.082 40 37.082H24L23.9082 37.0771C23.4543 37.0312 23.0996 36.6477 23.0996 36.1816C23.0996 35.7156 23.4543 35.3321 23.9082 35.2861L24 35.2812H25.0996V28.9814C25.0996 25.1707 28.1892 22.0811 32 22.0811ZM32 23.8818C29.1833 23.8818 26.9004 26.1648 26.9004 28.9814V35.2812H37.0996V28.9814C37.0996 26.1648 34.8166 23.8818 32 23.8818Z" fill="black" fill-opacity="0.32"/>
<path d="M35.2344 80.6689C35.2344 81.0957 35.1506 81.5188 34.9873 81.9131C34.824 82.3073 34.584 82.6651 34.2822 82.9668C33.9805 83.2685 33.6227 83.5085 33.2285 83.6719L33.0791 83.7295C32.7282 83.855 32.3578 83.9189 31.9844 83.9189L31.8242 83.915C31.5053 83.8993 31.1903 83.837 30.8896 83.7295L30.7402 83.6719C30.3952 83.5289 30.0779 83.3274 29.8018 83.0771L29.6865 82.9668C29.3848 82.6651 29.1448 82.3073 28.9814 81.9131C28.8181 81.5188 28.7344 81.0957 28.7344 80.6689H35.2344ZM31.9844 64.0811C35.6759 64.0811 38.69 66.9805 38.875 70.626L38.8848 70.9814V77.2812H40.0996C40.5967 77.2813 41 77.6846 41 78.1816C41 78.6787 40.5967 79.082 40.0996 79.082H23.9004L23.8086 79.0771C23.3546 79.0312 23 78.6477 23 78.1816C23 77.7156 23.3546 77.3321 23.8086 77.2861L23.9004 77.2812H25.084V70.9814C25.084 67.1707 28.1736 64.0811 31.9844 64.0811Z" fill="black" fill-opacity="0.32"/>
</svg>
