<?xml version="1.0" encoding="utf-8"?>
<!-- Generator: Adobe Illustrator 26.0.3, SVG Export Plug-In . SVG Version: 6.00 Build 0)  -->
<svg version="1.1" id="Слой_1" xmlns="http://www.w3.org/2000/svg" xmlns:xlink="http://www.w3.org/1999/xlink" x="0px" y="0px"
	 viewBox="0 0 587.4 595.3" style="enable-background:new 0 0 587.4 595.3;" xml:space="preserve">
<style type="text/css">
	.st0{fill:#82A345;}
	.st1{fill:#5E883C;}
	.st2{fill:#394B39;}
	.st3{fill:#EAC579;}
	.st4{fill:#D4A566;}
</style>
<g>
	<g>
		<path class="st0" d="M432.6,216.1c-3.7,11.2-1.1,20.6,2.2,30c0.5,1.5,1.2,2.3,2.9,1.2c17.2-10.5,27.1-26.3,17.9-48.1
			c-1.6-3.7-3.4-3.8-6.4-2C441.2,202,435.3,208.5,432.6,216.1z"/>
		<path class="st0" d="M473.3,247.2c-18.7-0.1-35.7,12.9-40.9,31.2C449,279,467.7,264.8,473.3,247.2z"/>
		<path class="st0" d="M420.8,275.5c6.7-17.4,1.1-37.8-13.9-49.9c-2.1,0.9-2,2.7-2.3,4.6C402.2,248.1,407.9,263.1,420.8,275.5z"/>
		<path class="st0" d="M389.5,371.5c5.6-16.5-0.8-35.4-15.9-47.5C366,340.7,375.7,363.2,389.5,371.5z"/>
		<path class="st0" d="M442.2,345.7c-15.5,2-29.2,7.3-37.9,21.4c-1.6,2.6-2.7,5.3-3.6,8.2C419.8,375.7,435.8,364.3,442.2,345.7z"/>
		<path class="st0" d="M405.3,323.1c4.6-12.3,2-23.9-4.2-34.9c-2.9-5.2-6.4-10.1-11.3-13.8c-3.1,10-2.7,20.1,1,29.7
			C393.7,311.7,397.8,318.8,405.3,323.1z"/>
		<path class="st0" d="M458.2,296.9c-21,1.3-35.7,11.9-41.6,29.9c12.3,0.2,22.3-4.7,30.8-13.4C452.1,308.4,454.7,302.4,458.2,296.9z
			"/>
		<path class="st1" d="M473.3,247.2c-5.6,17.6-24.3,31.8-40.9,31.2c-1.1,3.4-4.1,7.9-1.9,10.1c2.1,2.2,6.8-0.3,10.3-1.2
			c18.8-5,30.6-17.2,36.3-35.6C478.4,247.6,477.9,245.8,473.3,247.2z"/>
		<path class="st1" d="M420.8,275.5c-12.9-12.4-18.6-27.4-16.2-45.3c0.2-1.8,0.2-3.7,2.3-4.6c-4.3-3.8-4.3-3.8-6.1,1.5
			c-7.2,20.5-2.7,38.6,11.6,54.5c3.7,4.2,4.3,4.1,6.6-0.9C419.8,279,420.2,277.2,420.8,275.5z"/>
		<path class="st1" d="M405.3,323.1c-7.5-4.3-11.6-11.4-14.5-18.9c-3.7-9.6-4.2-19.7-1-29.7c-2.3-2.9-3.5-1.9-4.7,1
			c-6.5,16.5-4.7,32.1,4.9,46.9c0.8,1.2,1.7,2.5,2.7,3.5c2.7,2.8,4.9,8.4,8.2,7.6C404,332.8,404.1,326.8,405.3,323.1z"/>
		<path class="st1" d="M458.2,296.9c-3.5,5.6-6.1,11.6-10.8,16.4c-8.5,8.8-18.5,13.6-30.8,13.4c-1.2,1.1-1,2.8-1.4,4.2
			c-2.2,8.4-2.2,8.4,6.7,6.3c20.1-4.8,33.2-16.6,38.5-36.8C460.7,298.7,462.1,296.1,458.2,296.9z"/>
		<path class="st1" d="M442.2,345.7c-6.4,18.6-22.4,30.1-41.5,29.6c-1.5,3.1-3.6,7.1-1.9,9.6c1.6,2.3,6,0.4,9-0.2
			c20.3-4.1,31.8-17.5,37.6-36.6C446.6,344.1,444.6,344.7,442.2,345.7z"/>
		<path class="st1" d="M389.5,371.5c-13.7-8.3-23.4-30.8-15.9-47.5c-1.8-2.9-3.1-3.6-4.7,0.3c-7.6,18.8-2.4,41,12.9,54.5
			c4,3.5,4.2,3.5,5.9-1.6C388.4,375.4,388.9,373.4,389.5,371.5z"/>
		<path class="st2" d="M361.5,310.8c-10.2,21.6-11.2,42.9,1,64.1c4.1,7.1,10,12.4,16.6,17c2.1,1.5,2.9,2.6,2,5.2
			c-5.4,16.4-9.4,27.8-13.1,39.9c-4.9,15.8-5.1,37.5,6,52.3h12.8c-11.6-17.7-11.8-32.6-6.9-49.5c3.3-11.4,7.2-22.3,12.2-37.9
			c0.9-2.7,1.6-4.6,5.3-4.3c26.3,2.2,52.9-18.4,59.7-46.4c0.6-2.6,1.2-5.2,1.8-7.8c0.9-4.1,1.8-8.2-4.6-9.2
			c4.9-5.3,9-10.2,12.3-15.9c4.6-8.1,6.8-16.9,8.2-26c0.6-4-2-5.6-5.5-7.1c12.7-10.2,17.6-23.9,21.9-38.3
			c7.1-23.6,10.4-32.7,18-56.2c1-3.1,1.4-5.8-1.5-8.1c-3.5-2.9-8.1-1.3-9.8,3.5c-3.2,9.6-11.4,35-14.6,45.2
			c-0.9,2.9-2.1,3.9-5.2,3.6c-3.6-0.3-7.2,0.1-11.3,0.3c2.4-6.6,4.5-12.9,4.6-19.6c0.1-9.2-1.9-17.9-6.8-25.7
			c-1.5-2.4-1.6-4.4-0.8-7c4.5-13.6-2,6,2.4-7.6c0.4-1.1,0.8-2.2,1.1-3.3c0.9-3.6-0.1-6.5-3.7-7.6c-3.8-1.2-6.4,0.5-7.7,4.3
			c-4.6,14.1,1.5-5.1-3,9c-1.1,3.6-2.8,5.7-6.5,7.3c-12,5.2-20.1,14.4-24.7,26.7c-0.9,2.5-1.7,5.1-2.6,8c-3.8-2.7-6.9-6.1-10.9-8.4
			c-2.4-1.3-0.8-3.3-0.3-4.8c6-18.5,9.3-28.5,15.3-47c0.5-1.4-0.6,1.9-0.2,0.5c0.9-3.7-0.6-6.3-4-7.5c-3.6-1.2-6.1,0.3-7.3,4
			c-2.6,7.9-16,48.8-22.5,67.8c-3.8,11-4.3,22.1-2.2,33.8c-5.2-1.2-7.7,1-9.8,5.5c-6.1,12.7-8.9,25.7-7.1,39.7
			c0.1,0.9,0.1,1.9,0.2,3.4C364.9,303.8,363.3,306.9,361.5,310.8z M420.8,275.5c-0.6,1.7-1.1,3.5-1.8,5.2c-2.3,5-2.8,5.1-6.6,0.9
			c-14.4-15.9-18.8-34-11.6-54.5c1.8-5.2,1.8-5.3,6.1-1.5C421.9,237.8,427.5,258.1,420.8,275.5z M477.1,251.6
			c-5.7,18.4-17.5,30.7-36.3,35.6c-3.5,0.9-8.2,3.4-10.3,1.2c-2.1-2.2,0.9-6.7,1.9-10.1c5.1-18.3,22.2-31.3,40.9-31.2
			C477.9,245.8,478.4,247.6,477.1,251.6z M416.5,326.8c5.9-18,20.7-28.6,41.6-29.9c4-0.8,2.5,1.8,2.1,3.5
			c-5.2,20.2-18.4,32.1-38.5,36.8c-8.8,2.1-8.8,2.2-6.7-6.3C415.5,329.5,415.3,327.9,416.5,326.8z M400.7,375.2
			c0.8-2.9,2-5.6,3.6-8.2c8.7-14.1,22.4-19.4,37.9-21.4c2.4-1,4.4-1.5,3.2,2.4c-5.8,19.1-17.3,32.4-37.6,36.6c-3,0.6-7.4,2.5-9,0.2
			C397.1,382.4,399.2,378.3,400.7,375.2z M434.8,246.1c-3.3-9.4-5.9-18.8-2.2-30c2.7-7.6,8.6-14.1,16.6-18.9c3-1.8,4.9-1.7,6.4,2
			c9.2,21.7-0.8,37.5-17.9,48.1C436,248.3,435.4,247.6,434.8,246.1z M401,333.5c-3.4,0.8-5.5-4.8-8.2-7.6c-1-1.1-1.9-2.3-2.7-3.5
			c-9.6-14.8-11.4-30.4-4.9-46.9c1.2-2.9,2.4-3.9,4.7-1c4.9,3.7,8.4,8.6,11.3,13.8c6.2,11,8.8,22.5,4.2,34.9
			C404.1,326.8,404,332.8,401,333.5z M368.9,324.4c1.6-3.9,2.9-3.2,4.7-0.3c15.2,12,21.5,30.9,15.9,47.5c-0.6,1.9-1.1,3.8-1.7,5.7
			c-1.8,5.1-1.9,5.2-5.9,1.6C366.5,365.4,361.3,343.2,368.9,324.4z"/>
	</g>
	<g>
		<path class="st0" d="M144.5,214.5c3.7,11.2,1.1,20.6-2.2,30c-0.5,1.5-1.2,2.3-2.9,1.2c-17.2-10.5-27.1-26.3-17.9-48.1
			c1.6-3.7,3.4-3.8,6.4-2C136,200.3,141.8,206.9,144.5,214.5z"/>
		<path class="st0" d="M103.9,245.6c18.7-0.1,35.7,12.9,40.9,31.2C128.2,277.4,109.5,263.2,103.9,245.6z"/>
		<path class="st0" d="M156.3,273.9c-6.7-17.4-1.1-37.8,13.9-49.9c2.1,0.9,2,2.7,2.3,4.6C174.9,246.5,169.2,261.5,156.3,273.9z"/>
		<path class="st0" d="M187.7,369.9c-5.6-16.5,0.8-35.4,15.9-47.5C211.1,339.1,201.4,361.6,187.7,369.9z"/>
		<path class="st0" d="M135,344.1c15.5,2,29.2,7.3,37.9,21.4c1.6,2.6,2.7,5.3,3.6,8.2C157.4,374.1,141.3,362.7,135,344.1z"/>
		<path class="st0" d="M171.9,321.4c-4.6-12.3-2-23.9,4.2-34.9c2.9-5.2,6.4-10.1,11.3-13.8c3.1,10,2.7,20.1-1,29.7
			C183.5,310.1,179.4,317.2,171.9,321.4z"/>
		<path class="st0" d="M119,295.3c21,1.3,35.7,11.9,41.6,29.9c-12.3,0.2-22.3-4.7-30.8-13.4C125.1,306.8,122.5,300.8,119,295.3z"/>
		<path class="st1" d="M103.9,245.6c5.6,17.6,24.3,31.8,40.9,31.2c1.1,3.4,4.1,7.9,1.9,10.1c-2.1,2.2-6.8-0.3-10.3-1.2
			c-18.8-5-30.6-17.2-36.3-35.6C98.8,246,99.3,244.2,103.9,245.6z"/>
		<path class="st1" d="M156.3,273.9c12.9-12.4,18.6-27.4,16.2-45.3c-0.2-1.8-0.2-3.7-2.3-4.6c4.3-3.8,4.3-3.8,6.1,1.5
			c7.2,20.5,2.7,38.6-11.6,54.5c-3.7,4.2-4.3,4.1-6.6-0.9C157.4,277.4,156.9,275.6,156.3,273.9z"/>
		<path class="st1" d="M171.9,321.4c7.5-4.3,11.6-11.4,14.5-18.9c3.7-9.6,4.2-19.7,1-29.7c2.3-2.9,3.5-1.9,4.7,1
			c6.5,16.5,4.7,32.1-4.9,46.9c-0.8,1.2-1.7,2.5-2.7,3.5c-2.7,2.8-4.9,8.4-8.2,7.6C173.2,331.1,173.1,325.2,171.9,321.4z"/>
		<path class="st1" d="M119,295.3c3.5,5.6,6.1,11.6,10.8,16.4c8.5,8.8,18.5,13.6,30.8,13.4c1.2,1.1,1,2.8,1.4,4.2
			c2.2,8.4,2.2,8.4-6.7,6.3c-20.1-4.8-33.2-16.6-38.5-36.8C116.5,297.1,115,294.5,119,295.3z"/>
		<path class="st1" d="M135,344.1c6.4,18.6,22.4,30.1,41.5,29.6c1.5,3.1,3.6,7.1,1.9,9.6c-1.6,2.3-6,0.4-9-0.2
			c-20.3-4.1-31.8-17.5-37.6-36.6C130.5,342.5,132.5,343.1,135,344.1z"/>
		<path class="st1" d="M187.7,369.9c13.7-8.3,23.4-30.8,15.9-47.5c1.8-2.9,3.1-3.6,4.7,0.3c7.6,18.8,2.4,41-12.9,54.5
			c-4,3.5-4.2,3.5-5.9-1.6C188.7,373.7,188.2,371.8,187.7,369.9z"/>
		<path class="st2" d="M207,304.9c0.1-1.4,0.1-2.4,0.2-3.4c1.8-14-1-27.1-7.1-39.7c-2.1-4.4-4.6-6.7-9.8-5.5
			c2.1-11.7,1.6-22.8-2.2-33.8c-6.5-19.1-19.9-59.9-22.5-67.8c-1.2-3.6-3.7-5.2-7.3-4c-3.4,1.2-5,3.8-4,7.5c0.4,1.5-0.7-1.9-0.2-0.5
			c6.1,18.5,9.3,28.5,15.3,47c0.5,1.6,2.1,3.5-0.3,4.8c-4,2.2-7.1,5.6-10.9,8.4c-0.9-2.9-1.7-5.5-2.6-8
			c-4.5-12.3-12.6-21.5-24.7-26.7c-3.7-1.6-5.4-3.7-6.5-7.3c-4.5-14.1,1.7,5.1-3-9c-1.2-3.8-3.8-5.5-7.7-4.3
			c-3.6,1.2-4.6,4.1-3.7,7.6c0.3,1.1,0.7,2.2,1.1,3.3c4.4,13.6-2.1-6,2.4,7.6c0.8,2.5,0.7,4.5-0.8,7c-4.9,7.8-6.9,16.5-6.8,25.7
			c0.1,6.7,2.1,13,4.6,19.6c-4.1-0.1-7.7-0.6-11.3-0.3c-3.1,0.3-4.4-0.8-5.2-3.6c-3.2-10.2-11.4-35.5-14.6-45.2
			c-1.6-4.9-6.2-6.4-9.8-3.5c-2.8,2.3-2.5,5-1.5,8.1c7.7,23.4,10.9,32.5,18,56.2c4.3,14.4,9.2,28.2,21.9,38.3
			c-3.5,1.5-6.1,3.1-5.5,7.1c1.4,9.1,3.6,17.9,8.2,26c3.2,5.7,7.4,10.5,12.3,15.9c-6.5,1-5.5,5.1-4.6,9.2c0.6,2.6,1.1,5.2,1.8,7.8
			c6.8,28,33.4,48.6,59.7,46.4c3.7-0.3,4.4,1.6,5.3,4.3c5,15.6,8.9,26.5,12.2,37.9c4.9,17,4.7,31.8-6.9,49.5h12.8
			c11-14.9,10.9-36.6,6-52.3c-3.7-12.1-7.7-23.4-13.1-39.9c-0.9-2.6-0.1-3.8,2-5.2c6.6-4.6,12.6-9.9,16.6-17
			c12.2-21.2,11.2-42.5,1-64.1C213.8,305.3,212.3,302.2,207,304.9z M170.3,224c4.3-3.8,4.3-3.8,6.1,1.5c7.2,20.5,2.7,38.6-11.6,54.5
			c-3.7,4.2-4.3,4.1-6.6-0.9c-0.8-1.7-1.2-3.4-1.8-5.2C149.6,256.5,155.3,236.2,170.3,224z M103.9,245.6
			c18.7-0.1,35.7,12.9,40.9,31.2c1.1,3.4,4.1,7.9,1.9,10.1c-2.1,2.2-6.8-0.3-10.3-1.2c-18.8-5-30.6-17.2-36.3-35.6
			C98.8,246,99.3,244.2,103.9,245.6z M162,329.3c2.2,8.4,2.2,8.4-6.7,6.3c-20.1-4.8-33.2-16.6-38.5-36.8c-0.4-1.7-1.9-4.3,2.1-3.5
			c21,1.3,35.7,11.9,41.6,29.9C161.8,326.3,161.7,327.9,162,329.3z M178.3,383.2c-1.6,2.3-6,0.4-9-0.2
			c-20.3-4.1-31.8-17.5-37.6-36.6c-1.2-3.9,0.8-3.4,3.2-2.4c15.5,2,29.2,7.3,37.9,21.4c1.6,2.6,2.7,5.3,3.6,8.2
			C178,376.7,180,380.8,178.3,383.2z M139.4,245.7c-17.2-10.5-27.1-26.3-17.9-48.1c1.6-3.7,3.4-3.8,6.4-2c8,4.7,13.9,11.3,16.6,18.9
			c3.7,11.2,1.1,20.6-2.2,30C141.8,246,141.1,246.7,139.4,245.7z M171.9,321.4c-4.6-12.3-2-23.9,4.2-34.9
			c2.9-5.2,6.4-10.1,11.3-13.8c2.3-2.9,3.5-1.9,4.7,1c6.5,16.5,4.7,32.1-4.9,46.9c-0.8,1.2-1.7,2.5-2.7,3.5
			c-2.7,2.8-4.9,8.4-8.2,7.6C173.2,331.1,173.1,325.2,171.9,321.4z M195.3,377.2c-4,3.5-4.2,3.5-5.9-1.6c-0.6-1.9-1.1-3.8-1.7-5.7
			c-5.6-16.5,0.8-35.4,15.9-47.5c1.8-2.9,3.1-3.6,4.7,0.3C215.9,341.6,210.7,363.7,195.3,377.2z"/>
	</g>
	<path class="st2" d="M350.7,282.8c0.7-1.9,1.1-3.1,1.7-4.3c8.3-17.6,10.3-35.9,7.7-55.1c-0.9-6.7-3.2-10.7-10.5-11.4
		c7.8-14.4,11.9-29.2,11.6-45.3c-0.4-27.8-0.4-83-0.4-94.4c0-5.3-0.7-8.4-5.9-8.3c-5,0.1-6.1,2.9-6.5,8.1c-0.2,2.1-0.1,4.1-0.1,6.2
		c0,26.9,0,30.4,0,57.2c0,2.3-2.8,5.5-6.5,6.2c-6.2,1.2-11.7,4.3-17.9,6.3c0-4.2,0.1-7.9,0-11.5c-0.7-18.1-7.3-33.6-20.9-45.6
		c-4.1-3.7-7.5-7.1-7.4-12.3c0.2-20.4,0,11,0-9c0-5.5-0.6-8.9-6.2-8.9c-5.3,0-5.7,3.4-6.1,8.4c-0.1,1.6,0,3.2,0,4.8
		c-0.1,19.8-0.2-12.8-0.2,6.9c0,3.7-3,6.3-6,8.8c-9.8,8.1-16.1,18.7-19.9,30.8c-2.8,8.9-2.8,17.9-2.4,27.7
		c-5.3-1.9-9.9-4.1-14.7-5.2c-4.2-1-9.4-2.9-9.3-7c0.2-14.7,0.3-47.4,0.2-61.4c0-7.1-1.6-9.2-6.3-8.8c-5,0.5-6.4,5.6-6.4,10
		c0,34,0.4,43.2-0.4,77.2c-0.5,20.7,0.1,40.9,12.3,59.6c-5.3,0.5-9.4,1.5-10.2,7c-2,12.5-3,25-0.4,37.7c1.8,8.8,5.2,17,9.3,26
		c-8.9-1.5-9.4,4.3-10,10c-0.4,3.7-0.8,7.3-1,11c-3.1,39.6,22.9,78,58.3,86.4c5,1.2,7.6,4,7.6,7.9c-0.2,42.3-0.3,61.1-0.5,103.4
		h12.2c0-42.8-0.1-62.2-0.2-105.1c0-3.8,3.8-5,7.2-6c10.6-3.1,20.7-7.6,29.1-15.2c25-22.6,32.8-51,28.7-83.6
		C359.4,286.3,358.7,281.5,350.7,282.8z M337.1,161.1c7.3-3.1,7.2-3.1,7.4,4.5c0.6,30-12.9,51.8-38.6,66.5c-6.7,3.8-7.4,3.5-8.2-4
		c-0.3-2.5-0.1-5-0.2-7.5C296.2,194.8,312.3,170.6,337.1,161.1z M240.9,161c24.5,7.8,41.3,32.2,40.2,58.4c0,4.9,2,12.1-1.8,14
		c-3.7,2-8.8-3.3-13-6c-22.6-14.6-32.7-35.6-32.3-62.3C234.1,159.3,235.5,157.2,240.9,161z M281.3,295.6c-0.8,12-0.7,11.9-11.4,5.4
		c-24.2-14.8-36.4-36-34.7-64.7c0.1-2.4-0.6-6.4,4.2-3.7c26.9,10.7,41.7,30.9,41.8,57C282.3,291.5,281.4,293.6,281.3,295.6z
		 M279.5,373.2c-3,2.3-8-2-11.7-4.1c-24.9-14.1-34.1-36.5-33.6-64c0.1-5.7,2.5-4.1,5.3-1.8c19.5,9.3,35.1,22.1,40.5,44.3
		c1,4,1.3,8.1,1.2,12.2C281.8,364.5,282.8,370.7,279.5,373.2z M287.5,176.3c-18-21.1-24.2-46.1-2.9-70.7c3.6-4.2,6.1-3.5,9.3,0.1
		c8.5,9.7,13.4,20.7,13.6,31.8c0,16.3-7.4,27.5-15.7,38.4C290.4,177.6,289.3,178.4,287.5,176.3z M297.5,289.5
		c-0.8-18.2,7.6-32.2,20.4-43.9c6.1-5.5,12.8-10.5,20.7-13.2c4.2-2.9,5.5-1,5.7,3.3c1.4,24.4-7.6,44.1-26.6,59.4
		c-1.6,1.3-3.3,2.5-5.1,3.5c-4.8,2.5-10,8.9-14,6.4C295.1,302.7,297.5,294.9,297.5,289.5z M304.4,372.6c-6.8,2.9-7,2.8-7.1-4.7
		c0-2.7,0.1-5.5,0.2-8.2c-0.2-24.1,16.2-46.1,41.2-55.4c3.6-3.1,5.6-3.4,6,2.4C346.6,334.7,330.3,361.5,304.4,372.6z"/>
	<path class="st3" d="M294.2,363.7c-0.3-29.4,19.7-56.4,50.3-67.7C347.8,326.6,320.5,357.6,294.2,363.7z"/>
	<path class="st4" d="M294.2,363.7c26.3-6.2,53.6-37.1,50.3-67.7c4.3-3.7,6.8-4.1,7.3,2.9c2.3,34.1-17.5,66.9-49.2,80.4
		c-8.3,3.6-8.5,3.5-8.7-5.7C293.9,370.4,294.1,367.1,294.2,363.7z"/>
	<g>
		<path class="st3" d="M234.5,298c23,10.9,41.4,26.1,47.8,52.2c1.2,4.8,1.6,9.5,1.4,14.4C253.9,355.8,234.9,329.9,234.5,298z"/>
		<g>
			<path class="st4" d="M234.5,298c0.4,32,19.5,57.8,49.2,66.6c0.8,5.6,2,12.9-1.9,15.8c-3.6,2.7-9.4-2.4-13.8-4.9
				c-29.3-16.7-40.3-43.1-39.6-75.5C228.4,293.4,231.2,295.2,234.5,298z"/>
		</g>
	</g>
	<g>
		<path class="st3" d="M296.2,293.6c-0.9-21.5,9-38.1,24.2-51.9c7.2-6.6,15.1-12.4,24.5-15.7c-0.2,17.1-6,32.5-16.6,45.6
			C320,281.8,310,290.7,296.2,293.6z"/>
		<path class="st4" d="M296.2,293.6c13.8-2.8,23.7-11.8,32.1-22c10.6-13.1,16.4-28.4,16.6-45.6c5-3.4,6.5-1.2,6.8,3.9
			c1.7,28.9-9,52.2-31.5,70.3c-1.9,1.5-3.9,3-6,4.1c-5.6,2.9-11.8,10.6-16.6,7.6C293.3,309.3,296.2,300,296.2,293.6z"/>
	</g>
	<g>
		<path class="st3" d="M235.1,225.4c32.2,12.8,50,37,50,68.2c-19.4-6-32.6-18.7-41.4-36.9C238.8,246.7,237.7,235.9,235.1,225.4z"/>
		<path class="st4" d="M235.1,225.4c2.6,10.5,3.6,21.3,8.6,31.3c8.9,18.2,22.1,30.8,41.4,36.9c1.3,2.4,0.2,4.9,0.1,7.3
			c-0.9,14.4-0.9,14.2-13.7,6.4c-29-17.7-43.6-43.1-41.5-77.5C230.2,227,229.3,222.2,235.1,225.4z"/>
	</g>
	<g>
		<path class="st3" d="M294.5,224.7c-1.6-31.2,17.9-60.5,48-72.1c2.8,2.5,1.8,5.4,1.2,8.4C338.2,190.8,321.5,211.7,294.5,224.7z"/>
		<path class="st4" d="M294.5,224.7c27-13.1,43.7-34,49.2-63.6c0.6-3,1.6-6-1.2-8.4c8.8-3.8,8.8-3.8,9,5.5
			c0.7,36.3-15.7,62.8-46.8,80.6c-8.1,4.7-9,4.3-10-4.9C294.3,230.9,294.5,227.8,294.5,224.7z"/>
	</g>
	<g>
		<path class="st3" d="M237.1,154.8c29.2,9.3,49.3,38.4,48,69.6C258.9,217,237,185.2,237.1,154.8z"/>
		<path class="st4" d="M237.1,154.8c-0.2,30.3,21.8,62.2,48,69.6c-0.1,5.9,2.4,14.4-2.1,16.8c-4.4,2.4-10.6-4-15.5-7.2
			c-26.9-17.4-39-42.5-38.6-74.3C229,152.8,230.7,150.3,237.1,154.8z"/>
	</g>
	<path class="st3" d="M312.3,138.3c0,20.5-9.3,34.7-19.8,48.3c-1.7,2.2-3.2,3.1-5.4,0.5c-22.6-26.6-30.5-58-3.6-89
		c4.5-5.2,7.7-4.4,11.7,0.2C305.8,110.4,312,124.3,312.3,138.3z"/>
	<g>
		<path class="st1" d="M171.9,525.1c0,0-23.6-113.1,106.3-72.6c48.9,15.3,60.6,26.9,110.3,31.2c43.3,3.7,43.2-27.7,43.2-27.7
			s30.8,61.1-37.2,73.1c-37.8,6.7-79.1-6.3-137.1-27.2C171.4,470.9,171.9,525.1,171.9,525.1z"/>
		<path class="st2" d="M373.8,536.4c-33.9,0-71.5-12.4-118.3-29.3c-30.9-11.1-54-12.2-66.9-3.2c-11.1,7.8-11.3,20.6-11.3,21.2
			c0,2.8-2.1,5.2-4.9,5.5s-5.4-1.6-5.9-4.3c-0.4-2-9.7-48.2,17.8-73.1c19.4-17.6,51.5-19.6,95.5-5.9c16.1,5,28.2,9.7,38.9,13.8
			c21.8,8.3,37.5,14.4,70.3,17.2c13.6,1.2,23.8-1.2,30.1-7.1c6.9-6.4,7.1-15,7.1-15.1c0-2.6,1.7-4.8,4.2-5.4c2.5-0.6,5,0.6,6.2,2.9
			c0.6,1.2,14.7,29.7,2.8,53.6c-7.2,14.3-22,23.6-43.9,27.4C388.4,535.8,381.2,536.4,373.8,536.4z M211.8,486.8
			c13.3,0,29.1,3.3,47.4,9.9c55.3,19.9,97.3,33.5,134.3,27c18.3-3.2,30.4-10.5,36-21.5c4.8-9.5,4.1-20.5,2.2-29.1
			c-1.4,2.1-3,4.1-5.2,6.1c-8.7,8-21.7,11.4-38.5,10c-34.3-3-51.5-9.6-73.3-17.9c-10.5-4-22.4-8.6-38.2-13.5
			c-40-12.5-68.5-11.3-84.8,3.5c-11.5,10.5-15.1,26.3-15.8,39.4c1.7-2,3.8-3.9,6.3-5.6C189.9,489.6,199.8,486.8,211.8,486.8z"/>
	</g>
	<path class="st4" d="M266.7,144.8c-0.2-2.3,1.9-4.1,4.1-3.4c1,0.3,2,0.9,2.9,2.1c2.8,3.8,8.9,26.1,16.4,26.2
		c8.7,0.1,11.7-29.5,19.1-28.3c5.5,0.9,3,11.4-4.2,26.4c-7.2,15.1-11.7,21-15.1,21c-3.9,0-10.3-9.4-16.8-22.5
		C268.6,157.1,267.2,149,266.7,144.8z"/>
</g>
</svg>
