<?xml version="1.0" encoding="utf-8"?>
<!-- Generator: Adobe Illustrator 26.0.3, SVG Export Plug-In . SVG Version: 6.00 Build 0)  -->
<svg version="1.1" id="Слой_1" xmlns="http://www.w3.org/2000/svg" xmlns:xlink="http://www.w3.org/1999/xlink" x="0px" y="0px"
	 viewBox="0 0 587.4 595.3" style="enable-background:new 0 0 587.4 595.3;" xml:space="preserve">
<style type="text/css">
	.st0{fill:#CCAE9D;}
	.st1{fill:#394B39;}
	.st2{fill:#A48A7B;}
	.st3{fill:#FEEADC;}
	.st4{fill:#D9C9C3;}
</style>
<g>
	<g>
		<ellipse class="st0" cx="288.6" cy="393.3" rx="178.7" ry="71.8"/>
		<path class="st1" d="M288.6,470.6c-103.3,0-184.2-34-184.2-77.3S185.3,316,288.6,316c103.3,0,184.2,34,184.2,77.3
			S391.9,470.6,288.6,470.6z M288.6,327c-47,0-91.2,7.3-124.3,20.6c-31.1,12.5-48.9,29.1-48.9,45.7s17.8,33.2,48.9,45.7
			c33.1,13.3,77.3,20.6,124.3,20.6c47,0,91.2-7.3,124.3-20.6c31.1-12.5,48.9-29.1,48.9-45.7s-17.8-33.2-48.9-45.7
			C379.8,334.3,335.6,327,288.6,327z"/>
	</g>
	<g>
		<ellipse class="st0" cx="288.6" cy="357.3" rx="251.2" ry="51.6"/>
		<path class="st1" d="M288.6,414.4c-67.5,0-130.9-5.4-178.7-15.2c-51.7-10.6-78-24.7-78-41.9s26.2-31.2,78-41.9
			c47.8-9.8,111.3-15.2,178.7-15.2s130.9,5.4,178.7,15.2c51.7,10.6,78,24.7,78,41.9s-26.2,31.2-78,41.9
			C419.5,409,356.1,414.4,288.6,414.4z M288.6,311.2c-66.7,0-129.4,5.3-176.5,15c-51.1,10.5-69.2,23.3-69.2,31.1
			s18.1,20.6,69.2,31.1c47.1,9.7,109.8,15,176.5,15s129.4-5.3,176.5-15c51.1-10.5,69.2-23.3,69.2-31.1s-18.1-20.6-69.2-31.1
			C418,316.5,355.3,311.2,288.6,311.2z"/>
	</g>
	<ellipse class="st2" cx="288.6" cy="354.5" rx="179" ry="31.9"/>
	<g>
		<g>
			<path class="st3" d="M280.5,362.3H180.3c-4.5,0-8.1-3.6-8.1-8.1V254c0-4.5,3.6-8.1,8.1-8.1h100.2c4.5,0,8.1,3.6,8.1,8.1v100.2
				C288.6,358.7,284.9,362.3,280.5,362.3z"/>
			<path class="st1" d="M280.5,367.8H180.3c-7.5,0-13.6-6.1-13.6-13.6V254c0-7.5,6.1-13.6,13.6-13.6h100.2c7.5,0,13.6,6.1,13.6,13.6
				v100.2C294.1,361.7,288,367.8,280.5,367.8z M180.3,251.4c-1.5,0-2.6,1.1-2.6,2.6v100.2c0,1.5,1.1,2.6,2.6,2.6h100.2
				c1.4,0,2.6-1.2,2.6-2.6V254c0-1.5-1.1-2.6-2.6-2.6H180.3z"/>
		</g>
		<g>
			<path class="st3" d="M396.4,362.3h-99.3c-4.7,0-8.6-3.8-8.6-8.6v-99.3c0-4.7,3.8-8.6,8.6-8.6h99.3c4.7,0,8.6,3.8,8.6,8.6v99.3
				C405,358.5,401.1,362.3,396.4,362.3z"/>
			<path class="st1" d="M396.4,367.8h-99.3c-7.8,0-14.1-6.3-14.1-14.1v-99.3c0-7.8,6.3-14.1,14.1-14.1h99.3
				c7.8,0,14.1,6.3,14.1,14.1v99.3C410.5,361.5,404.2,367.8,396.4,367.8z M297.1,251.3c-1.7,0-3.1,1.4-3.1,3.1v99.3
				c0,1.7,1.4,3.1,3.1,3.1h99.3c1.7,0,3.1-1.4,3.1-3.1v-99.3c0-1.7-1.4-3.1-3.1-3.1H297.1z"/>
		</g>
		<g>
			<path class="st3" d="M337,245.9h-96.9c-5.4,0-9.7-4.4-9.7-9.7v-96.9c0-5.4,4.4-9.7,9.7-9.7H337c5.4,0,9.7,4.4,9.7,9.7v96.9
				C346.8,241.6,342.4,245.9,337,245.9z"/>
			<path class="st1" d="M337,251.4h-96.9c-8.4,0-15.2-6.8-15.2-15.2v-96.9c0-8.4,6.8-15.2,15.2-15.2H337c8.4,0,15.2,6.8,15.2,15.2
				v96.9c0.1,4-1.5,7.8-4.3,10.7C345,249.8,341.2,251.4,337,251.4z M240.1,135.1c-2.3,0-4.2,1.9-4.2,4.2v96.9c0,2.3,1.9,4.2,4.2,4.2
				H337c1.2,0,2.3-0.4,3.1-1.3c0.5-0.5,1.2-1.5,1.1-2.8c0,0,0-0.1,0-0.1v-96.9c0-2.3-1.9-4.2-4.2-4.2H240.1z"/>
		</g>
	</g>
	<path class="st4" d="M181.5,356.4c0,0,46.9-7.2,70.3-19.4c23.4-12.2,31-38.1,31-38.1v57.5H181.5z"/>
	<path class="st4" d="M298,356.4c0,0,46.9-7.2,70.3-19.4c23.4-12.2,31-38.1,31-38.1v57.5H298z"/>
	<path class="st4" d="M239.8,240.1c0,0,46.9-7.2,70.3-19.4s31-38.1,31-38.1v57.5H239.8z"/>
</g>
</svg>
