<?xml version="1.0" encoding="utf-8"?>
<!-- Generator: Adobe Illustrator 26.0.3, SVG Export Plug-In . SVG Version: 6.00 Build 0)  -->
<svg version="1.1" id="Слой_1" xmlns="http://www.w3.org/2000/svg" xmlns:xlink="http://www.w3.org/1999/xlink" x="0px" y="0px"
	 viewBox="0 0 587.4 595.3" style="enable-background:new 0 0 587.4 595.3;" xml:space="preserve">
<style type="text/css">
	.st0{fill:#699659;}
	.st1{fill:#394B39;}
	.st2{fill:#90B479;}
	.st3{fill:#CA9E67;}
	.st4{fill:#ECC484;}
	.st5{fill:#C18957;}
	.st6{fill:#7B6A58;}
</style>
<g>
	<g>
		<path class="st0" d="M314.1,475.4c0,0-17.1-56.1,15.8-81.6c16-12.4,48.7-16.6,65.2-17.4c16.5-0.9,46.1-1.4,46.1-1.4
			s-10,48.6-31.9,75.3C364.5,504.7,314.1,475.4,314.1,475.4z"/>
		<path class="st1" d="M346.9,488.3c-0.7,0-1.4,0-2.1,0c-19.2-0.6-32.6-8.2-33.2-8.5l-1.7-1l-0.6-1.9c-0.7-2.4-17.7-59.7,17.5-87
			c19.8-15.4,60.1-18.1,68-18.4c16.4-0.9,46-1.4,46.3-1.4l6.2-0.1l-1.3,6.1c-0.4,2-10.5,50.1-32.9,77.5
			C389.7,482,364.5,488.3,346.9,488.3z M318.3,472c3.9,1.9,14,6,27.1,6.3c22.4,0.5,42.5-10,60-31.1c16.4-19.9,26-53.3,29.4-67
			c-9.6,0.2-27.9,0.6-39.5,1.3c-20.3,1-48.9,5.9-62.4,16.4C306.5,418.3,315.8,462.1,318.3,472z"/>
	</g>
	<path class="st2" d="M327.3,454.7c0,0-8.1-35.1,13.8-49.2c10.7-6.9,23.6-6.8,42-7.7c10.4-0.5,29.2-3.7,29.2-3.7
		s-8.7,34.3-23.7,49.6C357.7,475,327.3,454.7,327.3,454.7z"/>
	<g>
		<path class="st0" d="M263,464.6c0,0,5.3-18.2-1.8-47.4c-7.1-29.2-44.7-44.5-74.3-48.5c-36.7-5-67.7,11.1-67.7,11.1
			s30.4,27.1,50.9,69.7C208.4,528.5,263,464.6,263,464.6z"/>
		<path class="st1" d="M217.2,494c-1.8,0-3.6-0.1-5.4-0.3c-18.3-2.3-33.8-16.5-46.2-42c-19.8-41.1-49.4-67.9-49.7-68.2l-5.4-4.8
			l6.4-3.3c1.3-0.7,32.8-16.8,70.7-11.6c31.4,4.2,70.8,20.5,78.5,52.3c7.3,30.2,2,49.2,1.7,50l-0.3,1l-0.7,0.8
			C265.8,469,244.1,494,217.2,494z M128.1,381.4c9.9,10,30.9,33.4,46.6,65.9c10.8,22.3,23.7,34.5,38.4,36.4
			c21.5,2.8,41.3-17.2,45.4-21.5c0.9-4.1,3.6-20.2-2.1-43.8c-6.1-25.2-39.6-40.6-70.1-44.7C161.2,370.2,138.7,377.2,128.1,381.4z
			 M263,464.6L263,464.6L263,464.6z M263,464.6L263,464.6L263,464.6z"/>
	</g>
	<path class="st2" d="M241.8,444.9c0,0,3-10.6-1-27.7c-4.1-17-25.7-25.9-42.7-28.3c-21.1-2.9-38.9,1.1-38.9,1.1s17.5,21.2,29.3,46
		C210.4,482.1,241.8,444.9,241.8,444.9z"/>
	<g>
		<path class="st1" d="M299.4,561.9c-1.9,0-3.7-1.1-4.6-3c-1-2.2-23.9-54.8-22.1-152.7c1.1-61.2,15-129.4,15.1-130.1
			c0.6-2.7,3.2-4.4,5.9-3.9c2.7,0.6,4.4,3.2,3.9,5.9c-0.1,0.7-13.8,68.1-14.9,128.3c-1.8,95.4,21,148,21.3,148.5
			c1.1,2.5,0,5.5-2.5,6.6C300.8,561.8,300.1,561.9,299.4,561.9z"/>
	</g>
	<g>
		<path class="st1" d="M290.9,532.2c-0.3,0-0.6,0-0.9-0.1c-2.7-0.5-4.5-3.1-4.1-5.8c6.5-37,27.4-64.1,43.7-80.3
			c17.6-17.5,33.6-26.2,34.3-26.6c2.4-1.3,5.5-0.4,6.8,2c1.3,2.4,0.4,5.5-2,6.8l0,0c-0.6,0.3-61.2,34-72.9,99.9
			C295.4,530.5,293.3,532.2,290.9,532.2z"/>
	</g>
	<g>
		<path class="st1" d="M286.6,517.4c-2,0-3.9-1.2-4.7-3.2c-35.6-93.6-91.3-106.1-91.8-106.2c-2.7-0.6-4.4-3.2-3.9-5.9
			c0.6-2.7,3.2-4.4,5.9-3.9c0.6,0.1,16,3.4,36,19.2c18.1,14.2,43.7,42,63.2,93.2c1,2.6-0.3,5.5-2.9,6.5
			C287.8,517.3,287.2,517.4,286.6,517.4z"/>
	</g>
	<g>
		<g>
			<g>
				<path class="st3" d="M175.9,211.3c19.9-7.9,42.4,1.8,50.4,21.7c7.9,19.9-1.8,42.4-21.7,50.4s-80.1-9.8-80.1-9.8
					S156,219.2,175.9,211.3z"/>
				<path class="st1" d="M190,290.4c-25.3,0-61.9-10.6-66.9-12c-1.5-0.4-2.7-1.5-3.2-2.9c-0.6-1.4-0.5-3,0.3-4.4
					c3.3-5.7,33-56.1,53.9-64.4c22.4-8.9,47.9,2.1,56.9,24.5c8.9,22.4-2.1,47.9-24.5,56.9C202.2,289.8,196.5,290.4,190,290.4z
					 M132.1,270.6c19.5,5.3,57.2,13.6,70.6,8.2c17.3-6.9,25.8-26.6,18.9-43.9c-6.9-17.3-26.6-25.8-43.9-18.9
					C164.4,221.3,142.7,253.3,132.1,270.6z"/>
			</g>
			<g>
				<path class="st3" d="M410.2,201.4c-19.9,7.9-42.4-1.8-50.4-21.7s1.8-42.4,21.7-50.4c19.9-7.9,80.1,9.8,80.1,9.8
					S430.1,193.4,410.2,201.4z"/>
				<path class="st1" d="M396,209.1c-17.4,0-33.9-10.4-40.8-27.6c-4.4-10.9-4.2-22.8,0.4-33.5c4.6-10.7,13.2-19,24-23.4
					c20.9-8.3,77,7.8,83.4,9.6c1.5,0.4,2.7,1.5,3.2,2.9c0.6,1.4,0.5,3-0.3,4.4c-3.3,5.7-33,56-53.9,64.4c0,0,0,0,0,0
					C406.8,208.1,401.3,209.1,396,209.1z M410.2,201.4L410.2,201.4L410.2,201.4z M395.7,132.2c-5,0-9.3,0.5-12.4,1.7
					c-8.4,3.4-15,9.8-18.6,18.1c-3.6,8.3-3.7,17.5-0.3,25.8c6.9,17.3,26.6,25.8,43.9,18.9c13.4-5.4,35-37.3,45.6-54.6
					C438.8,138.1,412.9,132.2,395.7,132.2z"/>
			</g>
		</g>
		<g>
			<g>
				<path class="st3" d="M288.1,89.1c7.9,19.9-1.8,42.4-21.7,50.4c-19.9,7.9-42.4-1.8-50.4-21.7c-7.9-19.9,9.8-80.1,9.8-80.1
					S280.2,69.3,288.1,89.1z"/>
				<path class="st1" d="M252.2,147.2c-17.4,0-33.9-10.4-40.8-27.6c-8.3-20.9,7.8-77,9.6-83.4c0.4-1.5,1.5-2.7,2.9-3.2
					c1.4-0.6,3-0.5,4.4,0.3c5.7,3.3,56.1,33.1,64.4,53.9c0,0,0,0,0,0c8.9,22.4-2.1,47.9-24.5,56.9
					C263,146.2,257.5,147.2,252.2,147.2z M228.9,45.4c-5.2,19.5-13.5,57.2-8.2,70.6c6.9,17.3,26.6,25.8,43.9,18.9
					c17.3-6.9,25.7-26.6,18.9-43.9C278.1,77.6,246.1,56,228.9,45.4z"/>
			</g>
			<g>
				<path class="st3" d="M298,323.5c-7.9-19.9,1.8-42.4,21.7-50.4c19.9-7.9,42.4,1.8,50.4,21.7c7.9,19.9-9.8,80.1-9.8,80.1
					S305.9,343.4,298,323.5z"/>
				<path class="st1" d="M360.3,379.9c-0.9,0-1.7-0.2-2.5-0.7c-5.7-3.3-56.1-33-64.4-53.9c0,0,0,0,0,0c-8.9-22.4,2.1-47.9,24.5-56.9
					c22.4-8.9,47.9,2.1,56.9,24.5c8.3,20.9-7.8,77-9.6,83.4c-0.4,1.5-1.5,2.7-2.9,3.2C361.6,379.8,360.9,379.9,360.3,379.9z
					 M302.6,321.7c5.3,13.4,37.3,35,54.6,45.6c5.2-19.5,13.5-57.2,8.2-70.6c-6.9-17.3-26.6-25.8-43.9-18.9
					C304.3,284.7,295.8,304.4,302.6,321.7L302.6,321.7z"/>
			</g>
		</g>
		<g>
			<g>
				<path class="st3" d="M213.7,292.7c8.5-19.7,31.3-28.7,50.9-20.3c19.7,8.5,28.7,31.3,20.3,50.9c-8.5,19.7-63.6,49.7-63.6,49.7
					S205.2,312.4,213.7,292.7z"/>
				<path class="st1" d="M221.3,378c-0.7,0-1.3-0.1-2-0.4c-1.4-0.6-2.5-1.8-2.9-3.3c-1.7-6.4-16.3-62.9-7.4-83.6
					c9.5-22.1,35.3-32.4,57.5-22.9c22.1,9.6,32.4,35.3,22.9,57.5c-8.9,20.7-60,49-65.8,52.1C222.9,377.8,222.1,378,221.3,378z
					 M249.4,274.3c-13.1,0-25.6,7.7-31.1,20.4c-5.7,13.2,1.5,51.1,6.3,70.8c17.5-10.1,50-30.9,55.8-44.1c7.3-17.1-0.6-37-17.7-44.3
					C258.3,275.1,253.8,274.3,249.4,274.3z"/>
			</g>
			<g>
				<path class="st3" d="M372.4,120c-8.5,19.7-31.3,28.7-50.9,20.3c-19.7-8.5-28.7-31.3-20.3-50.9s63.6-49.7,63.6-49.7
					S380.8,100.3,372.4,120z"/>
				<path class="st1" d="M336.7,148.4c-5.7,0-11.6-1.1-17.2-3.5c-22.1-9.6-32.4-35.3-22.9-57.5c8.8-20.6,60-49,65.8-52.1
					c1.3-0.7,3-0.8,4.4-0.2c1.4,0.6,2.5,1.8,2.9,3.3c1.7,6.4,16.2,62.9,7.4,83.5c0,0,0,0,0,0C369.9,138.5,353.7,148.4,336.7,148.4z
					 M361.5,47.3c-17.6,10.1-50.1,30.9-55.7,44.1c-7.3,17.1,0.6,37,17.7,44.3c17.1,7.3,37-0.6,44.3-17.7
					C373.4,104.8,366.2,66.9,361.5,47.3z M372.4,120L372.4,120L372.4,120z"/>
			</g>
		</g>
		<g>
			<g>
				<path class="st3" d="M379.4,285.7c-19.7-8.5-28.7-31.3-20.3-50.9s31.3-28.7,50.9-20.3c19.7,8.5,49.7,63.6,49.7,63.6
					S399.1,294.1,379.4,285.7z"/>
				<path class="st1" d="M396.4,293.1c-7.5,0-14.2-0.8-18.9-2.8c0,0,0,0,0,0c-22.1-9.5-32.4-35.3-22.9-57.5
					c4.6-10.7,13.1-19,24-23.3c10.9-4.3,22.8-4.2,33.5,0.4c20.7,8.9,49,60,52.1,65.8c0.7,1.3,0.8,3,0.2,4.4
					c-0.6,1.4-1.8,2.5-3.3,2.9C456.1,284.2,421.5,293.1,396.4,293.1z M381.4,281.1c13.3,5.6,51.1-1.6,70.8-6.3
					c-10.1-17.5-30.9-50-44.1-55.7c-8.2-3.5-17.4-3.6-25.8-0.3s-15,9.7-18.5,18C356.4,253.8,364.3,273.7,381.4,281.1z"/>
			</g>
			<g>
				<path class="st3" d="M206.7,127c19.7,8.5,28.7,31.3,20.3,50.9s-31.3,28.7-50.9,20.3s-49.7-63.6-49.7-63.6S187,118.5,206.7,127z"
					/>
				<path class="st1" d="M191.3,206.3c-5.8,0-11.7-1.2-17.2-3.5c-20.6-8.8-49-60-52.1-65.8c-0.7-1.3-0.8-3-0.2-4.4
					c0.6-1.4,1.8-2.5,3.3-2.9c6.4-1.7,62.9-16.3,83.6-7.4l0,0c22.1,9.5,32.4,35.3,22.9,57.5c-4.6,10.7-13.1,19-24,23.3
					C202.3,205.3,196.8,206.3,191.3,206.3z M134,137.9c10.1,17.6,30.9,50.1,44.1,55.8c8.3,3.5,17.4,3.6,25.8,0.3
					c8.4-3.3,15-9.7,18.5-18c7.3-17.1-0.6-37-17.7-44.3l0,0C191.5,125.9,153.6,133.1,134,137.9z"/>
			</g>
		</g>
	</g>
	<g>
		<g>
			<path class="st4" d="M197.6,175.3c18.3-0.4,33.5,14.1,33.9,32.4s-14.1,33.5-32.4,33.9s-61.4-31.8-61.4-31.8
				S179.2,175.7,197.6,175.3z"/>
			<path class="st4" d="M388.5,237.3c-18.3,0.4-33.5-14.1-33.9-32.4s14.1-33.5,32.4-33.9s61.4,31.8,61.4,31.8
				S406.8,236.9,388.5,237.3z"/>
		</g>
		<g>
			<path class="st4" d="M324,110.8c0.4,18.3-14.1,33.5-32.4,33.9s-33.5-14.1-33.9-32.4S289.5,51,289.5,51S323.6,92.5,324,110.8z"/>
			<path class="st4" d="M262,301.8c-0.4-18.3,14.1-33.5,32.4-33.9s33.5,14.1,33.9,32.4s-31.8,61.4-31.8,61.4S262.4,320.1,262,301.8z
				"/>
		</g>
		<g>
			<path class="st4" d="M203.6,251.9c12.7-13.2,33.7-13.7,46.9-1.1c13.2,12.6,13.7,33.7,1.1,46.9s-65.9,20.9-65.9,20.9
				S190.9,265.2,203.6,251.9z"/>
			<path class="st4" d="M382.5,160.7c-12.7,13.2-33.7,13.7-46.9,1.1c-13.2-12.7-13.7-33.7-1.1-46.9c12.7-13.2,65.9-20.9,65.9-20.9
				S395.1,147.5,382.5,160.7z"/>
		</g>
		<g>
			<path class="st4" d="M338.6,295.8c-13.2-12.7-13.7-33.7-1.1-46.9c12.7-13.2,33.7-13.7,46.9-1.1c13.2,12.7,20.9,65.9,20.9,65.9
				S351.9,308.4,338.6,295.8z"/>
			<path class="st4" d="M247.4,116.9c13.2,12.7,13.7,33.7,1.1,46.9c-12.7,13.2-33.7,13.7-46.9,1.1C188.4,152.2,180.7,99,180.7,99
				S234.2,104.2,247.4,116.9z"/>
		</g>
	</g>
	<g>
		<circle class="st5" cx="292.7" cy="206.2" r="61.9"/>
		<path class="st1" d="M451.4,198.8c-4.5-3.4-44.5-32.8-64.1-32.8c-0.1,0-0.3,0-0.4,0c-1,0-1.9,0.1-2.9,0.2c0.7-0.6,1.4-1.3,2.1-2
			c0,0,0,0,0,0c13.4-14,18.7-64,19.3-69.7c0.2-1.5-0.4-3-1.5-4.1s-2.7-1.6-4.2-1.3c-5.6,0.8-55.3,8.4-68.8,22.4
			c-0.7,0.7-1.3,1.5-1.9,2.2c0.1-1,0.1-2,0.1-3c-0.4-19.5-32-58.5-35.6-62.9c-1-1.2-2.4-1.9-4-1.8c-1.5,0-3,0.8-3.9,2
			c-3.4,4.5-33.2,44.9-32.8,64.4c0,1,0.1,2,0.2,3c-0.6-0.7-1.3-1.4-2-2.1c-14-13.5-64-18.7-69.7-19.3c-1.5-0.1-3,0.4-4.1,1.5
			c-1.1,1.1-1.6,2.6-1.3,4.2c0.8,5.6,8.4,55.3,22.4,68.8c0.7,0.6,1.4,1.2,2.1,1.8c-0.6,0-1.2,0-1.9,0c-0.3,0-0.6,0-0.8,0
			c-19.6,0.4-58.6,32-63,35.6c-1.2,1-1.9,2.4-1.8,4c0,1.5,0.8,3,2,3.9c4.5,3.4,44.5,32.8,64.1,32.8c0.1,0,0.3,0,0.4,0
			c1,0,1.9-0.1,2.9-0.2c-0.7,0.6-1.4,1.3-2.1,2c0,0,0,0,0,0c-13.5,14.1-18.7,64-19.3,69.7c-0.1,1.5,0.4,3,1.5,4.1
			c0.9,0.9,2.2,1.4,3.5,1.4c0.2,0,0.5,0,0.7-0.1c5.6-0.8,55.4-8.4,68.8-22.4c0.6-0.7,1.3-1.4,1.8-2.1c0,0.9-0.1,1.9-0.1,2.8
			c0.4,19.5,32,58.6,35.6,63c1,1.2,2.4,1.8,3.9,1.8c0,0,0.1,0,0.1,0c1.5,0,3-0.8,3.9-2c3.4-4.6,33.2-45,32.8-64.5
			c0-1-0.1-1.9-0.2-2.9c0.6,0.7,1.3,1.4,2,2.1c0,0,0,0,0,0c14.1,13.4,64,18.7,69.6,19.2c0.2,0,0.3,0,0.5,0c1.4,0,2.7-0.6,3.6-1.5
			c1.1-1.1,1.6-2.6,1.3-4.2c-0.8-5.6-8.4-55.3-22.4-68.8c-0.7-0.7-1.5-1.3-2.2-1.9c0.7,0,1.4,0.1,2.1,0.1c0.3,0,0.6,0,0.8,0
			c19.5-0.4,58.6-32,63-35.6c1.2-1,1.9-2.4,1.8-4C453.4,201.2,452.6,199.7,451.4,198.8z M292.7,262.4c-31,0-56.2-25.2-56.2-56.2
			s25.2-56.2,56.2-56.2c31,0,56.2,25.2,56.2,56.2S323.7,262.4,292.7,262.4z M338.1,118.4c8.3-8.6,39.3-15.4,56.6-18.4
			c-2.2,17.3-7.6,48.7-15.8,57.3c-10.8,11.2-28.7,11.6-39.8,1C327.9,147.4,327.4,129.5,338.1,118.4z M289.7,59.3
			C300.4,73,318.7,99,319,110.9c0.2,7.5-2.6,14.7-7.8,20.1s-12.2,8.5-19.7,8.7c-15.6,0.3-28.5-12-28.8-27.5
			C262.4,100.3,279.6,73.5,289.7,59.3z M186.7,104.7c17.3,2.2,48.7,7.6,57.3,15.8c11.2,10.8,11.6,28.7,1,39.8
			c-10.8,11.2-28.7,11.6-39.8,1C196.5,153,189.6,121.9,186.7,104.7z M199,236.6c-11.9,0.3-38.7-16.9-53-27
			c13.8-10.7,39.8-29.1,51.7-29.3c0,0,0,0,0,0c15.5-0.4,28.5,12,28.8,27.5C226.8,223.3,214.5,236.3,199,236.6z M248,294.2
			c-8.2,8.6-39.3,15.4-56.6,18.4c2.2-17.3,7.6-48.6,15.8-57.3c10.8-11.2,28.6-11.6,39.8-0.9c5.4,5.2,8.5,12.2,8.7,19.7
			S253.2,288.8,248,294.2z M296.3,353.4c-10.7-13.8-29.1-39.9-29.3-51.7c-0.3-15.5,12-28.5,27.5-28.8c0.2,0,0.4,0,0.6,0
			c7.3,0,14.2,2.8,19.5,7.8c5.4,5.2,8.5,12.2,8.7,19.7C323.6,312.3,306.4,339.1,296.3,353.4z M399.3,308
			c-17.3-2.2-48.6-7.6-57.3-15.8c-11.2-10.8-11.6-28.6-0.9-39.8c10.8-11.2,28.7-11.6,39.8-1C389.5,259.7,396.4,290.7,399.3,308z
			 M388.4,232.3c-0.2,0-0.4,0-0.6,0c-15.3,0-27.8-12.2-28.2-27.5c-0.3-15.5,12-28.5,27.5-28.8c0.1,0,0.2,0,0.3,0
			c12,0,38.6,17,52.8,27C426.3,213.7,400.3,232,388.4,232.3z"/>
	</g>
	<circle class="st6" cx="325.4" cy="224.1" r="5"/>
	<circle class="st6" cx="313.1" cy="238.7" r="5"/>
</g>
</svg>
