<svg width="24" height="24" viewBox="0 0 24 24" fill="none" xmlns="http://www.w3.org/2000/svg">
<path d="M5.01221 12.6807C6.39024 12.8204 7.46522 13.9845 7.46533 15.3994V19.2676L7.45166 19.5469C7.31148 20.9246 6.14761 22 4.73291 22L4.45361 21.9863C3.16772 21.8557 2.14497 20.8327 2.01416 19.5469L2.00049 19.2676V15.3994C2.00061 13.8904 3.22389 12.6671 4.73291 12.667L5.01221 12.6807ZM19.5464 2.01367C20.9244 2.15343 21.9994 3.31752 21.9995 4.73242V19.2666L21.9858 19.5459C21.8461 20.924 20.6821 22 19.2671 22L18.9878 21.9854C17.7017 21.8546 16.6788 20.8321 16.5483 19.5459L16.5347 19.2666V4.73242C16.5348 3.22344 17.7581 2.00019 19.2671 2L19.5464 2.01367ZM12.2798 11.0098C13.6576 11.1146 14.7325 11.9879 14.7329 13.0488V19.9502L14.7192 20.1592C14.5794 21.1926 13.4153 21.9989 12.0005 21.999L11.7212 21.9893C10.4351 21.8913 9.41225 21.1238 9.28174 20.1592L9.26807 19.9502V13.0488C9.26847 11.9173 10.4916 11.0001 12.0005 11L12.2798 11.0098ZM12.0005 12.3496C11.4858 12.3497 11.0683 12.6628 11.0679 13.0488V19.9502C11.0682 20.3363 11.4857 20.6493 12.0005 20.6494C12.5153 20.6493 12.9328 20.3362 12.9331 19.9502V13.0488C12.9327 12.6629 12.5152 12.3497 12.0005 12.3496ZM4.73291 14.4668C4.218 14.4669 3.80041 14.8845 3.80029 15.3994V19.2676C3.80063 19.7823 4.21813 20.2001 4.73291 20.2002C5.24779 20.2002 5.66519 19.7824 5.66553 19.2676V15.3994C5.66541 14.8844 5.24792 14.4668 4.73291 14.4668ZM19.2671 3.7998C18.7522 3.79999 18.3346 4.21756 18.3345 4.73242V19.2666C18.3345 19.7816 18.7522 20.199 19.2671 20.1992C19.7822 20.1992 20.1997 19.7817 20.1997 19.2666V4.73242C20.1996 4.21744 19.7821 3.7998 19.2671 3.7998Z" fill="black" fill-opacity="0.32"/>
<path d="M2.875 11L8.375 9.875L14.25 4M14.25 4H11.125M14.25 4V7.375" stroke="#ADADAD" stroke-width="1.8" stroke-linecap="round"/>
</svg>
