<?xml version="1.0" encoding="utf-8"?>
<!-- Generator: Adobe Illustrator 26.0.3, SVG Export Plug-In . SVG Version: 6.00 Build 0)  -->
<svg version="1.1" id="Слой_1" xmlns="http://www.w3.org/2000/svg" xmlns:xlink="http://www.w3.org/1999/xlink" x="0px" y="0px"
	 viewBox="0 0 587.4 595.3" style="enable-background:new 0 0 587.4 595.3;" xml:space="preserve">
<style type="text/css">
	.st0{fill:#699659;}
	.st1{fill:#394B39;}
	.st2{fill:#54814E;}
	.st3{fill:#90B479;}
</style>
<g>
	<g>
		<circle class="st0" cx="274" cy="316.6" r="192.8"/>
		<path class="st1" d="M274,514.9c-109.3,0-198.3-89-198.3-198.3s89-198.3,198.3-198.3s198.3,89,198.3,198.3S383.3,514.9,274,514.9z
			 M274,129.3c-103.3,0-187.3,84-187.3,187.3s84,187.3,187.3,187.3s187.3-84,187.3-187.3S377.3,129.3,274,129.3z"/>
	</g>
	<g>
		<path class="st1" d="M271.7,515.4c-22.8,0-42-4-55.9-8.3c-24.2-7.4-38.2-17.2-38.8-17.6l-3.5-2.4l1.5-4
			c0.3-0.7,6.9-18.2,24.1-41.4c15.7-21.3,43.7-51.6,87.7-75.3c40.3-21.7,86.6-26.3,118.3-26.3c34.2,0,58.7,5,59.7,5.2l4.9,1l-0.6,5
			c-0.2,1.8-5.7,44.7-33.7,80.3c-21,26.5-49.7,62.7-119.4,78.6C300.1,514,285.3,515.4,271.7,515.4z M187.1,482.8
			c13.4,7.8,61.4,31.6,126.5,16.8c66-15,92.2-48.1,113.2-74.7c20.6-26.2,28.3-57.6,30.6-69.7c-21-3.4-101.8-13.4-165.4,20.9
			C223.1,413.2,194.2,467.6,187.1,482.8z"/>
	</g>
	<g>
		<path class="st1" d="M179.4,490.9l-4.5-2.5c-1-0.6-25.2-14.3-49.6-41.6c-22.6-25.3-49.6-67.4-49.5-124.6
			c0.1-53.3,17.5-90.9,32.1-113.1c16-24.2,31.9-35.6,32.6-36l2.3-1.6l2.6,0.9c2.8,0.9,69.3,23.4,100.3,84.4
			c33.7,66.3,12.6,137.3,11.7,140.3l-0.5,1.7l-1.5,1.1c-0.2,0.2-22.6,16.6-36.8,35c-14.6,18.9-36.2,51.4-36.4,51.7L179.4,490.9z
			 M144.7,183.8c-4.7,3.9-16.4,14.3-27.8,31.8c-13.7,20.8-30,56.2-30,106.5c0,43,15.6,82.4,46.5,117c17.3,19.4,34.8,31.8,42.7,36.9
			c6.5-9.6,22.3-32.9,33.9-47.9c13.1-17,31.9-31.8,37.5-36c2.9-10.9,17.5-73.6-11.4-130.4C210.4,211.6,157.2,188.6,144.7,183.8z"/>
	</g>
	<g>
		<path class="st2" d="M463.7,282.4c0,0,32.5-20.3,25.7-62c-5.3-32.3-31.2-35.9-45.1-47.4c-16.6-13.7-19.4-77.1-74.3-89.4
			s-69.4,27.9-105.7,11.1c-37.1-17.1-61-19.5-81.1-8c-44,25.1-22.3,73.9-22.3,73.9s40-34.9,108-36.7S377.7,152.3,398,169
			C456.3,217,463.7,282.4,463.7,282.4z"/>
		<path class="st1" d="M459.2,291.7l-1-8.7c-0.1-0.8-8-63.9-63.7-109.8c-23.8-19.6-62.8-45.5-125.5-43.8
			c-65,1.7-104.1,35-104.5,35.4l-5.6,4.9l-3-6.8c-0.2-0.5-5.9-13.5-5.8-29.8c0.1-15.4,5.4-36.8,30.4-51.1
			c21.7-12.4,47.4-10.1,86.1,7.8c15.5,7.2,25.9,2.7,40.3-3.4c15.3-6.6,34.4-14.7,64.3-8c40.2,9,54.2,42.9,64.4,67.6
			c4.1,10,8,19.4,12.2,22.9c3.3,2.7,7.6,5.1,12.2,7.6c13.6,7.5,30.5,16.8,34.9,43.1c7.3,44.8-26.8,66.6-28.2,67.6L459.2,291.7z
			 M274.8,118.3c62.8,0,102.3,26.3,126.7,46.4c46.7,38.5,61.6,87.2,66,107.5c8.3-8,20.7-24.8,16.5-51c-3.5-21.1-16.6-28.3-29.3-35.3
			c-5-2.8-9.8-5.4-13.9-8.8c-6.4-5.2-10.3-14.9-15.4-27.2c-9.8-23.8-22-53.4-56.6-61.1c-26.4-5.9-42.3,0.9-57.6,7.4
			c-15.1,6.4-29.3,12.5-49.2,3.3c-35.6-16.4-57.6-18.8-76.1-8.2c-30.3,17.3-26.1,46.8-22.3,60.1c14-10,50.8-31.8,105.2-33.2
			C270.8,118.3,272.8,118.3,274.8,118.3z"/>
	</g>
	<g>
		<path class="st2" d="M221.6,422.8c0,0,3.8-42.4-16.2-60.7s-25.9-34.3-25.2-62.3s-15.9-43.4-35.9-47.4c-20-4-58.5-10.7-58.5-46.1
			c0-21.9,17.4-39,34.5-39s71.5,29,101.5,63.6s37.5,79.6,37.5,99.7c0,32.1-7.1,64.9-7.1,64.9L221.6,422.8z"/>
		<path class="st1" d="M221.6,428.3c-0.8,0-1.7-0.2-2.5-0.6c-2-1-3.2-3.2-3-5.4c0.1-0.6,3.3-40-14.4-56.2
			c-20.7-18.9-27.7-36.3-27-66.5c0.6-22.2-11.2-37.8-31.5-41.9l-1.6-0.3c-10.7-2.1-25.3-5-37.7-12.1c-15.7-8.9-23.6-22-23.6-39.1
			c0-23.7,18.7-44.5,40-44.5c18.9,0,74.9,30,105.7,65.5c30.7,35.4,38.8,81.6,38.8,103.3c0,32.3-6.9,64.7-7.2,66.1
			c-0.2,1.1-0.8,2.2-1.7,2.9l-30.6,27.3C224.2,427.8,222.9,428.3,221.6,428.3z M120.3,172.8c-13.7,0-29,14.3-29,33.5
			c0,27.6,27.1,35.3,52.5,40.4l1.6,0.3c20,4,41.1,20,40.3,52.9c-0.7,27.1,5,41.3,23.4,58.1c14.6,13.4,17.8,37.4,18.2,52.3l19.8-17.7
			c1.4-7.1,6.6-35,6.6-62c0-20.2-7.6-63.2-36.2-96.1C188.4,200.7,135.1,172.8,120.3,172.8z"/>
	</g>
	<g>
		<path class="st2" d="M278,377.8c0,0,23.9,23.2,44,23.8c34.9,1,31.5-21.1,52.6-21.1s26,13,45.7,19.4s39.4,14.3,58.9-4.6
			c5.8-5.6,12.7-18.5,16-27c2.9-7.5-2.1-15.7-10.1-16.6c-18.4-2.2-52.7-5.5-93.1-5.7C315.7,345.7,278,377.8,278,377.8z"/>
		<path class="st1" d="M451.8,412.6c-10.4,0-20.5-3.3-30-6.5c-1-0.3-2.1-0.7-3.1-1c-8.8-2.9-14.9-6.9-20.2-10.5
			c-7.3-4.8-13-8.7-23.8-8.7c-7,0-10.2,2.9-15,7.3c-7,6.4-15.7,14.4-37.7,13.8c-22-0.7-46.6-24.3-47.7-25.4l-4.3-4.2l4.6-3.9
			c1.6-1.4,39.8-33.1,116.5-33.1c0.4,0,0.7,0,1.1,0c41.5,0.2,76.5,3.7,93.7,5.7c5.5,0.6,10.3,3.7,13.2,8.5
			c2.9,4.7,3.4,10.4,1.4,15.6c-2.9,7.6-10.2,22.2-17.3,29C472.6,409.3,462.1,412.6,451.8,412.6z M374.6,375
			c14.1,0,22.1,5.3,29.9,10.5c5,3.3,10.2,6.8,17.5,9.2c1.1,0.3,2.1,0.7,3.2,1c18.3,6,34.1,11.2,50.2-4.4c4.9-4.8,11.5-16.7,14.7-25
			c0.8-2,0.6-4.1-0.5-5.9c-1.1-1.8-2.9-3-5.1-3.2c-17-2-51.5-5.5-92.5-5.7c-0.3,0-0.7,0-1,0c-57.1,0-91.7,18.6-104.2,26.8
			c8.6,7.2,23.5,17.5,35.4,17.9c17.5,0.5,23.6-5,30-10.9C357.4,380.4,363.3,375,374.6,375z M278,377.8L278,377.8L278,377.8z"/>
	</g>
	<g>
		<path class="st2" d="M250.5,282.4c0,0,20.1-111.1,136.5-120.3c0,0,45.2,29.5,63.3,75.8c24,61.7,13.5,112.9,13.5,112.9
			s-50.9-9.8-104-2.9c-61.8,8-105.7,42.3-105.7,42.3s5.2-24.6,5.2-59.6C259.2,311.6,250.5,282.4,250.5,282.4z"/>
		<path class="st1" d="M254.1,395.7c-1,0-2-0.3-2.9-0.8c-2-1.2-2.9-3.5-2.5-5.8c0.1-0.2,5.1-24.5,5.1-58.5
			c-0.1-18-8.5-46.3-8.6-46.6c-0.2-0.8-0.3-1.7-0.1-2.5c0.2-1.2,5.5-29.3,25.5-58.8c18.5-27.4,53.7-61.1,116-66
			c1.2-0.1,2.4,0.2,3.4,0.9c1.9,1.2,46.9,31,65.4,78.4c24.3,62.5,14.2,113.9,13.8,116c-0.6,3-3.5,4.9-6.4,4.3
			c-0.5-0.1-50.7-9.5-102.3-2.8c-59.5,7.7-102.6,40.8-103,41.2C256.5,395.3,255.3,395.7,254.1,395.7z M256.2,282.2
			c1.7,6.1,8.5,31,8.6,48.4c0,20.3-1.7,37-3.2,47.7c17-10.8,52.4-30,97.5-35.9c43.7-5.7,85.3-0.4,100.1,2
			c1.8-14.4,4.7-56.4-14-104.5c-15.4-39.4-51.8-66.6-59.7-72.1c-45.6,4.1-81.2,24.6-105.9,61C263.2,253.1,257.4,276.7,256.2,282.2z"
			/>
	</g>
	<g>
		<path class="st1" d="M259.2,336.1c-0.9,0-1.8-0.2-2.7-0.7c-2.6-1.5-3.6-4.8-2.1-7.5c0.4-0.7,10.3-18.1,31.5-36.9
			c19.5-17.2,52.8-38.9,100.5-44c3-0.3,5.7,1.9,6.1,4.9c0.3,3-1.9,5.7-4.9,6.1c-44.6,4.8-75.8,25-94.1,41
			c-19.9,17.5-29.4,34.1-29.5,34.3C263,335.1,261.1,336.1,259.2,336.1z"/>
	</g>
	<g>
		<path class="st1" d="M373.4,307.6c-1.7,0-3.4-0.8-4.5-2.3c-24.9-35.6-59.2-18.7-60.7-18c-2.7,1.4-6,0.3-7.4-2.4
			c-1.4-2.7-0.3-6,2.4-7.4c0.5-0.2,11.2-5.7,25.8-5.8c0.1,0,0.3,0,0.4,0c13.5,0,32.8,4.8,48.5,27.3c1.7,2.5,1.1,5.9-1.4,7.7
			C375.6,307.3,374.5,307.6,373.4,307.6z"/>
	</g>
	<path class="st3" d="M111.7,390.1c0,0-13.1-33.1,3.4-72c12-28.1,36.6-40.9,36.6-40.9s-17.3,25.5-28.6,53.4
		C112.3,357.4,111.7,390.1,111.7,390.1z"/>
	<path class="st3" d="M152,436.7c0,0-21.1-28.7-14.9-70.6c4.5-30.2,25-48.8,25-48.8s-10.3,29-14.1,58.9
		C144.3,405,152,436.7,152,436.7z"/>
	<path class="st3" d="M375.7,400.4c0,0-1.3,35.6-32.1,64.6c-22.3,20.9-49.9,22.7-49.9,22.7s26.1-16.4,47.6-37.4
		C362.1,430.2,375.7,400.4,375.7,400.4z"/>
	<path class="st3" d="M293.5,431.4c0,0,3.2,25.3-22.3,42.2c-18.4,12.2-44.3,10-44.3,10s22.6-8.5,40.3-20.8
		C284.3,450.9,293.5,431.4,293.5,431.4z"/>
</g>
</svg>
