<?xml version="1.0" encoding="utf-8"?>
<!-- Generator: Adobe Illustrator 26.0.3, SVG Export Plug-In . SVG Version: 6.00 Build 0)  -->
<svg version="1.1" id="Слой_1" xmlns="http://www.w3.org/2000/svg" xmlns:xlink="http://www.w3.org/1999/xlink" x="0px" y="0px"
	 viewBox="0 0 587.4 595.3" style="enable-background:new 0 0 587.4 595.3;" xml:space="preserve">
<style type="text/css">
	.st0{fill:#CCAE9D;}
	.st1{fill:#394B39;}
	.st2{fill:#D9C9C3;}
	.st3{fill:#C08C78;}
</style>
<g>
	<g>
		<path class="st0" d="M303.2,357.7c0,0,65.6,15.2,98.8-7.9c33.2-23.1,60.2-50.9,68.8-89.2c3.3-14.6,7.7-62.5-37.2-86.1
			c-34.4-18.1-71.3-10.5-89-6.3c-44.5,10.4-80.2,28.9-80.2,28.9s22.1,35.9,37.3,96.3C311.5,331.9,303.2,357.7,303.2,357.7z"/>
		<path class="st1" d="M348.5,367.6c-24.1,0-44.9-4.7-46.5-5.1l-5.3-1.2l1.7-5.2c0.1-0.5,7.7-25.3-1.5-61.6
			c-14.9-58.8-36.5-94.5-36.7-94.9l-2.8-4.6l4.8-2.5c1.5-0.8,36.8-19,81.3-29.4c15.1-3.5,55.1-12.9,92.5,6.8
			c52.5,27.6,41.2,85.1,39.7,91.6c-7.9,34.8-30.4,64.1-70.9,92.2C389.4,364.6,367.9,367.6,348.5,367.6z M309.3,353.8
			c15.6,2.9,63.9,9.8,89.8-8.1c38.3-26.6,59.5-54,66.8-86.2c1.3-5.7,11.3-56.4-34.6-80.6c-34.1-17.9-71.5-9.2-85.6-5.9
			c-34.1,8-63.3,21-74.3,26.2c6.5,11.7,22.9,44.3,35.2,92.9C314.1,321.7,311.3,344,309.3,353.8z"/>
	</g>
	<g>
		<path class="st2" d="M451.3,306.8c-5.4-39.1-24.2-67.7-87.6-87.7s-140.6-30.7-188.4-9.4c-41.1,18.4-69,47.1-71.2,77.2
			c-3.1,41.9,9.1,74.4,59.9,100.1c50.7,25.6,86.3,30.9,120.5,39.7c34.2,8.9,71.1,10.5,102.7-6.7
			C418.8,402.9,459.4,365.7,451.3,306.8z"/>
		<path class="st1" d="M331.5,438.2c-15.1,0-31.2-2.2-48.4-6.7c-6.5-1.7-12.9-3.2-19.8-4.8c-28.2-6.7-60.2-14.3-101.7-35.3
			c-47.6-24-66.3-55.4-62.6-104.9c2.3-31.2,30.1-61.6,74.1-81.3c42.3-18.9,114-15.5,192,9.1c31.1,9.8,53.2,22.3,67.7,38.1
			c12.8,14,20.2,31,23.3,53.7c3.8,27.7-2.2,53.2-18,75.8c-14.9,21.3-34.7,34.9-48.7,42.5C372.6,433.6,353.2,438.2,331.5,438.2z
			 M241.9,203c-25.5,0-47.6,3.7-64.5,11.3c-40.7,18.2-66.2,45.5-68.3,73c-3.4,45.4,13.1,73,57.1,95.2c40.5,20.5,70.5,27.6,99.5,34.5
			c6.9,1.6,13.4,3.2,20,4.9c39.3,10.2,72.7,8.1,99.1-6.2c21.4-11.6,70.2-45.4,61.6-108.2c-4.9-35.8-21.1-63.7-84.1-83.6
			C318.5,210,276.9,203,241.9,203z"/>
	</g>
	
		<ellipse transform="matrix(0.4687 -0.8833 0.8833 0.4687 -118.3664 313.8644)" class="st0" cx="201.8" cy="255.3" rx="10.6" ry="3.8"/>
	<ellipse transform="matrix(0.7522 -0.659 0.659 0.7522 -168.0638 343.1105)" class="st0" cx="372.1" cy="395" rx="10.6" ry="3.8"/>
	
		<ellipse transform="matrix(0.2139 -0.9768 0.9768 0.2139 122.9399 528.6631)" class="st3" cx="390" cy="187.9" rx="3.8" ry="10.6"/>
	
		<ellipse transform="matrix(9.576099e-02 -0.9954 0.9954 9.576099e-02 -157.4759 515.5157)" class="st0" cx="205" cy="344.4" rx="12" ry="4.3"/>
	<ellipse class="st0" cx="345" cy="280.8" rx="5.8" ry="12"/>
</g>
</svg>
