<?xml version="1.0" encoding="utf-8"?>
<!-- Generator: Adobe Illustrator 26.0.3, SVG Export Plug-In . SVG Version: 6.00 Build 0)  -->
<svg version="1.1" id="Слой_1" xmlns="http://www.w3.org/2000/svg" xmlns:xlink="http://www.w3.org/1999/xlink" x="0px" y="0px"
	 viewBox="0 0 587.4 595.3" style="enable-background:new 0 0 587.4 595.3;" xml:space="preserve">
<style type="text/css">
	.st0{fill:#ECC484;}
	.st1{fill:#394B39;}
	.st2{fill:#82A345;}
	.st3{fill:#5E883C;}
	.st4{fill:#C18957;}
	.st5{fill:#FEEADC;}
</style>
<g>
	<g>
		<path class="st0" d="M198.3,460.7c0,0-95-78.3-55.1-157.7c38.8-77.1,117.4-57.2,144.1-67.5c42.2-16.4,45.8-47.8,45.8-47.8
			c1.4-1.9,10.1,1.4,12.8,14.4s8.2,21.1,14.6,19.5s11.7-4.4,15.4-5.7c10.4-3.7,15.4,0.9,15.4,0.9s-25.4,23-8.1,62.3
			c16.3,36.9,83.8,97.8,43.4,162c-47.1,75-149.2,53.4-149.2,53.4s-17.1,10.6-45.4-1.3C203.7,481.1,198.3,460.7,198.3,460.7z"/>
		<path class="st1" d="M257.9,504.3c-7.7,0-17.1-1.5-28-6.1c-25.8-11-34.2-28.7-36.3-34.4c-5.2-4.5-25.6-22.9-42.4-49.3
			c-25.6-40.3-30.1-79.8-12.9-114c30.4-60.4,84.3-64.1,120-66.4c11.3-0.8,21.1-1.4,27.1-3.7c38.6-15,42.3-43,42.3-43.3
			c0.1-1,0.5-1.9,1-2.6c1.7-2.3,4.6-3.2,7.7-2.5c5.7,1.2,12.5,7.6,14.9,19c1.9,9.1,4.9,13.8,6.9,15c0.6,0.4,0.8,0.3,1,0.2
			c3.9-1,7.3-2.4,10.4-3.7c1.6-0.7,3.1-1.3,4.5-1.8c13.1-4.7,20.2,1.3,20.9,2c1.1,1,1.8,2.5,1.8,4.1c0,1.5-0.7,3-1.8,4.1
			c-0.9,0.8-22.2,21-6.8,56c3.7,8.5,10.7,18.8,18.1,29.8c24.3,36.1,57.5,85.6,24.9,137.3c-20.2,32.1-53.4,51.9-96.2,57.4
			c-27.3,3.5-50.1,0.1-56.8-1.1C275,501.8,267.9,504.3,257.9,504.3z M203.6,459.3c0.2,0.8,5.4,18.1,30.6,28.9
			c25,10.5,39.8,2,40.4,1.7c1.2-0.7,2.6-1,4-0.7c0.2,0.1,25.2,5.2,55.4,1.3c39.8-5.1,69.4-22.7,88-52.3
			c28.7-45.7-0.9-89.8-24.8-125.3c-7.6-11.4-14.9-22.1-19-31.5c-9.7-22-6.7-39.4-2.5-50.1c1.8-4.5,3.9-8.2,5.8-11.1
			c-1.1,0.2-2.3,0.5-3.7,1c-1.1,0.4-2.4,0.9-3.9,1.6c-3.3,1.4-7.3,3.1-12,4.3c-3.3,0.8-6.6,0.3-9.5-1.6
			c-6.8-4.3-10.2-14.4-11.8-22.1c-0.8-3.9-2.2-6.5-3.5-8.2c-3.5,11-14.5,32.7-47.7,45.6c-7.5,2.9-18.1,3.6-30.3,4.4
			c-35.1,2.4-83.3,5.6-110.9,60.4c-15.6,31-11.5,65.7,12.2,103c18.1,28.5,41.3,47.8,41.5,48C202.7,457.2,203.3,458.2,203.6,459.3z"
			/>
	</g>
	<g>
		<path class="st2" d="M333,187.7l12.5-99.8c0,0,2.6-4.5,17.7-0.6s12.1,12.7,12.1,12.7l-7.6,112.6c0,0,0.6,12.6-10.8,8.9
			c-11.5-3.7-10.3-23.2-14.1-27.7C338.9,189.2,333,187.7,333,187.7z"/>
		<path class="st1" d="M360.7,227.7c-1.6,0-3.4-0.3-5.5-0.9c-10.6-3.4-13.2-15.3-14.9-23.2c-0.5-2.3-1.2-5.4-1.7-6.2
			c-2.7-3.1-6.9-4.3-6.9-4.3c-2.7-0.7-4.4-3.3-4.1-6L340,87.2c0.1-0.7,0.3-1.4,0.7-2.1c1.4-2.4,6.6-7.6,23.8-3.2
			c7.4,1.9,12.3,5.2,14.8,9.8c2.1,3.9,1.7,7.4,1.3,9.1l-7.5,111.8c0,1.8-0.2,8.8-5.3,12.6C366.4,226.5,364,227.7,360.7,227.7z
			 M339,184.1c2.5,1.2,5.5,3.2,8,6.1c2.2,2.6,3,6.3,4,10.9c1.3,6.1,3,13.6,7.6,15.1c1.8,0.6,2.6,0.4,2.7,0.3c0.5-0.4,1-2.3,0.9-3.8
			c0-0.2,0-0.4,0-0.6l7.6-112.6c0-0.6,0-0.8,0.2-1.3c0.2-1.8-2.2-4.2-8.2-5.7c-6.3-1.6-9.6-1.5-11.2-1.3L339,184.1z M338.6,197.3
			L338.6,197.3L338.6,197.3z M370.1,98.2L370.1,98.2C370.1,98.2,370.1,98.2,370.1,98.2z"/>
	</g>
	<g>
		<path class="st2" d="M443,86c0,0,5.4-5.2,12.1,1.5c6.7,6.6,13.2,10.2,13.2,10.2s-12.7,42.2-30.6,66.8s-46,51.6-46,51.6
			s-8.6-5.4-26.4,5c1.4-7.1,4.7-34,4.7-34s30-31.8,47-56.7S443,86,443,86z"/>
		<path class="st1" d="M365.3,226.6c-1.1,0-2.2-0.3-3.2-1c-1.8-1.3-2.6-3.4-2.2-5.5c1.3-6.8,4.6-33.3,4.6-33.6
			c0.1-1.2,0.7-2.3,1.5-3.1c0.3-0.3,29.9-31.8,46.5-56c16.5-24.2,25.5-43.4,25.5-43.6c0.3-0.6,0.7-1.2,1.2-1.7
			c3.7-3.6,12.1-6.1,19.8,1.6c6,5.9,11.9,9.2,12,9.3c2.3,1.3,3.3,3.9,2.6,6.4c-0.5,1.8-13.2,43.4-31.4,68.5
			c-18,24.7-45.5,51.2-46.6,52.3c-1.9,1.8-4.5,2.3-6.6,0.8c-0.9-0.4-7.6-2.7-20.8,5C367.2,226.4,366.3,226.6,365.3,226.6z
			 M375.2,189.6c-0.5,4-1.7,13.9-2.9,22.1c8.2-3,14.2-2.7,17.9-1.9c7.1-7,28.6-28.7,43-48.5c14-19.2,24.9-50.3,28.5-61.2
			c-2.7-1.9-6.6-4.8-10.5-8.7c-1.9-1.9-3.2-2-3.9-1.8c-2.4,4.9-11.1,22.3-25.8,43.9C406.3,155.9,381.2,183.2,375.2,189.6z"/>
	</g>
	<g>
		<path class="st3" d="M411,95.5l-36.5,53.7L370,187c0,0,30.5-32.6,42.4-50.2s25.5-40.9,25.5-40.9l-18.8-3.8
			C416,91.5,412.8,92.8,411,95.5z"/>
		<path class="st1" d="M370,192.5c-0.8,0-1.6-0.2-2.3-0.5c-2.2-1-3.4-3.3-3.1-5.6l4.5-37.8c0.1-0.9,0.4-1.7,0.9-2.4l36.5-53.7
			c3-4.5,8.4-6.8,13.7-5.7l18.8,3.8c1.7,0.4,3.2,1.5,3.9,3.1c0.7,1.6,0.6,3.5-0.3,5c-0.1,0.2-13.8,23.7-25.7,41.2
			c-12,17.8-41.7,49.5-42.9,50.9C373,191.9,371.5,192.5,370,192.5z M379.8,151.2l-2.3,19.4c9.8-11,23.4-26.7,30.4-36.9
			c7.8-11.6,16.5-25.8,21.4-34L418,97.5c-0.9-0.2-1.9,0.2-2.4,1.1c0,0,0,0,0,0L379.8,151.2z M411,95.5L411,95.5L411,95.5z"/>
	</g>
	<path class="st4" d="M425.4,359.1c0,0,9.8,63.7-60.1,85.1c-69.9,21.5-105.4,0-105.4,0s-1,14.4-24.4,16.6
		c-20.8,2-56.6-25.7-56.6-25.7l23.1,22.5c0,0,7.7,23.3,34.7,32.5c30.3,10.3,40.6-1,40.6-1s69.3,15.5,116.9-20.8
		c44.9-34.2,39.3-53.9,40.5-70.8C435.9,380.7,425.4,359.1,425.4,359.1z"/>
	<path class="st4" d="M183.3,384.2c0,0-25.7-22.1-10.6-69.1c10.2-31.7,43.3-40.9,43.3-40.9s-33.5,19.6-39.6,47.6
		C166.9,365.5,183.3,384.2,183.3,384.2z"/>
	<path class="st4" d="M214.4,393.6c0,0-25.7-20.4-10.6-63.6c10.2-29.2,43.3-37.7,43.3-37.7s-33,18.1-39.6,43.8
		C198,373.3,214.4,393.6,214.4,393.6z"/>
	<path class="st4" d="M238.3,393.6c0,0-13.7-19.3-0.6-50.6c11.9-28.2,31.2-25.7,31.2-25.7s-16.1,2.8-27,27
		C232.6,365.3,238.3,393.6,238.3,393.6z"/>
	
		<ellipse transform="matrix(0.5829 -0.8126 0.8126 0.5829 -111.1021 413.3595)" class="st5" cx="347.1" cy="314.9" rx="12.7" ry="38.2"/>
</g>
</svg>
