<?xml version="1.0" encoding="utf-8"?>
<!-- Generator: Adobe Illustrator 26.0.3, SVG Export Plug-In . SVG Version: 6.00 Build 0)  -->
<svg version="1.1" id="Слой_1" xmlns="http://www.w3.org/2000/svg" xmlns:xlink="http://www.w3.org/1999/xlink" x="0px" y="0px"
	 viewBox="0 0 587.4 595.3" style="enable-background:new 0 0 587.4 595.3;" xml:space="preserve">
<style type="text/css">
	.st0{fill:#699659;}
	.st1{fill:#394B39;}
	.st2{fill:#54814E;}
	.st3{fill:#D9C9C3;}
</style>
<g>
	<g>
		<path class="st0" d="M209.7,513.1c0,0-66.3-159.2-52.6-313.1c48.2,200.4,98.3,313.1,98.3,313.1H209.7z"/>
		<path class="st1" d="M255.4,518.6h-45.7c-2.2,0-4.2-1.3-5.1-3.4c-0.2-0.4-16.9-40.9-31.7-99.6c-13.7-54.3-28.5-135.8-21.3-216.1
			c0.2-2.7,2.4-4.8,5.1-5c2.7-0.2,5.1,1.6,5.8,4.2c47.5,197.5,97.5,311,98,312.2c0.8,1.7,0.6,3.7-0.4,5.2
			C259,517.7,257.3,518.6,255.4,518.6z M213.4,507.6h33.7c-11.1-26.7-48.5-121.4-86.3-269.8c-0.6,66.1,11.5,130.1,22.8,175.2
			C195.8,461.2,209.2,496.8,213.4,507.6z"/>
	</g>
	<g>
		<path class="st2" d="M255.4,513.1c0,0,40.1-130.8,68.6-135.4c40.5-6.5,93,105.7,93,105.7s-43.2-153.9-93.7-150.1
			s-92.4,116.6-92.4,116.6L255.4,513.1z"/>
		<path class="st1" d="M255.4,518.6c-2.3,0-4.3-1.4-5.1-3.5l-24.5-63.2c-0.5-1.3-0.5-2.6,0-3.9c1.8-4.7,43.7-116.2,97.1-120.2
			c23.5-1.8,47.5,24.1,71.2,76.9c17.1,37.9,28.1,76.9,28.2,77.2c0.8,2.8-0.7,5.6-3.4,6.6c-2.7,1-5.7-0.2-6.9-2.8
			c-0.1-0.3-13.2-28.1-31-54.7c-22.2-33.2-42.1-50.2-56.2-47.9c-3.5,0.6-16.6,7-40.8,66.1c-13.3,32.7-23.3,65.2-23.4,65.5
			c-0.7,2.2-2.7,3.8-5.1,3.9C255.5,518.6,255.5,518.6,255.4,518.6z M236.8,449.9l18.1,46.8c4.3-12.8,11-32.2,19-51.6
			c25.4-62.2,40.2-71.3,49.2-72.8c19.1-3.1,41.7,14.7,67.1,52.8c0.5,0.8,1,1.6,1.6,2.4c-2.4-6-5-12.2-7.8-18.3
			c-21-46.7-42.5-71.6-60.3-70.3c-18.7,1.4-39.7,21.1-60.7,56.9C249.1,419.4,239.5,443.1,236.8,449.9z"/>
	</g>
	<g>
		<path class="st1" d="M230.8,445.9c-2.2,0-4.3-1.3-5.1-3.5c-0.4-1.1-1.2-3,1.4-26.3c1.1-9.6,3.5-29.2,7.6-53.2
			c6.4-37,17.5-87.8,33.9-119.1c9-17.2,18.6-26.8,29.4-29.4c15.2-3.6,38,8.6,69.6,37.1c22.5,20.2,41.3,41.6,41.5,41.8
			c2,2.3,1.8,5.8-0.5,7.8c-2.3,2-5.8,1.8-7.8-0.5c-27.8-31.7-79.6-80.3-100.3-75.5c-17.1,4-34.7,42.6-48.4,105.7
			c-11.1,51.3-16.3,102.2-16,108.4c0.5,2.6-0.9,5.2-3.4,6.2C232.1,445.8,231.5,445.9,230.8,445.9z"/>
	</g>
	<g>
		<path class="st3" d="M445.3,324.6c10,14.2,5.9,34.3,5.9,34.3s-20.3-2.9-30.3-17.1s-5.9-34.3-5.9-34.3S435.3,310.4,445.3,324.6z"/>
		<path class="st1" d="M451.2,364.4c-0.3,0-0.5,0-0.8-0.1c-0.9-0.1-22.8-3.4-34-19.4c-11.2-16-7-37.7-6.8-38.6
			c0.6-2.9,3.3-4.8,6.2-4.3c0.9,0.1,22.8,3.4,34,19.4c11.2,16,7,37.7,6.8,38.6C456.1,362.6,453.8,364.4,451.2,364.4z M419.8,314.2
			c-0.4,6.3,0.1,16.6,5.6,24.4c5.5,7.9,15,11.8,21,13.5c0.4-6.3-0.1-16.6-5.6-24.4C435.3,319.9,425.8,316,419.8,314.2z"/>
	</g>
	<g>
		<path class="st3" d="M430.8,257.5c16.6,5,25.9,23.3,25.9,23.3s-17.8,10.3-34.4,5.4s-25.9-23.3-25.9-23.3S414.1,252.6,430.8,257.5z
			"/>
		<path class="st1" d="M431.9,293c-3.6,0-7.4-0.4-11.1-1.5c-18.7-5.5-28.8-25.3-29.3-26.1c-1.3-2.6-0.4-5.8,2.1-7.2
			c0.8-0.5,20-11.4,38.7-5.9c0,0,0,0,0,0c18.6,5.6,28.8,25.2,29.2,26.1c1.3,2.6,0.4,5.8-2.1,7.3C458.8,285.9,446.4,293,431.9,293z
			 M404.3,265.3c3.6,5.2,10.4,13,19.5,15.7c9.1,2.7,19-0.1,24.9-2.5c-3.6-5.1-10.4-12.9-19.5-15.7
			C420,260.1,410.2,262.9,404.3,265.3z"/>
	</g>
	<g>
		<path class="st3" d="M391.8,310.6c3.5,17-8.3,33.8-8.3,33.8s-17.5-10.8-21-27.8s8.3-33.8,8.3-33.8S388.3,293.6,391.8,310.6z"/>
		<path class="st1" d="M383.5,349.9c-1,0-2-0.3-2.9-0.8c-0.8-0.5-19.6-12.3-23.5-31.4c-3.9-19.1,8.6-37.3,9.2-38.1
			c1.7-2.4,4.9-3,7.4-1.5c0.8,0.5,19.6,12.3,23.5,31.4c3.9,19.1-8.6,37.3-9.2,38.1C386.9,349.1,385.2,349.9,383.5,349.9z
			 M372.5,290.9c-2.8,5.6-6.5,15.2-4.6,24.6c1.9,9.4,9.1,16.8,13.9,20.8c2.8-5.6,6.5-15.2,4.6-24.6
			C384.5,302.3,377.3,294.9,372.5,290.9z"/>
	</g>
	<g>
		<path class="st3" d="M353.7,289.2c-2,17.2-18.4,29.5-18.4,29.5S322,303.1,324,285.8c2-17.2,18.4-29.5,18.4-29.5
			S355.7,272,353.7,289.2z"/>
		<path class="st1" d="M335.3,324.2c-1.6,0-3.1-0.7-4.2-1.9c-0.6-0.7-14.8-17.6-12.6-37.1c2.2-19.3,19.8-32.7,20.6-33.3
			c2.3-1.7,5.6-1.4,7.5,0.8c0.6,0.7,14.8,17.7,12.6,37.1c-2.2,19.3-19.8,32.7-20.6,33.3C337.6,323.8,336.5,324.2,335.3,324.2z
			 M341.5,264.5c-4.4,4.5-10.9,12.4-12,21.9c-1.1,9.5,3.4,18.7,6.8,24.1c4.4-4.5,10.9-12.5,12-21.9
			C349.3,279.1,344.8,269.9,341.5,264.5z"/>
	</g>
	<g>
		<path class="st3" d="M314.4,268c-4.1,14.3-19.8,22.3-19.8,22.3s-9-15.1-4.8-29.4c4.1-14.3,19.8-22.3,19.8-22.3
			S318.5,253.7,314.4,268z"/>
		<path class="st1" d="M294.6,295.8c-1.9,0-3.7-1-4.7-2.7c-0.4-0.7-10.2-17.4-5.4-33.8c4.7-16.4,21.9-25.3,22.6-25.7
			c2.6-1.3,5.8-0.4,7.2,2.1c0.4,0.7,10,17.3,5.3,33.7v0c-4.7,16.4-21.9,25.3-22.6,25.7C296.3,295.6,295.4,295.8,294.6,295.8z
			 M307.3,246.6c-4.3,3.2-10.1,8.6-12.2,15.8c-2.1,7.2-0.1,14.9,1.8,19.9c4.3-3.2,10.1-8.6,12.2-15.8
			C311.2,259.3,309.2,251.6,307.3,246.6z M314.4,268L314.4,268L314.4,268z"/>
	</g>
	<g>
		<path class="st3" d="M394.7,217.6c17.2-1.9,32.9,11.4,32.9,11.4s-12.3,16.4-29.6,18.3s-32.9-11.4-32.9-11.4
			S377.5,219.5,394.7,217.6z"/>
		<path class="st1" d="M394.6,253c-17.7,0-32.4-12.3-33-12.9c-2.2-1.9-2.6-5.2-0.8-7.5c0.6-0.7,14.1-18.3,33.4-20.4l0,0
			c19.3-2.1,36.3,12.1,37.1,12.7c2.2,1.9,2.6,5.2,0.8,7.5c-0.6,0.7-14,18.3-33.4,20.5C397.2,252.9,395.9,253,394.6,253z M373.3,235
			c5.3,3.3,14.6,7.9,24.1,6.8c9.5-1,17.5-7.5,22-11.9c-5.3-3.3-14.6-7.9-24.1-6.9l0,0C385.8,224.1,377.8,230.6,373.3,235z"/>
	</g>
	<g>
		<path class="st3" d="M351.8,186.1c16-6.7,34.8,1.7,34.8,1.7s-7.2,19.2-23.2,25.9s-34.8-1.7-34.8-1.7S335.8,192.8,351.8,186.1z"/>
		<path class="st1" d="M349.5,221.8c-12.3,0-22.6-4.5-23.2-4.8c-2.7-1.2-3.9-4.2-2.9-7c0.3-0.9,8.2-21.5,26.2-29l0,0
			c18-7.5,38.3,1.4,39.2,1.8c2.7,1.2,3.9,4.2,2.9,7c-0.3,0.9-8.2,21.5-26.2,29C360.2,221,354.7,221.8,349.5,221.8z M336.2,208.8
			c6.1,1.7,16.2,3.5,25.1-0.2c8.9-3.7,14.7-12.1,17.7-17.6c-6.1-1.7-16.2-3.5-25.1,0.2l0,0C345.1,194.9,339.3,203.3,336.2,208.8z"/>
	</g>
	<g>
		<path class="st3" d="M288.2,96.5c13.1-8.3,30.8-3.8,30.8-3.8s-3.4,18-16.5,26.3s-30.8,3.8-30.8,3.8S275.1,104.8,288.2,96.5z"/>
		<path class="st1" d="M282.9,129.5c-7,0-12.1-1.3-12.6-1.4c-2.8-0.7-4.6-3.5-4-6.4c0.2-0.8,4-20.5,19-29.9
			c14.9-9.5,34.3-4.7,35.1-4.5c2.8,0.7,4.6,3.5,4,6.4c-0.2,0.8-4,20.5-19,29.9C298.1,128.3,289.7,129.5,282.9,129.5z M278.7,118.3
			c5.5,0.5,14.1,0.3,20.8-4c6.8-4.3,10.5-12,12.4-17.2c-5.5-0.5-14.1-0.3-20.8,4c0,0,0,0,0,0C284.4,105.4,280.6,113.1,278.7,118.3z
			 M288.2,96.5L288.2,96.5L288.2,96.5z"/>
	</g>
	<g>
		<path class="st3" d="M286,146c16-0.3,29.2,13.3,29.2,13.3s-12.7,14-28.7,14.3s-29.2-13.3-29.2-13.3S270,146.3,286,146z"/>
		<path class="st1" d="M286,179.1c-17.9,0-32-14.4-32.6-15c-2-2.1-2.1-5.4-0.1-7.5c0.6-0.6,14.5-15.8,32.7-16.1l0,0
			c18.2-0.3,32.6,14.3,33.2,15c2,2.1,2.1,5.4,0.1,7.5c-0.6,0.6-14.5,15.8-32.7,16.1C286.4,179.1,286.2,179.1,286,179.1z
			 M265.6,160.2c4.6,3.5,12.4,8.1,20.8,7.9c8.4-0.2,16-5,20.5-8.7c-4.6-3.5-12.4-8.1-20.8-7.9l0,0
			C277.7,151.7,270.1,156.5,265.6,160.2z M286,146L286,146L286,146z"/>
	</g>
	<g>
		<path class="st3" d="M253.7,190c12.3-4.1,25.8,3.1,25.8,3.1s-6.4,14-18.7,18.1s-25.8-3.1-25.8-3.1S241.4,194.1,253.7,190z"/>
		<path class="st1" d="M252.6,218c-10.7,0-19.7-4.7-20.2-5c-2.6-1.4-3.6-4.5-2.4-7.1c0.3-0.7,7.6-16.2,22-21l0,0c0,0,0,0,0,0
			c14.4-4.8,29.5,3.1,30.1,3.5c2.6,1.4,3.6,4.5,2.4,7.1c-0.3,0.7-7.6,16.2-22,21C259.2,217.5,255.9,218,252.6,218z M243,205.4
			c4.3,1.3,10.4,2.5,16,0.6c5.6-1.9,9.8-6.5,12.4-10.2c-4.3-1.3-10.4-2.5-16-0.6l0,0C249.9,197.1,245.6,201.7,243,205.4z M253.7,190
			L253.7,190L253.7,190z"/>
	</g>
	<g>
		<path class="st3" d="M229.7,241c7.5-10.6,22.7-12.8,22.7-12.8s3.1,15-4.4,25.7c-7.5,10.6-22.7,12.8-22.7,12.8
			S222.2,251.7,229.7,241z"/>
		<path class="st1" d="M225.3,272.2c-2.6,0-4.8-1.8-5.4-4.4c-0.1-0.7-3.5-17.5,5.3-30c0,0,0,0,0,0c8.8-12.4,25.7-15,26.4-15.1
			c2.9-0.4,5.6,1.5,6.2,4.3c0.1,0.7,3.5,17.5-5.3,30c-8.8,12.4-25.7,15-26.4,15.1C225.8,272.2,225.6,272.2,225.3,272.2z
			 M234.2,244.2c-3.4,4.9-4.1,11.1-4,15.6c4.3-1.5,9.9-4.2,13.3-9c3.4-4.8,4.1-11.1,4-15.6C243.3,236.6,237.6,239.3,234.2,244.2z"/>
	</g>
	<g>
		<path class="st3" d="M220.1,110.4c0.3-16.1,14.3-28.9,14.3-28.9s13.7,13.3,13.4,29.4s-14.3,28.9-14.3,28.9
			S219.9,126.5,220.1,110.4z"/>
		<path class="st1" d="M233.5,145.3c-1.4,0-2.8-0.5-3.8-1.6c-0.6-0.6-15.3-15.2-15.1-33.4c0,0,0,0,0,0C214.9,92,230,78,230.7,77.4
			c2.1-2,5.5-1.9,7.5,0.1c0.6,0.6,15.4,15.2,15.1,33.4c-0.3,18.3-15.4,32.3-16.1,32.9C236.2,144.8,234.8,145.3,233.5,145.3z
			 M225.6,110.5c-0.1,8.5,4.6,16.3,8,21c3.6-4.5,8.5-12.2,8.7-20.7c0.2-8.5-4.5-16.3-8-21C230.7,94.3,225.8,102,225.6,110.5z"/>
	</g>
	<g>
		<path class="st3" d="M194.5,158.4c-2.8-12.6,5.7-25.2,5.7-25.2s13.1,7.8,15.9,20.4c2.8,12.6-5.7,25.2-5.7,25.2
			S197.3,171,194.5,158.4z"/>
		<path class="st1" d="M210.4,184.3c-1,0-1.9-0.3-2.8-0.8c-0.6-0.4-15.2-9.2-18.5-23.9c-3.3-14.7,6.1-28.9,6.5-29.5
			c1.6-2.4,4.9-3.1,7.4-1.6c0.6,0.4,15.2,9.2,18.5,23.9c3.3,14.7-6.1,28.9-6.5,29.5C213.9,183.4,212.2,184.3,210.4,184.3z
			 M202.1,141.5c-1.7,4.1-3.5,10-2.2,15.7c1.3,5.7,5.4,10.3,8.7,13.3c1.7-4.1,3.5-10,2.2-15.7C209.5,149.1,205.4,144.5,202.1,141.5z
			"/>
	</g>
	<g>
		<path class="st3" d="M178.3,208.7c-2.8-12.6,5.7-25.2,5.7-25.2s13.1,7.8,15.9,20.4c2.8,12.6-5.7,25.2-5.7,25.2
			S181.1,221.3,178.3,208.7z"/>
		<path class="st1" d="M194.2,234.6c-1,0-1.9-0.3-2.8-0.8c-0.6-0.4-15.2-9.2-18.5-23.9v0c-3.3-14.7,6.1-28.9,6.5-29.5
			c1.6-2.4,4.9-3.1,7.4-1.6c0.6,0.4,15.2,9.2,18.5,23.9c3.3,14.7-6.1,28.9-6.5,29.5C197.7,233.7,196,234.6,194.2,234.6z
			 M183.7,207.5c1.3,5.7,5.4,10.3,8.7,13.3c1.7-4.1,3.5-10,2.2-15.7c-1.3-5.7-5.4-10.3-8.7-13.3
			C184.1,195.9,182.4,201.8,183.7,207.5L183.7,207.5z"/>
	</g>
	<g>
		<path class="st2" d="M196.2,475.9c0,0-66.6-32.1-74.6-119.4c-4.8-52.6,9.1-109,9.1-109s8.8,95.2,20,126.1s26.3,44,26.3,44
			L196.2,475.9z"/>
		<path class="st1" d="M196.2,481.4c-0.8,0-1.6-0.2-2.4-0.5c-0.7-0.3-17.8-8.7-35.9-28.2c-16.7-17.9-37.5-49-41.8-95.7
			c-4.8-52.9,8.7-108.5,9.2-110.8c0.6-2.6,3.1-4.4,5.8-4.2c2.7,0.2,4.8,2.3,5.1,5c0.1,0.9,8.9,94.8,19.7,124.7
			c10.5,28.9,24.6,41.6,24.7,41.7c0.7,0.6,1.3,1.5,1.6,2.4l19.2,58.3c0.7,2.1,0.1,4.4-1.6,5.9C198.8,480.9,197.5,481.4,196.2,481.4z
			 M129.4,286.4c-2.6,19.9-4.5,45.3-2.3,69.6c3.2,34.8,16.1,64.7,38.5,88.8c7.5,8.1,14.8,14.1,20.6,18.3l-14-42.5
			c-3.9-3.9-16.8-17.9-26.7-45.2C138.8,356.9,133,316.7,129.4,286.4z"/>
	</g>
	<g>
		<path class="st1" d="M214.9,409.5c-2.6,0-4.9-1.9-5.4-4.5c-0.1-0.4-6.4-35.8-7.9-80.7c-2.1-60.6,5.1-108.8,21.4-143.1
			c14.6-30.8,32.7-50.9,33.5-51.7c2-2.2,5.5-2.4,7.8-0.4c2.2,2,2.4,5.5,0.4,7.8c-0.2,0.2-17.9,19.8-31.7,49.1
			c-37.1,78.3-12.8,215.8-12.6,217.2c0.5,3-1.4,5.9-4.4,6.4C215.5,409.5,215.2,409.5,214.9,409.5z"/>
	</g>
</g>
</svg>
