<?xml version="1.0" encoding="utf-8"?>
<!-- Generator: Adobe Illustrator 26.0.3, SVG Export Plug-In . SVG Version: 6.00 Build 0)  -->
<svg version="1.1" id="Слой_1" xmlns="http://www.w3.org/2000/svg" xmlns:xlink="http://www.w3.org/1999/xlink" x="0px" y="0px"
	 viewBox="0 0 587.4 595.3" style="enable-background:new 0 0 587.4 595.3;" xml:space="preserve">
<style type="text/css">
	.st0{fill:#ECC484;}
	.st1{fill:#394B39;}
	.st2{fill:#CA9E67;}
	.st3{fill:#FEEADC;}
</style>
<g>
	<g>
		<ellipse class="st0" cx="238.1" cy="200.7" rx="154.5" ry="70.9"/>
		<path class="st1" d="M238.1,276.6c-42,0-81.5-7.5-111.3-21.2c-31.1-14.3-48.2-33.7-48.2-54.7c0-21,17.1-40.4,48.2-54.7
			c29.8-13.7,69.4-21.2,111.3-21.2c42,0,81.5,7.5,111.3,21.2c31.1,14.3,48.2,33.7,48.2,54.7s-17.1,40.4-48.2,54.7
			C319.6,269.1,280.1,276.6,238.1,276.6z M238.1,134.8c-40.6,0-78.6,7.2-107.2,20.3c-26.9,12.3-42.3,29-42.3,45.6
			s15.4,33.2,42.3,45.6c28.5,13.1,66.6,20.3,107.2,20.3s78.6-7.2,107.2-20.3c26.9-12.3,42.3-29,42.3-45.6s-15.4-33.2-42.3-45.6
			C316.7,142,278.7,134.8,238.1,134.8z"/>
	</g>
	<path class="st2" d="M237.8,266.8c82.8,0,149.9-46.8,149.9-66.2H87.9C87.9,237.2,155,266.8,237.8,266.8z"/>
	<g>
		<path class="st1" d="M151.4,258.8c-1,0-1.9-0.3-2.8-0.8c-2.3-1.5-2.9-4.6-1.4-6.9c15.6-23.3,20.4-47.8,14.5-72.7
			c-4.5-18.8-13.8-30.8-13.9-30.9c-1.7-2.2-1.3-5.3,0.9-7c2.2-1.7,5.3-1.3,7,0.8c0.4,0.5,10.6,13.6,15.6,34.3
			c4.7,19.2,5.7,48.8-15.8,81C154.6,258,153,258.8,151.4,258.8z"/>
	</g>
	<g>
		<path class="st0" d="M493.6,129.7c-37.2,0-101,30.2-101,67.4s63.8,67.4,101,67.4c0,0-33.7-24.1-33.7-67.4S493.6,129.7,493.6,129.7
			z"/>
		<path class="st1" d="M493.6,269.5c-19.7,0-46-8-67-20.4c-25.2-14.9-39-33.3-39-52s13.9-37.1,39-52c21-12.4,47.3-20.4,67-20.4
			c2.2,0,4.1,1.4,4.8,3.5c0.7,2.1-0.1,4.3-1.8,5.6c-0.4,0.3-31.6,23.3-31.6,63.3c0,40.1,31.3,63.1,31.6,63.3
			c1.8,1.3,2.5,3.5,1.8,5.6C497.7,268.1,495.8,269.5,493.6,269.5z M479.4,136c-35.7,5.9-81.8,32-81.8,61.1s46.1,55.2,81.8,61.1
			c-10.5-11.4-24.5-32.1-24.5-61.1C454.9,168.1,468.9,147.4,479.4,136z"/>
	</g>
	<g>
		<circle class="st0" cx="134.8" cy="192.9" r="10.1"/>
		<path class="st1" d="M134.8,208c-8.3,0-15.1-6.8-15.1-15.1s6.8-15.1,15.1-15.1s15.1,6.8,15.1,15.1S143.1,208,134.8,208z
			 M134.8,187.8c-2.8,0-5.1,2.3-5.1,5.1s2.3,5.1,5.1,5.1s5.1-2.3,5.1-5.1S137.6,187.8,134.8,187.8z"/>
	</g>
	<path class="st2" d="M455.2,200.7h-57.7c4.5,31.1,59.5,57.9,83,57.9C480.5,258.6,456.9,236.4,455.2,200.7z"/>
	<path class="st3" d="M222.2,143.7c0,0,31-4.6,75.9,8.2c32.8,9.4,46.5,22.1,46.5,22.1s-22.3-10.7-54.8-18.4
		C257.8,147.9,222.2,143.7,222.2,143.7z"/>
</g>
<g>
	<g>
		<ellipse class="st0" cx="339.1" cy="363.7" rx="154.5" ry="70.9"/>
		<path class="st1" d="M339.1,439.6c-42,0-81.5-7.5-111.3-21.2c-31.1-14.3-48.2-33.7-48.2-54.7s17.1-40.4,48.2-54.7
			c29.8-13.7,69.4-21.2,111.3-21.2s81.5,7.5,111.3,21.2c31.1,14.3,48.2,33.7,48.2,54.7s-17.1,40.4-48.2,54.7
			C420.6,432.1,381.1,439.6,339.1,439.6z M339.1,297.8c-40.6,0-78.6,7.2-107.2,20.3c-26.9,12.3-42.3,29-42.3,45.6
			c0,16.6,15.4,33.2,42.3,45.6c28.5,13.1,66.6,20.3,107.2,20.3s78.6-7.2,107.2-20.3c26.9-12.3,42.3-29,42.3-45.6
			c0-16.6-15.4-33.2-42.3-45.6C417.7,305,379.7,297.8,339.1,297.8z"/>
	</g>
	<path class="st2" d="M339.4,429.8c-82.8,0-149.9-46.8-149.9-66.2h299.8C489.3,400.2,422.2,429.8,339.4,429.8z"/>
	<g>
		<path class="st1" d="M425.8,421.8c-1.6,0-3.2-0.8-4.2-2.2c-21.5-32.2-20.5-61.9-15.8-81c5.1-20.8,15.2-33.8,15.6-34.3
			c1.7-2.2,4.9-2.5,7-0.8c2.2,1.7,2.5,4.8,0.8,7l0,0c-0.1,0.1-9.4,12.2-13.9,30.9c-6,24.9-1.1,49.4,14.5,72.7
			c1.5,2.3,0.9,5.4-1.4,6.9C427.7,421.5,426.8,421.8,425.8,421.8z"/>
	</g>
	<g>
		<path class="st0" d="M83.5,292.7c37.2,0,101,30.2,101,67.4s-63.8,67.4-101,67.4c0,0,33.7-24.1,33.7-67.4S83.5,292.7,83.5,292.7z"
			/>
		<path class="st1" d="M83.5,432.5c-2.2,0-4.1-1.4-4.8-3.5c-0.7-2.1,0.1-4.3,1.9-5.6c0.3-0.2,31.6-23.2,31.6-63.3
			c0-40.1-31.3-63.1-31.6-63.3c-1.8-1.3-2.5-3.5-1.8-5.6c0.7-2.1,2.6-3.5,4.8-3.5c19.7,0,46,8,67,20.4c25.2,14.9,39,33.3,39,52
			s-13.9,37.1-39,52C129.5,424.5,103.2,432.5,83.5,432.5z M97.7,299c10.5,11.4,24.5,32.1,24.5,61.1s-14,49.7-24.5,61.1
			c35.7-5.9,81.8-32,81.8-61.1S133.4,304.9,97.7,299z"/>
	</g>
	<g>
		<circle class="st0" cx="442.4" cy="355.9" r="10.1"/>
		<path class="st1" d="M442.4,371c-8.3,0-15.1-6.8-15.1-15.1s6.8-15.1,15.1-15.1s15.1,6.8,15.1,15.1S450.7,371,442.4,371z
			 M442.4,350.8c-2.8,0-5.1,2.3-5.1,5.1c0,2.8,2.3,5.1,5.1,5.1c2.8,0,5.1-2.3,5.1-5.1C447.5,353.1,445.2,350.8,442.4,350.8z"/>
	</g>
	<path class="st2" d="M121.9,363.7h57.7c-4.5,31.1-59.5,57.9-83,57.9C96.6,421.6,120.2,399.4,121.9,363.7z"/>
	<path class="st3" d="M355,306.7c0,0-31-4.6-75.9,8.2c-32.8,9.4-46.5,22.1-46.5,22.1s22.3-10.7,54.8-18.4
		C319.3,310.9,355,306.7,355,306.7z"/>
</g>
</svg>
