<?xml version="1.0" encoding="utf-8"?>
<!-- Generator: Adobe Illustrator 26.0.3, SVG Export Plug-In . SVG Version: 6.00 Build 0)  -->
<svg version="1.1" id="Слой_1" xmlns="http://www.w3.org/2000/svg" xmlns:xlink="http://www.w3.org/1999/xlink" x="0px" y="0px"
	 viewBox="0 0 587.4 595.3" style="enable-background:new 0 0 587.4 595.3;" xml:space="preserve">
<style type="text/css">
	.st0{fill:#FEEADC;}
	.st1{fill:#394B39;}
	.st2{fill:#CCAE9D;}
</style>
<g>
	<g>
		<path class="st0" d="M226.9,191.2c0,0,29.2-11.2,58.4-11.2s58.9,14.3,58.9,14.3s8.1-24.8,20.5-48.4s26.9-35.4,52.2-42.2
			c25.3-6.8,78.9-11.2,78.9-11.2s-7,34.1-7,72s-3.3,66.6-26.7,81.9c-15.3,10-33.3,18.9-38.3,31.4c-3.1,7.9,17.6,84.4,10.3,118.7
			c-10.3,48.8-46.7,72-72.8,81.1c-24.6,8.6-22.8,24.4-66.2,24.4c-49.6,0-72-27-72-27s-55.2-5.3-72.6-48.1s-10.5-73.8,0-102.4
			s14.7-46.3,9.7-51.3s-24.8,3.5-42.6-5.2c-21.5-10.5-40.3-42.8-32.3-76.9s-2.1-75.8-3.7-80.9c-3.3-10.2,24.4,0.2,55.8,6.6
			c28.5,5.8,54.6,18.6,69.9,37.6C220.9,171.3,226.9,191.2,226.9,191.2z"/>
		<path class="st1" d="M295.1,507.5c-44.9,0-68.6-21-74.7-27.3c-10.9-1.5-58.4-10.3-75-51.2c-18.1-44.4-10.7-77.4-0.1-106.4
			c13.1-35.7,12-43.7,11.1-45.4c-1.5-0.4-5.7-0.2-8.9,0c-8.8,0.6-20.7,1.3-32.3-4.3c-23.6-11.5-43.8-46.6-35.2-83.1
			c7.4-31.5-1.5-71.4-3.6-78c-1.4-4.4,0.4-7.2,1.5-8.5c4.8-5.1,14-3.1,36.3,2.4c7.4,1.8,15.8,3.9,24.3,5.6
			c31.8,6.5,57.8,20.5,73.1,39.5c9.9,12.3,15.9,25.9,18.7,33.2c10-3.3,32.3-9.7,55-9.7c22.8,0,45.4,8.1,55.7,12.4
			c3.1-8.8,9.9-26.4,18.9-43.5c13.2-25.1,28.8-37.7,55.6-45c25.5-6.9,77.7-11.2,79.9-11.4c1.7-0.1,3.4,0.5,4.6,1.8
			c1.1,1.3,1.6,3.1,1.3,4.8c-0.1,0.3-6.9,34-6.9,70.9c0,35.5-2.2,68.9-29.2,86.5c-3,2-6.1,3.9-9.1,5.8c-11.5,7.1-23.5,14.5-27,22.8
			c-0.4,3.1,1.9,16.5,3.9,28.3c4.8,28.3,11.4,67,6.6,89.7c-12,57-57.4,78.5-76.4,85.1c-7.9,2.8-12.7,6.3-17.8,10
			C335.3,500,325,507.5,295.1,507.5z M153.4,266c4.4,0,8,0.7,10.7,3.3c6.8,6.8,4.6,21.7-8.4,57.1c-9.2,25.1-17.6,55.4-0.1,98.4
			c15.9,39.1,67.5,44.6,68,44.7c1.4,0.1,2.8,0.8,3.7,2c0.2,0.2,21.6,25,67.8,25c26.4,0,34.4-5.8,43.7-12.6
			c5.3-3.8,11.3-8.2,20.7-11.5c17.2-6,58.4-25.5,69.2-77c4.4-20.7-2.3-59.7-6.7-85.6c-3.8-22.4-4.9-30-3.4-34
			c4.7-11.8,18.3-20.2,31.5-28.4c3-1.8,6-3.7,8.9-5.6c20.2-13.2,24.2-38.4,24.2-77.3c0-28.1,3.7-53.8,5.8-65.9
			c-15.4,1.5-51.7,5.3-70.8,10.4c-23.8,6.4-37,17.1-48.8,39.4c-12,22.9-20.1,47.3-20.1,47.5c-0.5,1.5-1.6,2.7-3.1,3.4
			c-1.5,0.6-3.1,0.6-4.5-0.1c-0.3-0.1-29-13.8-56.5-13.8c-27.8,0-56.1,10.7-56.4,10.8c-1.4,0.5-3,0.5-4.4-0.2
			c-1.4-0.7-2.4-1.9-2.8-3.3l0,0c-0.1-0.2-5.9-19.1-18.6-34.9c-13.5-16.8-37.8-29.8-66.7-35.7c-8.8-1.8-17.2-3.9-24.7-5.7
			c-8.5-2.1-18.8-4.6-23.9-5c3.3,12.7,10.2,50.1,3,80.9c-7.3,31.2,9.5,61,29.4,70.7c8.9,4.4,18.8,3.7,26.8,3.2
			C149.2,266.1,151.4,266,153.4,266z"/>
	</g>
	<g>
		<path class="st1" d="M289.6,474.1c-23,0-33.2-13.5-33.6-14c-1.8-2.4-1.3-5.9,1.2-7.7c2.4-1.8,5.9-1.3,7.7,1.1
			c0.4,0.5,7.7,9.6,24.8,9.6c17.9,0,27-7.6,27.4-7.9c2.3-2,5.8-1.7,7.7,0.5c2,2.3,1.8,5.7-0.5,7.7
			C323.8,463.9,311.9,474.1,289.6,474.1z"/>
	</g>
	<g>
		<path class="st1" d="M352.2,306.5c-0.4,0-0.7,0-1.1-0.1c-3-0.6-4.9-3.4-4.3-6.4c0.1-0.3,7.9-33.7,25.9-34.3
			c14.7-0.5,20.6,12.5,21.7,19.3c0.5,3-1.6,5.8-4.6,6.3c-3,0.5-5.8-1.6-6.3-4.6c-0.2-1-2-10.1-10.2-10.1c-0.1,0-0.2,0-0.3,0
			c-6.7,0.2-14,18.1-15.5,25.4C357.1,304.6,354.8,306.5,352.2,306.5z"/>
	</g>
	<g>
		<path class="st1" d="M226.9,300.7c-2.3,0-4.4-1.5-5.2-3.8c-0.3-0.8-0.3-1.5-0.4-2.8c-0.3-4.2-1.3-16.9-8.7-21.2
			c-4.3-2.5-7.9-3.3-10.8-2.3c-4.1,1.4-6.1,6-6.1,6c-1.1,2.8-4.3,4.2-7.1,3.1c-2.8-1.1-4.2-4.3-3.1-7.1c0.4-0.9,3.9-9.3,12.7-12.3
			c6.1-2.1,12.8-1,20,3.2c12.4,7.3,13.7,24.3,14.1,29.9c0,0.4,0,0.6,0.1,0.9c0.5,2.7-1,5.4-3.7,6.3
			C228.1,300.6,227.5,300.7,226.9,300.7z M232.1,293.5C232.1,293.5,232.1,293.5,232.1,293.5C232.1,293.5,232.1,293.5,232.1,293.5z"
			/>
	</g>
	<g>
		<path class="st2" d="M289.1,439.2c11.3,1.2,34.4,9.9,52.2,0s25.6-27.3,19-51.3s-23.2-53.8-69.1-53.8s-69.1,34.3-72.4,57.1
			s3.1,32.8,18.6,42.6C259,447.5,289.1,439.2,289.1,439.2z"/>
		<path class="st1" d="M321.1,449.4c-8.8,0-17.3-1.8-23.9-3.1c-3-0.6-5.6-1.2-7.7-1.4c-5.9,1.4-33.8,7.1-55-6.3
			c-15.9-10-24.9-21.6-21.1-48c3.5-23.9,27.7-61.8,77.8-61.8c38.3,0,64,20,74.4,57.8c7,25.5-0.7,45.9-21.6,57.6
			C336.7,448,328.8,449.4,321.1,449.4z M289.1,433.7c0.2,0,0.4,0,0.6,0c2.8,0.3,6,1,9.7,1.7c11.5,2.4,27.2,5.6,39.2-1.1
			c16.3-9.1,22-24.6,16.4-45c-9.1-33-30.5-49.8-63.8-49.8c-43.3,0-64,32.1-67,52.4c-3,21,2.8,28.7,16.1,37.2
			c19.2,12.2,47,4.8,47.3,4.7C288.1,433.8,288.6,433.7,289.1,433.7z"/>
	</g>
	<g>
		<path class="st1" d="M330.8,416.8c-1.8,0-3.9-0.3-6.3-0.9c-3.6-0.9-6.4-3.2-8.1-6.5c-5.7-10.7,1.2-31,2.6-35c1-2.9,4.2-4.3,7-3.3
			c2.9,1,4.3,4.2,3.3,7c-0.9,2.6-1.9,5.8-2.6,9c4.1,0.5,9.2,2.7,13.4,8.7c4,5.7,4.6,11.6,1.7,15.9
			C340.6,413.5,337.4,416.8,330.8,416.8z M325.1,398.1c-0.1,2.6,0.2,4.8,1,6.2c0.4,0.7,0.7,0.9,1.1,1c3.2,0.8,4.9,0.5,5.5,0.2
			c0-0.5-0.3-1.6-1.5-3.3C328.7,398.8,326.3,398.1,325.1,398.1z"/>
	</g>
	<g>
		<path class="st1" d="M259.4,414.2c-6.7,0-9.8-3.3-11-5.1c-3-4.3-2.3-10.3,1.7-15.9c4.2-6,9.3-8.2,13.4-8.7c-0.8-3.2-1.7-6.4-2.6-9
			c-1-2.9,0.5-6,3.3-7c2.9-1,6,0.4,7,3.3c1.4,4,8.3,24.3,2.6,35c-1.8,3.3-4.6,5.6-8.1,6.5C263.4,413.9,261.3,414.2,259.4,414.2z
			 M257.6,402.9c0.5,0.2,2.3,0.6,5.5-0.2c0.4-0.1,0.7-0.2,1.1-1c0.8-1.4,1-3.6,1-6.2c-1.2,0-3.6,0.6-6,4.1
			C257.9,401.3,257.6,402.4,257.6,402.9z"/>
	</g>
	<path class="st1" d="M364,302.7c0,0,7.6,0.4,12.2-1.7s5-8.7,5-8.7s-4.1-8.7-10.5-3.3C364.2,294.4,364,302.7,364,302.7z"/>
	<path class="st1" d="M215.3,297.3c0,0-0.4-12.4-6.6-14.1c-6.2-1.7-11.2,2.9-11.2,2.9s3.7,5,7,9.1S215.3,297.3,215.3,297.3z"/>
	<g>
		<path class="st1" d="M190.5,221.7c-0.4,0-0.9-0.1-1.3-0.2c-2.9-0.7-4.7-3.7-4-6.7c0.3-1.1,6.2-26.5-13.3-44.2
			c-21.1-19.1-64.3-30.5-64.7-30.7c-2.9-0.8-4.7-3.8-3.9-6.7c0.8-2.9,3.8-4.7,6.7-3.9c1.9,0.5,46.3,12.3,69.3,33.1
			c24.5,22.2,16.9,53.7,16.5,55C195.2,220,193,221.7,190.5,221.7z"/>
	</g>
	<path class="st2" d="M381.4,215.6l25.9,7.2c25.1,13.7,7.7-81.6,57.6-106.3c7-3.5-17.9-5-25.5-3.2c-17.1,4-31.6,14.1-46.9,38.6
		C374.2,181.2,381.4,215.6,381.4,215.6z"/>
	<g>
		<path class="st1" d="M384.1,216.3c-2.8,0-5.2-2.2-5.5-5.1c-0.1-1.3-2.5-32.8,8.4-55c10.2-20.9,29.6-39.4,47.2-45
			c2.9-0.9,6,0.7,6.9,3.6c0.9,2.9-0.7,6-3.6,6.9c-12.3,3.9-30.7,19-40.6,39.4c-9.6,19.5-7.4,49-7.4,49.2c0.2,3-2,5.7-5,5.9
			C384.4,216.3,384.2,216.3,384.1,216.3z"/>
	</g>
	<path class="st2" d="M256.9,302.7c0,0,12.6-8.3,33.6-7.5s33.4,5.8,33.4,5.8L256.9,302.7z"/>
	<path class="st2" d="M242,280.7c0,0,1.2,18.5,0,32.7c-1.2,14.3-5,27.3-5,27.3s10.5-15.4,11.2-30C248.8,296,242,280.7,242,280.7z"/>
	<ellipse class="st2" cx="394.1" cy="370.1" rx="21.5" ry="26.4"/>
	<ellipse class="st2" cx="181.6" cy="370.1" rx="21.5" ry="26.4"/>
	<path class="st2" d="M185.4,223.7l-5.2,2.6c-9.5,4.7-21,1.8-27.1-6.9c-3.5-5-6.9-21.4-12.4-30.6c-18.7-31.2-29.5-32.9-35.8-43.4
		c-1.7-2.8,1-6.2,4.1-5.2c14.7,4.4,44.7,14.4,61.4,27.3c19.7,15.2,17.8,45.6,16.9,53.6C187.2,222.1,186.5,223.1,185.4,223.7z"/>
</g>
</svg>
