<?xml version="1.0" encoding="utf-8"?>
<!-- Generator: Adobe Illustrator 26.0.3, SVG Export Plug-In . SVG Version: 6.00 Build 0)  -->
<svg version="1.1" id="Слой_1" xmlns="http://www.w3.org/2000/svg" xmlns:xlink="http://www.w3.org/1999/xlink" x="0px" y="0px"
	 viewBox="0 0 587.4 595.3" style="enable-background:new 0 0 587.4 595.3;" xml:space="preserve">
<style type="text/css">
	.st0{fill:#699659;}
	.st1{fill:#394B39;}
	.st2{fill:#5E883C;}
	.st3{fill:#C08C78;}
	.st4{fill:#AA7367;}
	.st5{fill:#CCAE9D;}
</style>
<g>
	<g>
		<path class="st0" d="M323.4,232.9c1.1-1.1,17.1-18.9,53-42.9s49.9-68.3,49.9-68.3l13.7,25.9c0,0-20.6,39.3-51,64.7
			c-23.7,19.7-36.6,46.1-36.6,46.1L323.4,232.9z"/>
		<path class="st1" d="M352.4,263.9c-1.3,0-2.6-0.5-3.6-1.4l-29-25.5c-1.1-1-1.8-2.4-1.9-4c0-1.5,0.5-3,1.6-4.1l0.3-0.3
			c5.8-6.1,22.7-22.7,53.6-43.3c33.8-22.6,47.6-65,47.7-65.4c0.7-2.1,2.5-3.6,4.8-3.8c2.2-0.2,4.3,0.9,5.4,2.9l13.7,25.9
			c0.8,1.6,0.9,3.5,0,5.1c-0.9,1.6-21.5,40.6-52.3,66.4c-22.5,18.7-35.1,44-35.2,44.3c-0.8,1.5-2.2,2.6-3.9,3
			C353.1,263.9,352.8,263.9,352.4,263.9z M331.4,232.6l19.5,17.1c5.4-9.3,17.1-27.1,34.6-41.7c24.8-20.8,43.2-51.6,48.3-60.5
			l-6.7-12.7c-6.8,15.3-21.6,42.3-47.6,59.7C354.4,211.3,339,225.1,331.4,232.6z"/>
	</g>
	<g>
		<path class="st2" d="M374.1,228.3c9.5-8.4,24.7-9.1,40.7-17.4s33.7-30,33.7-30l7.5,16.9c0,0-16.1,27.5-51.2,46
			c-16.4,8.6-52.4,14.6-52.4,14.6L374.1,228.3z"/>
		<path class="st1" d="M352.4,263.9c-1.9,0-3.7-1-4.7-2.6c-1.2-1.9-1.1-4.3,0.2-6.1l21.7-30.1c0.2-0.3,0.5-0.6,0.8-0.9
			c6.2-5.5,14.2-8,22.6-10.7c6.2-2,12.6-4,19.2-7.4c14.8-7.7,31.8-28.4,32-28.6c1.2-1.5,3.1-2.2,5-2c1.9,0.3,3.5,1.5,4.3,3.2
			l7.5,16.9c0.7,1.6,0.6,3.5-0.3,5c-0.7,1.2-17.3,29.1-53.4,48.1c-17,8.9-52.6,14.9-54.1,15.2C353,263.9,352.7,263.9,352.4,263.9z
			 M378.2,232L365,250.4c11.6-2.5,28-6.6,37.3-11.4c27.4-14.4,42.9-34.8,47.5-41.6L447,191c-6.8,7.4-18.4,19-29.6,24.8
			c-7.4,3.8-14.6,6.1-20.9,8.1C389.1,226.3,382.7,228.3,378.2,232z"/>
	</g>
	<g>
		<path class="st0" d="M306.7,223.3c0,0,6.5-14.9,25.2-38.1s26.8-40.8,26.8-40.8l15.5,9.5c0,0-17.9,24.4-24.8,38.5
			s-10.3,25.1-10.3,25.1l-17.7,17.3L306.7,223.3z"/>
		<path class="st1" d="M321.4,240.3c-1.2,0-2.4-0.4-3.4-1.2l-14.7-11.5c-2-1.5-2.7-4.2-1.7-6.5c0.3-0.6,7-15.8,26-39.4
			c18-22.3,26-39.5,26.1-39.7c0.7-1.4,1.9-2.5,3.4-3c1.5-0.5,3.1-0.2,4.5,0.6l15.5,9.5c1.3,0.8,2.2,2.1,2.5,3.6
			c0.3,1.5-0.1,3.1-1,4.3c-0.2,0.2-17.7,24.2-24.3,37.7c-6.6,13.5-10,24.2-10,24.3c-0.3,0.9-0.8,1.7-1.4,2.3l-17.7,17.3
			C324.2,239.8,322.8,240.3,321.4,240.3z M313.6,221.7l7.4,5.8l13.3-13c1.1-3.4,4.5-12.9,10.2-24.5c5.2-10.6,16.2-26.5,21.8-34.5
			l-5.4-3.3c-3.9,7.1-11.8,20.4-24.7,36.5C323.6,204.3,316.7,216,313.6,221.7z"/>
	</g>
	<g>
		<path class="st0" d="M372.5,286.5c0,0,7.1-7.7,29.3-19.2c28.3-14.7,41.6-25,54.1-36.7c11.7-10.8,38.4-30.1,38.4-30.1l-23.6-10.3
			c0,0-50.1,49.5-72.7,56.4c-22.6,6.9-47.7,14.6-47.7,14.6L372.5,286.5z"/>
		<path class="st1" d="M372.5,292c0,0-0.1,0-0.1,0c-1.5,0-3-0.7-4-1.9l-22.2-25.3c-1.2-1.4-1.7-3.3-1.2-5.1c0.5-1.8,1.9-3.2,3.7-3.8
			c0,0,25.1-7.7,47.7-14.6c17.5-5.3,56.8-41.5,70.4-55.1c1.6-1.6,4-2,6.1-1.1l23.6,10.3c1.8,0.8,3.1,2.5,3.3,4.5
			c0.2,2-0.6,3.9-2.2,5c-0.3,0.2-26.6,19.2-37.9,29.7c-13.1,12.2-26.9,22.8-55.3,37.5c-20.7,10.7-27.8,18-27.8,18.1
			C375.5,291.4,374,292,372.5,292z M360,264l13,14.8c4.5-3.6,12.7-9.3,26.3-16.3c27.3-14.2,40.5-24.2,52.9-35.8
			c8-7.3,22.3-18.3,31.2-24.9l-11.5-5c-10.9,10.5-51.5,48.8-72.3,55.1C385,256.3,369.3,261.1,360,264z"/>
	</g>
	<g>
		<path class="st2" d="M308.9,218.9c0,0-9.1-20-6.8-33.3s11.8-27,11.8-27l15.7,4.9l-5.4,28.1L308.9,218.9z"/>
		<path class="st1" d="M308.9,224.4c-0.1,0-0.2,0-0.2,0c-2.1-0.1-3.9-1.3-4.8-3.2c-0.4-0.9-9.8-21.7-7.2-36.5
			c2.5-14.3,12.3-28.6,12.7-29.2c1.4-2,3.9-2.8,6.2-2.1l15.7,4.9c2.7,0.8,4.3,3.5,3.8,6.3l-5.4,28.1c-0.1,0.6-0.3,1.1-0.6,1.7
			l-15.3,27.3C312.7,223.3,310.9,224.4,308.9,224.4z M316.3,165.1c-2.8,4.6-7.4,13.2-8.8,21.4c-0.9,5.5,0.5,12.9,2.4,19.2l9-16.1
			l4.3-22.4L316.3,165.1z"/>
	</g>
	<g>
		<path class="st2" d="M372.5,286.5c-0.2-0.4,41.5-15.5,68.2-12.1c19.1,2.5,34,5,34,5v-18.8l-44.2-10.3L372.5,286.5z"/>
		<path class="st1" d="M372.5,292c-0.5,0-1-0.1-1.5-0.2c-1.5-0.4-2.7-1.4-3.4-2.8c-0.9-1.8-0.7-4,0.4-5.7c0.5-0.7,0.8-1.1,2-1.7
			l57.6-35.9c1.2-0.8,2.7-1,4.2-0.7l44.2,10.3c2.5,0.6,4.3,2.8,4.3,5.4v18.8c0,1.6-0.7,3.2-1.9,4.2s-2.9,1.5-4.5,1.2
			c-0.1,0-15-2.5-33.8-5c-23.6-3-60.5,9.6-64.7,11.4C374.5,291.7,373.5,292,372.5,292z M432.3,268.4c3.1,0,6.2,0.2,9.1,0.5
			c11.5,1.5,21.6,3,27.8,4v-8l-37.7-8.8l-23.7,14.8C415.6,269.5,424.2,268.4,432.3,268.4z"/>
	</g>
	<g>
		<path class="st3" d="M82.7,472c0,0,45.3-18.7,54.9-36.2c9.5-17.5-3.8-49.1-7.6-89.1s-1.1-86.1,26.3-111.6s67.4-43.8,113.5-29.7
			s82.7,57.1,98.3,75.4s42.2,65.6,28.4,112.1c-15.7,52.7-58.1,71.9-110.1,75c-52,3-118-24.6-134.3-15.6c-13.4,7.3-21,14.2-42.3,18.4
			C88.4,474.8,82.7,472,82.7,472z"/>
		<path class="st1" d="M90.3,478.4c-6.3,0-9.1-1-10.1-1.5c-1.9-1-3.1-3-3.1-5.1c0.1-2.2,1.4-4.1,3.4-4.9c12.1-5,45.1-20.8,52.2-33.8
			c5.2-9.5,2-25.6-1.9-46c-2.3-11.9-4.9-25.3-6.3-39.9c-5.2-54.9,4.2-94,28-116.1c20.3-18.9,62.8-48.1,118.9-30.9
			c47.6,14.5,84.9,58.3,100.8,77l0.1,0.1c16.5,19.3,43.9,68.7,29.5,117.2c-7.8,26.1-22.5,46.1-43.8,59.2
			c-18.6,11.5-41.9,18-71.2,19.7c-27.6,1.6-59.1-5.2-84.4-10.7c-20.4-4.4-41.5-9-47.6-5.6c-2.9,1.6-5.5,3.1-8,4.6
			c-9.4,5.6-18.3,10.9-35.9,14.3C101.6,477.9,95,478.4,90.3,478.4z M237.7,206c-35.8,0-63,19.5-77.7,33.1
			c-21.2,19.7-29.4,55.7-24.6,107.1c1.3,14,3.9,27.2,6.2,38.8c4.4,22.6,7.9,40.4,0.8,53.4c-5.4,9.8-19.8,19.5-32.9,26.7
			c15.1-3.1,22.7-7.6,31.5-12.8c2.6-1.6,5.3-3.2,8.4-4.8c9.7-5.3,28.8-1.2,55.2,4.5c24.7,5.3,55.4,12,81.4,10.5
			c57.5-3.4,91.9-26.7,105.1-71.1c13-44-12.2-89.2-27.3-107l-0.1-0.1c-15.3-18-51.2-60-95.6-73.6C257.5,207.4,247.3,206,237.7,206z"
			/>
	</g>
	<path class="st4" d="M367.2,288.9c0,0,37.5,79.2-35.6,115s-117.5,38.3-145.3-2.7C171,378.6,136,352.8,136,352.8s2.8,15,5.9,33.1
		c3.1,18.1,6.6,39.4,1.3,50.1c-9.2,18.8-34.1,28.5-34.1,28.5s16.2-1.5,31.2-11.8c9.2-6.3,16.2-9.2,25-8.2c19,2.3,99.4,31,157.1,12
		c40.8-13.4,64.7-33,72.2-80.8C402.3,326.7,367.2,288.9,367.2,288.9z"/>
	
		<ellipse transform="matrix(0.5609 -0.8279 0.8279 0.5609 -112.5348 324.6698)" class="st5" cx="249.8" cy="268.4" rx="17.8" ry="46.8"/>
</g>
</svg>
