<?xml version="1.0" encoding="utf-8"?>
<!-- Generator: Adobe Illustrator 26.0.3, SVG Export Plug-In . SVG Version: 6.00 Build 0)  -->
<svg version="1.1" id="Слой_1" xmlns="http://www.w3.org/2000/svg" xmlns:xlink="http://www.w3.org/1999/xlink" x="0px" y="0px"
	 viewBox="0 0 587.4 595.3" style="enable-background:new 0 0 587.4 595.3;" xml:space="preserve">
<style type="text/css">
	.st0{fill:#699659;}
	.st1{fill:#394B39;}
	.st2{fill:#3B5A3C;}
	.st3{fill:#ECC484;}
	.st4{fill:#FEEADC;}
</style>
<g>
	<g>
		<path class="st0" d="M238.5,92.2c0,0,70.7-17.3,107,37.3c24.5,36.8,13.5,49,26,74.3c8.2,16.6,31.4,15.8,42.8,49.2
			c9.6,28.1-1.6,45,11.3,66.5c14.3,23.9,35.3,33.3,40.5,71.8c8.6,63.1-29.2,79.7-29.2,79.7l10,19.3l-10-19.3c0,0-41.2,19.3-80.9,0
			c-35.6-17.4-49.1-48.1-49.1-48.1l-59.4-105.2l-8.9-194.5V92.2z"/>
		<path class="st1" d="M446.7,495.9c-2,0-3.9-1.1-4.9-3l-7.7-14.9c-12.5,4.7-46.9,14.4-80.7-2c-35.6-17.4-50.1-47.1-51.6-50.5
			l-59.3-105c-0.4-0.8-0.7-1.6-0.7-2.5L233,123.5c0-0.1,0-0.2,0-0.3v-31c0-2.5,1.7-4.7,4.2-5.3c0.8-0.2,18.9-4.5,41.8-1.9
			c30.7,3.5,55.3,17.8,71.1,41.6c15.3,23,17.4,37.2,19.3,49.8c1.3,8.4,2.4,15.7,7,25.1c2.6,5.3,7.3,8.5,13.3,12.7
			c9.9,6.8,22.3,15.3,29.7,37.2c4.7,13.9,4.7,25.2,4.7,35.2c0,11.2,0,20,6.1,30.3c4.3,7.2,9.3,13,14.5,19.2
			c11.3,13.2,23,26.9,26.8,54.7c7.2,52.9-16.5,75.3-27.4,82.6l7.6,14.7c0.4,0.8,0.6,1.7,0.6,2.5c0,2-1.1,3.9-3,4.9
			C448.4,495.7,447.6,495.9,446.7,495.9z M252.8,316.2l58.8,104.1c0.1,0.2,0.2,0.3,0.2,0.5c0.1,0.3,13.2,29.1,46.5,45.3
			c36.9,18,75.7,0.1,76.1,0c0,0,0.1,0,0.1-0.1c1.4-0.6,33.9-16.1,26-73.9c-3.4-24.6-13.5-36.5-24.2-49.1
			c-5.3-6.2-10.8-12.6-15.6-20.6c-7.7-12.8-7.7-24.1-7.7-35.9c0-9.6,0-19.5-4.1-31.6c-6.3-18.5-16.1-25.2-25.5-31.7
			c-6.7-4.6-13.1-9-16.9-16.9c-5.4-11-6.7-19.8-8-28.4c-1.8-12-3.7-24.4-17.6-45.4c-14-21.1-35.2-33.5-62.8-36.7
			c-14.9-1.7-27.8-0.2-34.1,0.8v26.4L252.8,316.2z"/>
	</g>
	<path class="st2" d="M303.1,221.1c0,0,13.2,19.3,16.9,53.1c5.3,47.9,22.2,34.1,38.6,68.7s-10.5,46.9,4,82.9
		c22.4,55.5,86.3,30.9,86.3,30.9s-7.6,16.5-46,19.6c-28.5,2.3-48.6-7.1-67.4-22.2c-8.7-7-16.9-17.7-22.2-25.3
		c-24.6-35.5-34.6-62.9-34.6-62.9s-4.4-112.6-4-114.3C275.2,249.8,303.1,221.1,303.1,221.1z"/>
	<g>
		<path class="st0" d="M238.6,74.9l-0.7,30.6c0,0-62.6,0-77.5,61.2c-10.6,43.9,13,57.6,10.4,85.9c-2,21.8-11.7,35.1-11.7,58.8
			c0,33.7,13.7,44.8,10.6,68.4c-3.7,28.3-22.7,52.3-7.6,86.9c21.3,48.9,72.5,43.6,72.5,43.6v23.9v-23.9c0,0,51.3,0.9,70.5-39.3
			c19.3-40.5-6.7-60.9-6.4-90.1c0.2-21.3,10.6-28.2,9.7-71.4c-0.6-29.2-12-35.2-11.5-56.9c0.6-29.3,12.1-31.7,12-73.1
			c-0.1-67.3-71-74-71-74L238.6,74.9z"/>
		<path class="st1" d="M234.7,539.7c-3,0-5.5-2.5-5.5-5.5V516c-5.6-0.1-14.5-0.8-24.4-3.9c-15.2-4.7-35.8-16-47.7-43.2
			c-11.3-25.9-5-46,1.1-65.5c2.6-8.3,5-16.2,6.1-24.4c1.4-10.7-1-18.4-4-28.2c-3.1-10.3-6.7-21.9-6.7-39.6c0-14,3.2-24.5,6.3-34.7
			c2.4-8,4.7-15.5,5.5-24.6c0.9-10.4-2.1-18.7-5.6-28.2c-5.3-14.5-11.4-31-4.7-58.5c8.2-33.8,30.3-49.8,47.4-57.2
			c12.2-5.3,23.6-7.2,30-7.8l0.6-25.5c0.1-3,2.6-5.5,5.6-5.4c3,0.1,5.4,2.5,5.4,5.5c0,0,0,0.1,0,0.1l-0.6,25.7
			c6.9,1.2,19.7,4.4,32.6,11.7c17.5,9.9,38.3,29.6,38.3,67c0,23.7-3.7,35.4-6.9,45.7c-2.6,8.2-4.8,15.2-5.1,27.5
			c-0.2,9.3,2,15.5,4.6,22.6c3.1,8.4,6.5,17.9,6.9,34.1c0.5,26.8-3.2,40.3-6.2,51.1c-2,7.1-3.5,12.6-3.6,20.4
			c-0.1,9.6,3,18.3,6.2,27.6c6.1,17.3,13,36.9-0.4,64.8c-16.8,35.2-55.4,41.2-69.9,42.2v18.6C240.2,537.3,237.7,539.7,234.7,539.7z
			 M237.7,111c-2,0.1-16,0.7-31.1,7.4c-21.4,9.5-35.1,26.1-40.8,49.6c-5.9,24.2-0.7,38.4,4.3,52.1c3.6,9.9,7.4,20.1,6.2,33
			c-0.9,10.2-3.5,18.6-5.9,26.8c-3,9.9-5.8,19.2-5.8,31.5c0,16,3.3,26.8,6.2,36.3c3.1,10.2,6.1,19.8,4.4,32.8
			c-1.2,9.2-3.9,17.8-6.5,26.2c-5.7,18.4-11.1,35.7-1.5,57.8c19.4,44.5,66,40.4,66.9,40.3c0.2,0,0.4,0,0.6,0c0,0,0,0,0,0
			c0,0,0,0,0,0c0,0,0,0,0,0c0,0,0,0,0,0c0,0,0,0,0,0s0,0,0,0c0,0,0,0,0.1,0c2.7,0,48.4-0.6,65.3-36.1c11.4-23.9,5.8-39.7-0.1-56.4
			c-3.4-9.8-7-19.9-6.9-31.4c0.1-9.2,2-16,4-23.2c3-10.7,6.3-22.8,5.8-48c-0.3-14.4-3.3-22.6-6.2-30.6c-2.8-7.8-5.5-15.2-5.3-26.6
			c0.3-13.9,2.9-22,5.6-30.6c3.2-10,6.5-20.4,6.4-42.4c0-25.7-10.9-44.9-32.5-57.3C255.6,113.4,239.9,111.3,237.7,111z"/>
	</g>
	<g>
		<ellipse class="st3" cx="233.7" cy="191.2" rx="36.5" ry="43.2"/>
		<path class="st2" d="M233.7,240c-23.2,0-42-21.8-42-48.7s18.8-48.7,42-48.7c23.2,0,42,21.8,42,48.7S256.9,240,233.7,240z
			 M233.7,153.5c-17.1,0-31,16.9-31,37.7s13.9,37.7,31,37.7c17.1,0,31-16.9,31-37.7S250.8,153.5,233.7,153.5z"/>
	</g>
	<g>
		<ellipse class="st3" cx="233.7" cy="309.5" rx="36.5" ry="43.2"/>
		<path class="st2" d="M233.7,358.3c-23.2,0-42-21.8-42-48.7s18.8-48.7,42-48.7c23.2,0,42,21.8,42,48.7S256.9,358.3,233.7,358.3z
			 M233.7,271.8c-17.1,0-31,16.9-31,37.7s13.9,37.7,31,37.7c17.1,0,31-16.9,31-37.7S250.8,271.8,233.7,271.8z"/>
	</g>
	<g>
		<ellipse class="st3" cx="233.7" cy="427.8" rx="36.5" ry="43.2"/>
		<path class="st2" d="M233.7,476.6c-23.2,0-42-21.8-42-48.7c0-26.9,18.8-48.7,42-48.7c23.2,0,42,21.8,42,48.7
			C275.7,454.7,256.9,476.6,233.7,476.6z M233.7,390.1c-17.1,0-31,16.9-31,37.7c0,20.8,13.9,37.7,31,37.7c17.1,0,31-16.9,31-37.7
			C264.7,407.1,250.8,390.1,233.7,390.1z"/>
	</g>
	<ellipse class="st4" cx="242.2" cy="175.7" rx="7.7" ry="9.1"/>
	<ellipse class="st4" cx="242.2" cy="294.9" rx="7.7" ry="9.1"/>
	<ellipse class="st4" cx="242.2" cy="414.1" rx="7.7" ry="9.1"/>
</g>
</svg>
